<svg width="48" height="49" viewBox="0 0 48 49" fill="none" xmlns="http://www.w3.org/2000/svg">
<path d="M24 0.5C19.2533 0.5 14.6131 1.90758 10.6663 4.54473C6.71954 7.18188 3.6434 10.9302 1.8269 15.3156C0.0103986 19.701 -0.464881 24.5266 0.461164 29.1822C1.38721 33.8377 3.67299 38.1141 7.02945 41.4706C10.3859 44.827 14.6623 47.1128 19.3178 48.0388C23.9734 48.9649 28.799 48.4896 33.1844 46.6731C37.5698 44.8566 41.3181 41.7805 43.9553 37.8337C46.5924 33.8869 48 29.2467 48 24.5C48 18.1348 45.4714 12.0303 40.9706 7.52944C36.4697 3.02856 30.3652 0.5 24 0.5Z" fill="black"/>
<path d="M23.6995 38.8998C24.958 38.8998 25.9782 37.8796 25.9782 36.6212C25.9782 35.3627 24.958 34.3425 23.6995 34.3425C22.4411 34.3425 21.4209 35.3627 21.4209 36.6212C21.4209 37.8796 22.4411 38.8998 23.6995 38.8998Z" fill="#00FF85"/>
<path d="M17.6385 34.86C18.897 34.86 19.9171 33.8398 19.9171 32.5814C19.9171 31.3229 18.897 30.3027 17.6385 30.3027C16.38 30.3027 15.3599 31.3229 15.3599 32.5814C15.3599 33.8398 16.38 34.86 17.6385 34.86Z" fill="#00FF85"/>
<path d="M23.699 22.4792V26.5198C24.4983 26.5199 25.2796 26.7571 25.9441 27.2014C26.6085 27.6456 27.1263 28.277 27.4319 29.0156C27.7375 29.7542 27.8171 30.5668 27.6608 31.3506C27.5045 32.1345 27.1192 32.8544 26.5536 33.4192L29.4125 36.2739C30.5424 35.1437 31.3118 33.7039 31.6235 32.1365C31.9352 30.5691 31.7752 28.9445 31.1637 27.468C30.5521 25.9916 29.5166 24.7296 28.1879 23.8416C26.8592 22.9536 25.2971 22.4795 23.699 22.4792Z" fill="#00FF85"/>
<path d="M23.954 10.0997C22.6956 10.0997 21.6754 11.1199 21.6754 12.3783C21.6754 13.6368 22.6956 14.657 23.954 14.657C25.2125 14.657 26.2327 13.6368 26.2327 12.3783C26.2327 11.1199 25.2125 10.0997 23.954 10.0997Z" fill="white"/>
<path d="M30.0153 14.1395C28.7569 14.1395 27.7367 15.1597 27.7367 16.4181C27.7367 17.6766 28.7569 18.6968 30.0153 18.6968C31.2738 18.6968 32.2939 17.6766 32.2939 16.4181C32.2939 15.1597 31.2738 14.1395 30.0153 14.1395Z" fill="white"/>
<path d="M23.9546 26.5203L23.9546 22.4797C23.1553 22.4796 22.374 22.2424 21.7095 21.7981C21.045 21.3539 20.5273 20.7225 20.2217 19.9839C19.9161 19.2454 19.8364 18.4327 19.9928 17.6489C20.1491 16.865 20.5344 16.1451 21.0999 15.5803L18.2411 12.7256C17.1112 13.8558 16.3417 15.2956 16.03 16.863C15.7183 18.4304 15.8784 20.055 16.4899 21.5315C17.1014 23.0079 18.137 24.2699 19.4657 25.1579C20.7944 26.0459 22.3565 26.52 23.9546 26.5203Z" fill="white"/>
</svg>
