<svg width="48" height="48" viewBox="0 0 48 48" fill="none" xmlns="http://www.w3.org/2000/svg">
<path d="M24 0C19.2533 0 14.6131 1.40758 10.6663 4.04473C6.71954 6.68188 3.6434 10.4302 1.8269 14.8156C0.0103986 19.201 -0.464881 24.0266 0.461164 28.6822C1.38721 33.3377 3.67299 37.6141 7.02945 40.9706C10.3859 44.327 14.6623 46.6128 19.3178 47.5388C23.9734 48.4649 28.799 47.9896 33.1844 46.1731C37.5698 44.3566 41.3181 41.2805 43.9553 37.3337C46.5924 33.3869 48 28.7467 48 24C48 17.6348 45.4714 11.5303 40.9706 7.02943C36.4697 2.52856 30.3652 0 24 0Z" fill="#373636"/>
<path d="M23.6995 38.3998C24.958 38.3998 25.9782 37.3796 25.9782 36.1212C25.9782 34.8627 24.958 33.8425 23.6995 33.8425C22.4411 33.8425 21.4209 34.8627 21.4209 36.1212C21.4209 37.3796 22.4411 38.3998 23.6995 38.3998Z" fill="#00FF85"/>
<path d="M17.6385 34.36C18.897 34.36 19.9171 33.3398 19.9171 32.0814C19.9171 30.8229 18.897 29.8027 17.6385 29.8027C16.38 29.8027 15.3599 30.8229 15.3599 32.0814C15.3599 33.3398 16.38 34.36 17.6385 34.36Z" fill="#00FF85"/>
<path d="M23.699 21.9792V26.0198C24.4983 26.0199 25.2796 26.2571 25.9441 26.7014C26.6085 27.1456 27.1263 27.777 27.4319 28.5156C27.7375 29.2542 27.8171 30.0668 27.6608 30.8506C27.5045 31.6345 27.1192 32.3544 26.5536 32.9192L29.4125 35.7739C30.5424 34.6437 31.3118 33.2039 31.6235 31.6365C31.9352 30.0691 31.7752 28.4445 31.1637 26.968C30.5521 25.4916 29.5166 24.2296 28.1879 23.3416C26.8592 22.4536 25.2971 21.9795 23.699 21.9792V21.9792Z" fill="#00FF85"/>
<path d="M23.954 9.59972C22.6956 9.59972 21.6754 10.6199 21.6754 11.8783C21.6754 13.1368 22.6956 14.157 23.954 14.157C25.2125 14.157 26.2327 13.1368 26.2327 11.8783C26.2327 10.6199 25.2125 9.59972 23.954 9.59972Z" fill="white"/>
<path d="M30.0153 13.6395C28.7569 13.6395 27.7367 14.6597 27.7367 15.9181C27.7367 17.1766 28.7569 18.1968 30.0153 18.1968C31.2738 18.1968 32.2939 17.1766 32.2939 15.9181C32.2939 14.6597 31.2738 13.6395 30.0153 13.6395Z" fill="white"/>
<path d="M23.9546 26.0203L23.9546 21.9797C23.1553 21.9796 22.374 21.7424 21.7095 21.2981C21.045 20.8539 20.5273 20.2225 20.2217 19.4839C19.9161 18.7454 19.8364 17.9327 19.9928 17.1489C20.1491 16.365 20.5344 15.6451 21.0999 15.0803L18.2411 12.2256C17.1112 13.3558 16.3417 14.7956 16.03 16.363C15.7183 17.9304 15.8784 19.555 16.4899 21.0315C17.1014 22.5079 18.137 23.7699 19.4657 24.6579C20.7944 25.5459 22.3565 26.02 23.9546 26.0203V26.0203Z" fill="white"/>
</svg>
