<svg width="219" height="228" viewBox="0 0 219 228" fill="none" xmlns="http://www.w3.org/2000/svg">
<path d="M35.0719 177.726C35.0719 177.963 35.062 178.2 35.0521 178.428L34.4888 188.805V188.795C34.469 189.18 34.4591 189.566 34.4591 189.931C34.4492 195.653 36.8409 200.753 40.5369 204.34C44.233 207.938 49.2634 210.122 54.6495 210.122C57.0609 210.122 59.5317 209.677 61.9529 208.748L71.6577 205.003C73.1797 204.42 74.7413 204.143 76.2828 204.133C80.5522 204.133 84.6634 206.258 87.0945 210.013L92.7475 218.74C96.7007 224.897 103.263 228.02 109.716 228C116.17 228.02 122.732 224.897 126.695 218.769L132.348 210.043C134.779 206.287 138.89 204.163 143.16 204.163C144.701 204.163 146.273 204.439 147.785 205.032L157.49 208.778C159.901 209.707 162.381 210.152 164.783 210.152C170.179 210.152 175.209 207.968 178.896 204.37C182.592 200.773 184.973 195.673 184.973 189.961C184.973 189.596 184.964 189.21 184.944 188.835L184.38 178.448V178.438C184.371 178.21 184.361 177.983 184.361 177.746C184.361 171.955 188.264 166.816 193.917 165.313L203.968 162.635C208.643 161.4 212.448 158.642 215.017 155.144C217.596 151.645 218.99 147.396 218.99 143.048C219 138.659 217.537 134.143 214.454 130.348L207.902 122.284C205.974 119.902 205.026 117.036 205.026 114.15C205.026 111.265 205.984 108.399 207.911 106.037L214.464 97.9723C217.547 94.1871 219.01 89.6708 219 85.2729C219 80.9244 217.606 76.675 215.027 73.1765C212.458 69.678 208.643 66.9206 203.978 65.6854L193.927 63.0072C188.264 61.505 184.371 56.3758 184.371 50.5745C184.371 50.3472 184.38 50.11 184.39 49.8728L184.954 39.4859V39.476C184.973 39.1005 184.983 38.7249 184.983 38.3494C184.993 32.6273 182.601 27.5278 178.905 23.9403C175.209 20.3429 170.179 18.1587 164.793 18.1587C162.381 18.1587 159.911 18.6034 157.49 19.5324L147.785 23.2781C146.263 23.8612 144.701 24.1379 143.16 24.1478C138.89 24.1478 134.779 22.023 132.348 18.2676L126.695 9.54107C122.732 3.4038 116.17 0.280768 109.716 0.300755C103.263 0.28099 96.7007 3.40405 92.7377 9.53121L87.0846 18.2577C84.6535 22.0132 80.5423 24.1379 76.273 24.1379C74.7312 24.1379 73.1598 23.8612 71.6479 23.2682L61.943 19.5226C59.5316 18.5936 57.051 18.1488 54.6397 18.1488C49.2437 18.1488 44.2133 20.3329 40.5271 23.9304C36.831 27.5278 34.4493 32.6273 34.4493 38.3395C34.4493 38.7151 34.4591 39.0906 34.4789 39.4661L35.0422 49.8432C35.0521 50.0804 35.062 50.3176 35.062 50.5449C35.062 56.3363 31.1681 61.4752 25.5054 62.9775L15.4545 65.6558C10.7798 66.8911 6.97495 69.6484 4.40548 73.1469C1.82614 76.6552 0.432617 80.895 0.432617 85.2433C0.432617 89.6609 1.89526 94.1772 4.97877 97.9624L11.531 106.027C13.4581 108.399 14.4068 111.265 14.4167 114.14C14.4167 117.026 13.458 119.892 11.531 122.254L4.97877 130.338C1.89521 134.123 0.432617 138.64 0.442484 143.038C0.442484 147.386 1.83596 151.636 4.41535 155.134C6.99468 158.633 10.7995 161.39 15.4644 162.625L25.5153 165.303C31.1683 166.796 35.0719 171.935 35.0719 177.726Z" fill="#00FF85"/>
</svg>
