<svg width="87" height="57" viewBox="0 0 87 57" fill="none" xmlns="http://www.w3.org/2000/svg">
<path d="M47.473 56.922C41.9769 56.922 37.09 54.0118 34.047 49.379C31.1876 52.1329 27.5158 53.9571 23.645 53.7149C20.0591 53.4844 13.645 51.0977 10.973 37.7269C10.3793 34.7699 10.0121 31.973 9.85975 29.3402C6.34805 32.0277 4.09415 35.3636 3.42225 37.0433C3.11366 37.8128 2.24255 38.1878 1.47305 37.8792C0.703517 37.5706 0.328547 36.6995 0.637107 35.93C1.56289 33.6097 4.75431 28.9495 9.79331 25.731C9.96909 18.0943 12.2269 12.032 16.5589 7.62202C23.3206 0.739217 33.5039 -0.284182 40.1679 0.926718C45.5195 1.89938 50.1759 6.68842 51.7379 12.6107C52.9098 13.3685 53.9996 14.2201 55.0074 15.1654C62.6793 13.7631 68.2774 14.7943 71.6834 18.2396C71.9647 18.5248 72.2303 18.8256 72.4686 19.1302C76.9217 18.5365 80.4139 19.4896 82.8826 21.97C90.1951 29.3216 85.1131 47.49 84.8943 48.259C84.6638 49.0559 83.8357 49.5168 83.0388 49.2902C82.2419 49.0637 81.781 48.2316 82.0076 47.4347C82.0584 47.2629 86.8318 30.1887 80.7537 24.0827C79.2029 22.5241 76.9725 21.8249 74.1092 21.985C76.2147 27.1959 74.6873 33.27 74.4959 33.993C73.3201 39.7118 67.2459 43.2703 61.8939 43.2703C61.8119 43.2703 61.7298 43.2703 61.6478 43.2664C59.5228 50.6883 54.6126 56.9224 47.4718 56.9224L47.473 56.922ZM36.141 47.0118C38.434 50.9532 42.3324 53.922 47.473 53.922C52.8168 53.922 56.7933 48.9337 58.657 42.777C57.3211 42.3278 56.239 41.5817 55.4929 40.5817C54.7625 39.6012 53.9968 37.8786 54.5242 35.2458C55.1726 31.9958 56.8133 29.277 58.7547 27.0817C57.8328 23.9528 56.2938 20.9528 53.9969 18.4294C53.4031 18.5622 52.7938 18.7067 52.1688 18.8669C51.618 23.5466 48.9461 29.9999 39.6888 35.3709C39.9505 37.3748 39.724 39.5232 38.9779 41.7225C38.3607 43.5389 37.3881 45.3592 36.142 47.0116L36.141 47.0118ZM12.786 27.4458C12.8407 30.4224 13.2157 33.6528 13.911 37.1372C15.6024 45.5903 19.1258 50.4142 23.8368 50.7192C26.8056 50.9223 30.0516 49.2817 32.5556 46.6411C31.7822 44.895 31.2353 42.9809 30.9697 40.9419C30.8447 39.9966 30.7822 39.0747 30.7783 38.1802C27.5283 38.2153 24.5635 37.1138 22.1064 34.8482C19.5361 32.481 17.9384 29.1685 17.4697 25.6998C16.9932 25.8052 16.5166 25.9302 16.04 26.0787C14.8877 26.4381 13.8017 26.9068 12.7861 27.4459L12.786 27.4458ZM33.802 37.8128C33.7786 38.7425 33.8294 39.6605 33.9466 40.5511C34.0911 41.6488 34.345 42.7503 34.7044 43.8245C35.2864 42.8596 35.7708 41.8323 36.1341 40.7542C36.4856 39.719 36.8138 38.3401 36.7981 36.8362C35.7903 37.2659 34.7864 37.5901 33.802 37.8127V37.8128ZM62.091 27.9456C62.6887 30.5706 62.9348 33.3479 62.8059 36.1878C62.7434 37.5394 62.591 38.8987 62.3528 40.2464C66.0598 40.0472 70.6966 37.7152 71.5716 33.3519C71.5794 33.3167 71.5872 33.2777 71.5989 33.2425C71.6184 33.1722 73.2903 26.973 71.0325 22.4375C70.6184 22.5313 70.1926 22.6367 69.7591 22.7578C69.1653 23.0117 65.3568 24.7734 62.0911 27.9453L62.091 27.9456ZM59.5754 30.9222C58.595 32.3714 57.8332 34.012 57.466 35.8324C57.22 37.0746 57.3645 38.0668 57.8996 38.7855C58.2824 39.2972 58.8293 39.6292 59.3723 39.8441C59.6028 38.5941 59.7512 37.3207 59.8098 36.055C59.8841 34.3831 59.8137 32.6527 59.5755 30.9222H59.5754ZM20.4624 25.3363C20.8492 28.1215 22.1186 30.7894 24.1382 32.6488C26.0757 34.43 28.3999 35.2777 30.978 35.184C31.2749 33.1059 31.8921 31.1879 32.7632 29.434C32.6578 29.3598 32.5523 29.2855 32.4429 29.2113C28.3921 26.516 24.3804 25.2113 20.4629 25.3363L20.4624 25.3363ZM35.0874 31.6605C34.689 32.637 34.3882 33.6253 34.1773 34.6136C34.8609 34.3987 35.5562 34.1292 36.2593 33.7972C35.9898 33.0784 35.6108 32.3597 35.0874 31.6605L35.0874 31.6605ZM36.5796 28.805C37.5718 29.8714 38.3452 31.0667 38.8804 32.3519C44.4937 28.9066 47.9898 24.5316 48.9974 19.8049C42.8919 21.9221 38.9234 25.176 36.5794 28.8049L36.5796 28.805ZM20.9776 22.3167C25.3174 22.3167 29.7081 23.7855 34.1026 26.7151C34.1691 26.758 34.2355 26.8049 34.298 26.8479C37.8605 21.7698 43.6261 18.3596 49.294 16.5589C49.2744 15.9456 49.2197 15.3284 49.1182 14.7073C49.1065 14.6409 49.0947 14.5706 49.083 14.5042C46.3057 12.9222 42.9111 11.8401 38.813 11.4651C26.875 10.3831 22.727 15.5628 21.313 18.7463C20.813 19.8752 20.5083 21.0861 20.3911 22.3244C20.5904 22.3205 20.7818 22.3166 20.9771 22.3166L20.9776 22.3167ZM57.4116 17.8128C57.5484 17.9925 57.6851 18.1722 57.8179 18.3557C59.2085 20.2659 60.3257 22.4104 61.1499 24.719C64.7241 21.6331 68.3999 20.0706 68.6694 19.9534C68.728 19.93 68.7827 19.9105 68.8413 19.8949C68.896 19.8792 68.9467 19.8636 68.9975 19.8519C66.5405 17.7855 62.6577 17.1097 57.4115 17.8128L57.4116 17.8128ZM35.2746 3.51178C30.2004 3.51178 23.4776 4.85948 18.7006 9.72268C15.2475 13.2383 13.3022 18.0391 12.8725 24.0747C13.603 23.7505 14.3647 23.4653 15.1498 23.2192C15.8803 22.9926 16.6146 22.809 17.349 22.6684C17.4506 20.9067 17.853 19.1645 18.5756 17.5356C21.5365 10.8676 29.0136 7.56293 39.0916 8.48483C42.2322 8.76999 45.1307 9.46139 47.7439 10.5317C45.9861 7.09423 42.9353 4.47703 39.6345 3.87943C38.4431 3.66068 36.947 3.51224 35.2751 3.51224L35.2746 3.51178Z" fill="black" fill-opacity="0.07"/>
</svg>
