<svg width="177" height="93" viewBox="0 0 177 93" fill="none" xmlns="http://www.w3.org/2000/svg">
<path d="M116.244 53.6385C115.142 51.6385 114.142 49.8377 113.244 48.0369C112.846 47.2362 112.642 46.3377 112.545 45.4353C112.443 45.0369 112.744 44.5369 113.045 44.3337C113.146 44.2322 113.744 44.3337 114.045 44.533C116.943 46.2322 119.146 48.533 120.646 51.533C122.248 54.7322 121.045 57.3338 117.545 58.1346C114.646 58.8338 111.646 59.033 108.646 58.7361C107.947 58.6346 107.248 58.6346 106.447 58.6346C106.146 59.8338 106.846 60.3338 107.346 60.9354C109.447 63.4354 111.545 65.9354 113.646 68.4354C114.846 69.9354 114.545 71.6346 112.846 72.537C111.846 73.037 110.646 73.537 109.447 73.537C105.846 73.537 102.346 73.3377 98.7483 73.2362C98.049 73.2362 97.3499 73.1346 96.3499 73.1346C96.6506 73.9354 96.7483 74.3338 96.9514 74.8338C98.1506 77.3338 99.3498 79.8338 100.553 82.2322C101.752 84.7322 100.553 87.033 98.2522 87.8338C96.6506 88.4354 94.9514 88.7323 93.2522 88.8338C91.8538 88.9354 90.3538 88.4354 88.4514 88.033C90.8498 84.8338 94.3498 86.2322 97.2522 85.1346C96.7522 83.9354 96.3538 82.7362 95.8538 81.6346C94.7522 79.3338 93.553 77.1346 92.3538 74.8338C91.553 73.4354 91.3538 71.9354 91.6546 70.3338C91.9554 68.1346 93.053 67.1346 95.2562 67.2322C96.7562 67.3338 98.1546 67.6307 99.6546 67.8338C101.854 68.1346 104.053 68.533 106.256 68.7322C106.756 68.8338 107.256 68.6307 108.057 68.533C107.455 67.7322 107.057 67.1346 106.659 66.533C104.959 63.9314 103.159 61.3338 101.557 58.7322C100.455 56.9314 101.455 55.3338 102.159 53.7322C102.26 53.4314 103.159 53.4314 103.76 53.4314C106.76 53.7322 109.76 54.1307 112.862 54.4314C114.143 54.5369 115.245 54.1385 116.245 53.6385L116.244 53.6385Z" fill="white" fill-opacity="0.3"/>
<path d="M149.943 62.1385C150.341 63.2401 150.642 64.1385 150.841 64.9393C151.341 66.2401 151.841 67.6385 151.142 69.0409C150.841 69.7402 150.244 70.3417 149.744 71.2401C149.345 70.5409 149.142 70.2401 148.943 69.8417C148.142 68.1425 147.341 66.4433 146.443 64.8417C145.443 63.1425 145.142 61.4433 145.744 59.5409C146.345 57.5409 146.642 57.3417 148.642 57.1425C150.943 56.8417 153.244 56.541 155.443 56.2441C155.744 56.2441 155.943 56.0449 156.443 55.8456C155.744 54.0448 154.943 52.4472 154.244 50.744C153.642 49.4432 153.045 48.1424 152.545 46.8456C151.845 44.744 152.545 43.5448 154.646 42.9472C155.447 42.748 156.248 42.4472 157.045 42.3457C160.146 41.9472 162.845 40.4473 165.646 39.3457C166.646 38.9472 167.045 38.2441 166.748 37.2441C166.447 36.2441 166.146 35.2441 165.947 34.2441C165.646 32.9433 165.447 31.6425 165.345 30.3457C165.244 29.1465 165.947 28.4473 167.045 27.9473C168.244 27.4473 169.345 26.8457 170.545 26.3457C171.845 25.8457 173.244 25.4472 174.646 26.2441C176.045 26.9433 176.545 28.0449 175.646 29.3457C175.146 30.1465 174.345 30.6465 173.545 31.2441C173.146 31.5449 172.646 31.6426 172.146 31.8457C171.646 32.0449 171.248 32.2441 170.646 32.5449C170.646 34.3457 170.545 36.2441 170.646 38.0449C170.748 39.4433 170.248 40.4433 169.345 41.4433C167.244 43.8417 164.244 44.3417 161.646 45.7441C160.748 46.2441 159.845 46.7441 158.947 47.2441C159.947 49.3457 160.845 51.2441 161.549 53.1425C162.947 56.8417 161.248 59.9433 157.248 60.7441C155.646 61.0449 154.049 61.2441 152.349 61.5449C151.744 61.7363 151.041 61.9355 149.943 62.1386L149.943 62.1385Z" fill="white" fill-opacity="0.3"/>
<path d="M133.244 49.5364C131.845 47.7356 130.443 46.0364 129.244 44.3372C127.345 41.638 128.642 38.0364 131.744 36.9388C132.545 36.6381 133.345 36.4388 134.142 36.2396C134.841 36.0404 135.541 35.8412 136.443 35.5404C136.244 35.0404 136.045 34.642 135.842 34.2396C134.842 32.138 133.642 30.138 132.74 28.0404C131.638 25.3412 132.638 23.7396 135.638 23.0404C138.439 22.4388 141.037 21.5404 143.537 20.0404C143.837 19.8412 144.138 19.5404 144.537 19.2396C143.935 18.5404 143.338 18.0404 142.838 17.3412C141.537 15.642 140.236 13.9428 138.838 12.2396C138.138 11.3412 138.439 10.5404 138.838 9.73963C139.537 8.54043 140.537 8.34123 141.537 9.43885C143.236 11.2396 144.935 13.0404 146.435 14.9388C147.537 16.4388 148.435 18.138 147.834 20.138C147.435 21.5364 146.435 22.3372 145.232 23.0364C142.931 24.3372 140.63 25.7356 138.13 27.2356C138.83 28.2356 139.431 29.0364 140.029 29.8372C140.63 30.638 141.427 31.4388 142.029 32.2356C143.427 34.134 143.427 35.134 142.029 37.0364C140.927 38.5364 139.728 39.7356 137.83 40.0364C136.529 40.2357 135.228 40.7357 133.728 41.2356C134.228 42.3372 134.728 43.3372 135.228 44.3372C136.443 47.2356 136.244 47.9349 133.244 49.5364H133.244Z" fill="white" fill-opacity="0.3"/>
<path d="M94.744 36.9345C95.6424 33.7353 96.3456 31.1337 96.9432 28.6337C97.6424 25.9345 99.0448 25.2353 101.642 26.1337C103.342 26.7353 105.041 27.0321 106.744 27.5321C107.443 25.7313 107.943 24.2313 108.545 22.7313C109.545 20.3329 110.545 19.8329 112.846 21.2313C115.447 22.8329 118.146 23.9305 121.146 24.3329C122.947 24.6337 123.346 25.9345 122.146 27.3329C120.947 28.7313 119.248 29.1337 117.447 28.8329C115.947 28.5321 114.549 28.0321 113.146 27.6337C112.545 27.4345 111.947 27.2353 111.248 26.9345C110.748 27.9345 110.248 28.8329 109.85 29.6337C108.15 32.5321 105.85 33.3329 102.65 32.4345C101.451 32.036 100.252 31.7353 98.8496 31.3329C98.6504 32.4345 98.4512 33.1337 98.3496 33.9345C98.248 35.0361 98.248 36.1337 98.1504 37.2353C97.9512 38.5361 97.2519 39.5361 95.9512 40.0361C94.6504 40.5361 93.4512 40.4345 92.5528 39.3369C91.1544 37.7353 89.8536 36.1377 88.4512 34.6377C87.8496 34.0361 87.8496 33.2393 88.4512 32.8369C88.9512 32.5361 89.8496 32.4384 90.4512 32.6376C91.0527 32.8369 91.3496 33.5361 91.8496 34.036C92.7441 34.9345 93.541 35.7353 94.7441 36.9345L94.744 36.9345Z" fill="white" fill-opacity="0.3"/>
<path d="M138.142 80.2354C137.142 79.1338 135.841 79.0362 134.54 79.0362H128.74C127.638 79.0362 126.54 78.7355 125.04 78.5362C126.24 76.1378 127.24 73.9346 128.341 71.837C127.341 71.1378 127.341 71.1378 124.841 70.7354C124.24 69.337 124.142 67.7354 124.443 66.2354C124.744 64.6338 125.044 63.0362 125.443 61.4346C125.544 61.0362 125.642 60.5362 125.841 60.1338C126.24 59.2354 127.54 58.5322 128.24 58.833C129.341 59.2315 129.04 60.2314 128.841 60.9346C128.642 62.1338 128.142 63.2354 127.74 64.333C127.638 64.833 127.54 65.333 127.54 65.9346C128.939 66.6339 130.341 66.4346 131.74 66.5362C134.138 66.6378 134.74 67.337 134.04 69.6378C133.642 70.9386 132.74 72.1378 131.939 73.2394C131.337 74.2394 130.54 75.1378 129.54 76.4386C130.74 76.4386 131.341 76.5402 132.04 76.5402C134.439 76.6417 136.939 76.6417 139.341 76.8409C141.341 77.0402 141.943 78.2393 140.943 79.9425C140.142 81.2433 139.142 82.3409 138.142 83.6417C138.642 83.841 138.943 84.0402 139.244 84.0402C141.943 84.341 144.744 84.6417 147.443 85.0402C147.943 85.1417 148.642 85.5402 148.744 86.0402C148.845 86.4386 148.443 87.2394 148.044 87.4386C147.443 87.837 146.646 88.0401 145.943 88.0401C144.943 88.0401 143.943 87.9386 143.044 87.6417C140.443 86.8409 137.845 86.5401 135.146 86.7433C134.845 86.7433 134.447 86.6417 133.947 86.544C134.541 83.837 137.142 82.7354 138.142 80.2354H138.142Z" fill="white" fill-opacity="0.3"/>
<path d="M168.744 88.5365C169.744 88.2357 170.846 87.8373 171.846 87.5365C172.647 87.3373 173.447 86.935 174.147 86.935C174.647 86.935 175.346 87.435 175.647 87.935C176.045 88.5365 175.846 89.3334 175.045 89.6342C172.647 90.5326 170.147 91.3334 167.647 92.0326C166.748 92.3333 166.248 91.6341 166.045 90.8334C165.846 89.9349 165.744 88.935 165.846 87.935C166.147 86.0366 166.744 84.1342 167.244 82.3334C167.443 81.5326 167.744 80.6342 168.045 79.5326C166.244 79.7318 164.846 80.2318 163.545 80.8334C162.545 81.2318 161.545 81.7318 160.443 82.0326C158.244 82.6341 158.045 82.5326 156.943 80.2318C157.443 79.431 157.943 78.431 158.643 77.7318C159.041 77.2318 159.643 76.7318 160.244 76.6302C163.143 76.2317 165.244 75.431 167.744 73.7318C168.346 73.2318 169.244 73.0325 170.045 72.8333C171.647 72.4349 172.244 73.1341 171.943 74.7317C171.143 78.2317 170.643 81.7317 169.045 85.0327C168.545 86.0327 168.545 87.1343 168.346 88.2319C168.443 88.2358 168.643 88.3374 168.744 88.5366L168.744 88.5365Z" fill="white" fill-opacity="0.3"/>
<path d="M162.54 11.5365C164.54 10.5365 165.841 8.93494 167.341 7.63814C167.942 7.13814 168.54 6.53654 169.239 6.23974C170.138 5.8413 170.841 6.04052 171.438 7.04052C172.239 8.43892 173.337 9.64212 174.239 11.0405C174.938 12.2397 175.54 13.5405 176.04 14.8413C176.341 15.9429 175.739 16.4429 174.642 16.5405C173.04 16.6421 172.04 15.6421 171.142 14.4389C170.54 13.6381 170.04 12.6381 169.341 11.9389C168.341 10.8373 168.04 10.8373 166.739 11.6381C165.54 12.4389 164.239 13.3373 162.938 13.9389C160.938 14.8374 160.337 14.7397 159.138 12.8373C158.036 11.1381 156.938 9.33734 156.138 7.43894C155.739 6.5405 155.739 5.33734 156.036 4.43894C156.435 3.13814 157.638 3.13814 158.337 4.23972C159.036 5.34132 159.638 6.54052 160.337 7.73972C160.942 8.83742 161.743 10.1381 162.54 11.5366L162.54 11.5365Z" fill="white" fill-opacity="0.3"/>
<path d="M99.54 6.3373C102.04 7.4389 104.438 8.5365 106.841 9.5365C108.239 10.1381 108.739 11.4349 107.739 12.3373C105.739 14.0365 103.739 15.9389 100.938 16.2357C100.837 16.2357 100.638 16.1341 100.239 16.0365C101.341 15.0365 102.341 14.1381 103.54 13.1381C101.04 11.5365 98.6417 10.3373 95.9385 9.93888C95.1416 6.83728 96.1416 4.43498 98.3408 2.33728C98.6415 2.0365 99.3408 1.93884 99.7392 2.0365C100.04 2.13806 100.239 2.73572 100.239 3.1381C100.04 4.2358 99.7431 5.2358 99.5399 6.3373H99.54Z" fill="white" fill-opacity="0.3"/>
<path d="M131.142 2.83728C131.244 3.93888 131.54 4.53648 131.341 4.93888C131.04 5.83732 130.443 6.63808 129.943 7.43888C129.443 8.23966 128.841 9.04048 128.443 9.83728C127.642 11.7357 125.443 13.1381 122.943 13.0365C125.041 9.23568 127.041 5.53648 131.142 2.83748L131.142 2.83728Z" fill="white" fill-opacity="0.3"/>
<path d="M28.244 38.4652C27.1424 40.4652 26.1424 42.266 25.244 44.0668C24.8456 44.8676 24.6425 45.766 24.5448 46.6684C24.4432 47.0669 24.744 47.5669 25.0448 47.77C25.1464 47.8716 25.744 47.77 26.0448 47.5708C28.9432 45.8716 31.1464 43.5708 32.6464 40.5708C34.248 37.3716 33.0448 34.77 29.5448 33.9692C26.6464 33.27 23.6464 33.0708 20.6464 33.3676C19.9472 33.4692 19.248 33.4692 18.4472 33.4692C18.1464 32.27 18.8456 31.77 19.3456 31.1684C21.4472 28.6684 23.5448 26.1684 25.6464 23.6684C26.8456 22.1684 26.5449 20.4692 24.8457 19.5668C23.8457 19.0668 22.6465 18.5668 21.4473 18.5668C17.8457 18.5668 14.3457 18.766 10.7483 18.8676C10.049 18.8676 9.34986 18.9691 8.34986 18.9691C8.65064 18.1684 8.7483 17.7699 8.95142 17.2699C10.1506 14.7699 11.3498 12.2699 12.553 9.87154C13.7522 7.37154 12.553 5.07074 10.2522 4.26994C8.65062 3.66838 6.95142 3.3715 5.25222 3.26994C3.85382 3.16838 2.35382 3.66838 0.451416 4.07072C2.84982 7.26992 6.34982 5.87152 9.25222 6.96912C8.75222 8.16832 8.35378 9.36752 7.85382 10.4691C6.75222 12.7699 5.55302 14.9691 4.35382 17.2699C3.55304 18.6683 3.35382 20.1683 3.6546 21.7699C3.95538 23.9691 5.053 24.9691 7.2562 24.8715C8.7562 24.77 10.1546 24.4731 11.6546 24.27C13.8538 23.9692 16.053 23.5707 18.2562 23.3715C18.7562 23.27 19.2562 23.4731 20.057 23.5707C19.4554 24.3715 19.057 24.9691 18.6586 25.5707C16.9594 28.1723 15.1586 30.7699 13.557 33.3715C12.4554 35.1723 13.4554 36.7699 14.1586 38.3715C14.2601 38.6723 15.1586 38.6723 15.7602 38.6723C18.7602 38.3715 21.7602 37.9731 24.8618 37.6723C26.143 37.5668 27.2446 37.9653 28.2446 38.4653L28.244 38.4652Z" fill="white" fill-opacity="0.3"/>
<path d="M61.943 29.9652C62.3414 28.8636 62.6422 27.9652 62.8414 27.1644C63.3414 25.8636 63.8414 24.4652 63.1422 23.0628C62.8414 22.3636 62.2438 21.762 61.7438 20.8636C61.3454 21.5629 61.1423 21.8636 60.943 22.262C60.1423 23.9612 59.3414 25.6604 58.443 27.262C57.443 28.9612 57.1422 30.6604 57.7438 32.5628C58.3454 34.5628 58.6423 34.762 60.6422 34.9612C62.943 35.262 65.2438 35.5628 67.443 35.8597C67.7438 35.8597 67.943 36.0589 68.443 36.2581C67.7438 38.0589 66.943 39.6565 66.2438 41.3597C65.6423 42.6605 65.0446 43.9613 64.5446 45.2581C63.8454 47.3597 64.5446 48.5589 66.6462 49.1565C67.447 49.3557 68.2478 49.6565 69.0446 49.7581C72.1462 50.1565 74.8454 51.6565 77.6462 52.7581C78.6462 53.1565 79.0446 53.8597 78.7478 54.8597C78.447 55.8597 78.1463 56.8597 77.947 57.8597C77.6463 59.1605 77.4471 60.4613 77.3455 61.7581C77.2439 62.9573 77.947 63.6565 79.0447 64.1565C80.2439 64.6565 81.3455 65.2581 82.5447 65.7581C83.8455 66.2581 85.2439 66.6565 86.6463 65.8596C88.0447 65.1604 88.5447 64.0588 87.6463 62.758C87.1463 61.9573 86.3455 61.4572 85.5447 60.8596C85.1462 60.5589 84.6462 60.4612 84.1463 60.2581C83.6463 60.0589 83.2478 59.8596 82.6463 59.5589C82.6463 57.7581 82.5447 55.8597 82.6463 54.0589C82.7478 52.6605 82.2479 51.6605 81.3455 50.6605C79.2439 48.2621 76.2439 47.7621 73.6463 46.3597C72.7478 45.8597 71.8455 45.3597 70.9471 44.8597C71.9471 42.7581 72.8455 40.8597 73.5487 38.9613C74.9471 35.2621 73.2479 32.1604 69.2479 31.3596C67.6463 31.0589 66.0487 30.8596 64.3495 30.5589C63.744 30.3675 63.0409 30.1682 61.9433 29.9651L61.943 29.9652Z" fill="white" fill-opacity="0.3"/>
<path d="M45.2439 42.5673C43.8455 44.3681 42.4431 46.0673 41.2439 47.7665C39.3455 50.4657 40.6423 54.0673 43.7439 55.1649C44.5447 55.4657 45.3455 55.6649 46.1423 55.8641C46.8415 56.0634 47.5407 56.2626 48.4431 56.5634C48.2439 57.0634 48.0446 57.4618 47.8415 57.8642C46.8415 59.9658 45.6423 61.9658 44.7399 64.0634C43.6383 66.7626 44.6384 68.3642 47.6383 69.0634C50.4391 69.6649 53.0367 70.5634 55.5367 72.0634C55.8375 72.2626 56.1383 72.5634 56.5367 72.8641C55.9352 73.5634 55.3375 74.0633 54.8375 74.7625C53.5367 76.4617 52.2359 78.1609 50.8375 79.8641C50.1383 80.7626 50.4391 81.5633 50.8375 82.3641C51.5367 83.5633 52.5367 83.7625 53.5367 82.6649C55.2359 80.8641 56.9351 79.0633 58.4351 77.1649C59.5367 75.6649 60.4351 73.9657 59.8335 71.9657C59.4351 70.5673 58.4351 69.7665 57.2319 69.0673C54.9311 67.7665 52.6303 66.3681 50.1303 64.8681C50.8295 63.8681 51.4311 63.0673 52.0287 62.2665C52.6303 61.4657 53.4271 60.6649 54.0287 59.8681C55.4271 57.9697 55.4271 56.9697 54.0287 55.0673C52.9271 53.5673 51.7279 52.3681 49.8295 52.0673C48.5287 51.8681 47.2279 51.3681 45.7279 50.8681C46.2279 49.7665 46.7279 48.7665 47.2279 47.7665C48.4427 44.8681 48.2435 44.1688 45.2435 42.5673H45.2439Z" fill="white" fill-opacity="0.3"/>
<path d="M6.74399 55.1693C7.64243 58.3685 8.34559 60.9701 8.94319 63.4701C9.64241 66.1693 11.0448 66.8685 13.6424 65.9701C15.3416 65.3685 17.0408 65.0716 18.744 64.5717C19.4432 66.3725 19.9432 67.8725 20.5448 69.3725C21.5448 71.7709 22.5448 72.2709 24.8456 70.8725C27.4472 69.2709 30.1464 68.1733 33.1464 67.7709C34.9472 67.4701 35.3456 66.1693 34.1464 64.7709C32.9472 63.3725 31.248 62.9701 29.4472 63.2709C27.9472 63.5716 26.5488 64.0716 25.1464 64.4701C24.5448 64.6693 23.9472 64.8685 23.248 65.1693C22.748 64.1693 22.248 63.2709 21.8496 62.4701C20.1504 59.5717 17.8496 58.7709 14.6504 59.6693C13.4512 60.0677 12.252 60.3685 10.8496 60.7709C10.6504 59.6693 10.4512 58.9701 10.3496 58.1693C10.248 57.0677 10.248 55.9701 10.1504 54.8685C9.95115 53.5677 9.25193 52.5677 7.95117 52.0677C6.65037 51.5677 5.45117 51.6692 4.55277 52.7669C3.15437 54.3685 1.85357 55.9661 0.45117 57.4661C-0.15039 58.0677 -0.15039 58.8645 0.45117 59.2669C0.95117 59.5677 1.84957 59.6653 2.45117 59.4661C3.05273 59.2669 3.34961 58.5677 3.84957 58.0677C4.7441 57.1693 5.54097 56.3685 6.74407 55.1693L6.74399 55.1693Z" fill="white" fill-opacity="0.3"/>
<path d="M50.1421 11.8683C49.1421 12.9699 47.8413 13.0675 46.5405 13.0675H40.7397C39.6381 13.0675 38.5405 13.3683 37.0405 13.5675C38.2397 15.9659 39.2397 18.1691 40.3413 20.2667C39.3413 20.9659 39.3413 20.9659 36.8413 21.3683C36.2397 22.7667 36.1421 24.3683 36.4428 25.8683C36.7436 27.4699 37.0444 29.0675 37.4428 30.6691C37.5444 31.0676 37.6421 31.5676 37.8413 31.9699C38.2397 32.8684 39.5405 33.5715 40.2397 33.2707C41.3413 32.8723 41.0405 31.8723 40.8412 31.1691C40.642 29.9699 40.142 28.8683 39.7396 27.7707C39.6381 27.2707 39.5404 26.7707 39.5404 26.1691C40.9388 25.4699 42.3412 25.6691 43.7396 25.5676C46.138 25.466 46.7396 24.7668 46.0404 22.466C45.642 21.1652 44.7396 19.966 43.9388 18.8644C43.3373 17.8644 42.5404 16.966 41.5404 15.6652C42.7396 15.6652 43.3412 15.5636 44.0404 15.5636C46.4388 15.462 48.9388 15.462 51.3412 15.2628C53.3412 15.0636 53.9428 13.8644 52.9428 12.1612C52.142 10.8604 51.142 9.76282 50.142 8.46202C50.642 8.2628 50.9428 8.06358 51.2436 8.06358C53.9428 7.7628 56.7436 7.46202 59.4428 7.06358C59.9428 6.96202 60.642 6.56358 60.7436 6.06358C60.8452 5.66514 60.4428 4.86438 60.0444 4.66518C59.4428 4.26674 58.646 4.06362 57.9428 4.06362C56.9428 4.06362 55.9428 4.16517 55.0444 4.46205C52.4428 5.26283 49.8452 5.56366 47.146 5.3605C46.8452 5.3605 46.4468 5.46206 45.9468 5.55972C46.5406 8.26672 49.1421 9.36832 50.1421 11.8683H50.1421Z" fill="white" fill-opacity="0.3"/>
<path d="M80.7439 3.56723C81.7439 3.86801 82.8455 4.26645 83.8455 4.56723C84.6463 4.76645 85.4471 5.16879 86.1463 5.16879C86.6463 5.16879 87.3455 4.66879 87.6463 4.16879C88.0448 3.56723 87.8455 2.77039 87.0448 2.46959C84.6464 1.57115 82.1464 0.770392 79.6464 0.0711918C78.7479 -0.229588 78.248 0.469635 78.0448 1.2704C77.8455 2.16884 77.744 3.16879 77.8455 4.16879C78.1463 6.06719 78.744 7.96959 79.2439 9.77039C79.4432 10.5712 79.7439 11.4696 80.0447 12.5712C78.2439 12.372 76.8455 11.872 75.5447 11.2704C74.5447 10.872 73.5447 10.372 72.4431 10.0712C70.2439 9.46963 70.0447 9.5712 68.9431 11.872C69.4431 12.6728 69.9431 13.6728 70.6423 14.372C71.0408 14.872 71.6423 15.372 72.2439 15.4736C75.1423 15.872 77.2439 16.6728 79.7439 18.372C80.3455 18.872 81.2439 19.0712 82.0447 19.2704C83.6463 19.6689 84.2439 18.9697 83.9431 17.372C83.1423 13.872 82.6423 10.372 81.0447 7.07103C80.5447 6.07103 80.5447 4.96943 80.3455 3.87183C80.4432 3.86793 80.6424 3.76636 80.7439 3.56714L80.7439 3.56723Z" fill="white" fill-opacity="0.3"/>
<path d="M74.54 80.5672C76.54 81.5672 77.8408 83.1688 79.3408 84.4656C79.9424 84.9656 80.54 85.5672 81.2392 85.864C82.1377 86.2625 82.8408 86.0632 83.4384 85.0632C84.2392 83.6648 85.3368 82.4616 86.2392 81.0632C86.9384 79.864 87.54 78.5632 88.04 77.2624C88.3408 76.1608 87.7393 75.6608 86.6416 75.5632C85.04 75.4617 84.04 76.4617 83.1416 77.6648C82.5401 78.4656 82.04 79.4656 81.3408 80.1648C80.3408 81.2664 80.04 81.2664 78.7392 80.4656C77.54 79.6648 76.2392 78.7664 74.9384 78.1648C72.9384 77.2664 72.3368 77.364 71.1376 79.2664C70.036 80.9656 68.9384 82.7664 68.1376 84.6648C67.7392 85.5633 67.7392 86.7664 68.0361 87.6648C68.4345 88.9656 69.6377 88.9656 70.3369 87.864C71.0361 86.7624 71.6377 85.5632 72.3369 84.364C72.9423 83.2663 73.7431 81.9656 74.54 80.5671L74.54 80.5672Z" fill="white" fill-opacity="0.3"/>
<path d="M11.54 85.7665C14.04 84.6649 16.4384 83.5673 18.8408 82.5673C20.2392 81.9657 20.7392 80.6689 19.7393 79.7665C17.7393 78.0673 15.7393 76.1649 12.9385 75.8681C12.8369 75.8681 12.6377 75.9696 12.2393 76.0673C13.3409 77.0673 14.3409 77.9657 15.5401 78.9657C13.0401 80.5673 10.6417 81.7665 7.93846 82.1649C7.14158 85.2665 8.14158 87.6688 10.3408 89.7665C10.6415 90.0673 11.3408 90.1649 11.7392 90.0673C12.0399 89.9657 12.2392 89.368 12.2392 88.9657C12.0399 87.868 11.7431 86.868 11.5399 85.7665H11.54Z" fill="white" fill-opacity="0.3"/>
<path d="M43.1421 89.2665C43.2436 88.1649 43.5405 87.5673 43.3413 87.1649C43.0405 86.2664 42.4428 85.4657 41.9429 84.6649C41.4429 83.8641 40.8413 83.0633 40.4429 82.2665C39.6421 80.3681 37.4429 78.9657 34.9429 79.0673C37.0406 82.8681 39.0406 86.5673 43.1421 89.2663L43.1421 89.2665Z" fill="white" fill-opacity="0.3"/>
</svg>
