<svg width="1280" height="681" viewBox="0 0 1280 681" fill="none" xmlns="http://www.w3.org/2000/svg">
<path d="M-433.243 210.157C-437.984 187.47 -420.907 164.481 -369.493 141.106C-182.844 56.2468 242.577 41.2201 593.17 28.8365L597.357 28.6886C900.012 17.9972 1193.35 29.3227 1393.47 78.8282C1551.11 117.825 1637.38 172.98 1638.64 233.394C1638.97 249.279 1633.43 265.527 1621.76 281.941C1610.09 298.355 1621.76 679.394 1621.76 679.394H-433.243V210.157Z" fill="#FF004D"/>
<mask id="mask0_1114_43435" style="mask-type:alpha" maskUnits="userSpaceOnUse" x="-434" y="25" width="2073" height="656">
<path d="M-433.243 211.157C-437.984 188.47 -420.907 165.481 -369.493 142.106C-182.844 57.2468 242.577 42.2201 593.17 29.8365L597.357 29.6886C900.012 18.9972 1193.35 30.3227 1393.47 79.8282C1551.11 118.825 1637.38 173.98 1638.64 234.394C1638.97 250.279 1633.43 266.527 1621.76 282.941C1610.09 299.355 1621.76 680.394 1621.76 680.394H-433.243V211.157Z" fill="#FF004D"/>
</mask>
<g mask="url(#mask0_1114_43435)">
<g style="mix-blend-mode:multiply" opacity="0.2">
<path d="M1655.22 30.483C1655.22 30.483 1920.52 233.821 1902.83 268.63C1885.13 303.44 1379.88 31.9302 1350.9 88.9452C1321.91 145.96 1929.63 347.907 1889.12 418.045C1848.6 488.183 1022.3 224.855 1000.93 266.876C979.572 308.897 1616.15 504.93 1599.06 538.541C1581.97 572.151 947.564 433.476 930.73 466.591C913.895 499.706 1214.75 610.302 1197.74 643.777C1180.72 677.252 931.004 571.07 919.265 594.16C907.527 617.249 1046.84 684.494 1039.05 699.807C1031.27 715.12 906.745 683.787 897.268 702.429C887.791 721.07 917.762 768.048 917.762 768.048" stroke="#0050BE" stroke-width="15" stroke-miterlimit="10"/>
</g>
<g style="mix-blend-mode:multiply" opacity="0.2">
<path d="M380.401 -139.232C380.401 -139.232 177.064 -404.536 142.254 -386.839C107.445 -369.143 378.954 136.108 321.939 165.093C264.924 194.079 62.977 -413.641 -7.16096 -373.127C-77.2989 -332.614 186.029 493.692 144.009 515.055C101.988 536.417 -94.0458 -100.157 -127.656 -83.0706C-161.267 -65.9837 -22.5917 568.424 -55.7067 585.259C-88.8217 602.094 -199.418 301.235 -232.893 318.254C-266.368 335.272 -160.186 584.985 -183.275 596.723C-206.365 608.462 -273.609 469.149 -288.923 476.934C-304.236 484.719 -272.903 609.244 -291.544 618.721C-310.186 628.198 -357.163 598.227 -357.163 598.227" stroke="#0050BE" stroke-width="15" stroke-miterlimit="10"/>
</g>
<path d="M368.26 481.075C367.302 474.882 362.082 470.265 356.625 470.756C315.227 474.787 275.158 481.633 235.088 488.071C219.197 490.47 203.492 493.561 187.749 496.437C189.458 495.367 191.168 494.298 192.886 493.248C209.956 481.967 227.425 471.875 245.223 462.664C262.88 452.896 280.962 444.373 299.284 436.413C303.717 434.393 306.044 428.672 304.489 422.961C302.792 416.737 297.233 412.843 292.075 414.266C213.42 434.82 137.784 470.723 65.4828 520.97L63.8107 522.239C58.8914 526.357 55.826 532.392 54.8241 538.922C30.1947 542.242 5.53505 545.089 -19.1418 547.459C-3.19267 539.984 12.1884 531.435 26.7522 521.533C44.5995 508.893 61.352 494.854 75.8886 478.267C78.8581 474.78 79.615 469.148 77.4294 464.404C74.7619 458.639 68.802 456.292 64.0417 458.997C46.7622 468.96 29.3033 479.361 11.5282 489.084C-6.17201 498.402 -24.2173 507.559 -42.6678 515.645C-61.1672 523.442 -80.0748 530.838 -99.3937 537.034C-118.726 542.954 -138.411 548.979 -158.472 554.009C-159.797 554.338 -161.029 554.976 -162.112 555.849C-184.365 556.327 -206.611 556.419 -228.837 556.119C-212.104 550.612 -195.829 543.619 -180.213 535.082C-161.088 524.845 -142.913 512.682 -126.668 497.382C-123.335 494.281 -121.968 488.784 -123.626 483.812C-125.654 477.742 -131.327 474.71 -136.348 477.044C-154.59 485.805 -173.1 493.152 -191.822 501.242C-210.432 509.312 -229.353 515.384 -248.579 521.755C-287.085 533.931 -326.861 541.348 -367.86 547.334C-369.237 547.545 -370.554 548.08 -371.742 548.871C-430.852 543.672 -489.783 535.653 -547.461 524.946C-547.485 524.941 -547.507 524.937 -547.531 524.933C-552.857 523.983 -557.962 527.508 -558.951 532.837C-559.945 538.189 -556.412 543.333 -551.059 544.327C-546.883 545.102 -542.711 545.862 -538.522 546.609C-518.925 550.106 -499.191 553.286 -479.367 556.165C-463.299 561.935 -447.834 568.816 -432.847 576.872C-413.65 586.96 -395.723 600.22 -376.906 613.561L-376.833 613.617C-374.528 615.248 -371.411 615.147 -369.087 613.111C-366.139 610.532 -365.582 605.822 -367.81 602.593C-378.054 587.977 -390.782 575.448 -404.799 565.48C-394.325 566.577 -383.84 567.59 -373.349 568.512C-372.348 569.402 -371.18 570.09 -369.867 570.497C-329.983 583.406 -290.324 595.257 -250.715 609.257C-230.888 616.439 -211.049 623.627 -191.084 630.859C-170.975 638.126 -150.613 646.114 -130.062 652.645C-125.647 654.086 -120.668 652.275 -118.052 647.82C-114.857 642.378 -116.312 635.079 -121.224 631.514C-139.844 618.111 -159.508 606.734 -179.493 596.728C-195.713 588.998 -212.169 581.933 -228.811 575.833C-206.447 576.131 -184.064 576.037 -161.673 575.557C-160.569 576.372 -159.312 576.962 -157.941 577.253C-137.324 581.413 -116.903 585.532 -96.5513 589.638C-76.1275 593.835 -55.7608 597.709 -35.2809 602.861C-14.8474 607.74 5.63597 612.326 26.3439 617.853C47.1669 623.246 68.1359 627.887 89.378 632.875C93.9397 633.933 98.7001 631.64 100.804 626.848C103.384 621.053 101.145 613.967 95.8821 611.012C75.8602 599.325 55.0685 590.125 34.166 582.736C17.1086 576.548 -0.100918 571.154 -17.3577 567.09C7.60179 564.695 32.5439 561.816 57.4551 558.458C60.4943 565.206 65.9011 570.62 72.8443 572.923C158.282 600.911 252.176 602.588 337.489 577.19C342.484 575.619 345.649 570.16 344.631 564.334C343.52 557.981 337.972 553.562 332.258 554.46C311.127 557.275 289.883 558.648 268.859 559.072C247.701 558.94 226.668 557.495 205.988 554.871C202.348 554.349 198.723 553.771 195.105 553.166C212.65 549.328 229.911 544.171 247.155 539.154C286.969 526.845 326.055 511.953 363.209 492.275C366.855 490.367 369.014 485.953 368.26 481.075V481.075Z" fill="#FFF200"/>
<path d="M1110.86 495C1090.91 495 1070.95 487.404 1055.76 472.212L1080.25 447.72C1097.13 464.6 1124.6 464.601 1141.48 447.72C1158.36 430.839 1158.36 403.371 1141.48 386.492L1165.97 362C1196.35 392.385 1196.35 441.825 1165.97 472.212C1150.78 487.404 1130.82 495 1110.86 495V495Z" fill="white"/>
<path d="M156.932 132.09C175.419 137.044 192.021 149.034 202.326 166.88L173.557 183.49C162.11 163.662 136.663 156.842 116.835 168.291C97.0073 179.74 90.1877 205.186 101.636 225.013L72.8679 241.623C52.2617 205.932 64.5342 160.13 100.226 139.522C118.071 129.219 138.444 127.136 156.932 132.09V132.09Z" fill="white"/>
</g>
<path d="M897.452 50.0538C895.559 54.1092 896.823 58.9226 900.255 60.7994C926.419 74.8573 952.913 86.7165 979.246 98.8183C989.627 103.709 1000.17 108.115 1010.66 112.664C1009.22 112.62 1007.78 112.575 1006.34 112.515C991.732 112.426 977.357 111.472 963.137 109.866C948.78 108.646 934.664 106.518 920.631 103.96C917.198 103.398 913.544 105.867 912.198 109.874C910.731 114.241 912.483 118.76 916.108 119.966C970.943 139.023 1030.09 147.775 1092.95 146.69L1094.45 146.601C1099 146.113 1103.22 143.75 1106.41 140.274C1122.34 148.09 1138.1 156.2 1153.68 164.599C1141.25 162.696 1128.73 161.657 1116.15 161.745C1100.54 162.154 1085.02 163.827 1069.81 167.892C1066.66 168.781 1063.97 171.822 1063.38 175.505C1062.68 179.985 1065.28 183.746 1069.18 184.033C1083.39 184.987 1097.88 185.753 1112.29 187.047C1126.5 188.552 1140.84 190.289 1155 192.823C1169.08 195.547 1183.23 198.672 1197.16 202.672C1210.98 206.841 1225.05 211.088 1238.96 216.074C1239.87 216.406 1240.86 216.516 1241.85 216.429C1255.24 224.988 1268.47 233.772 1281.54 242.781C1269.43 239.4 1256.99 237.082 1244.33 235.943C1228.92 234.417 1213.3 234.412 1197.58 237.036C1194.37 237.551 1191.38 240.269 1190.39 243.878C1189.18 248.285 1191.34 252.338 1195.25 252.949C1209.55 254.999 1223.45 257.995 1237.78 260.633C1252.02 263.24 1265.66 267.155 1279.6 271.015C1307.29 279.09 1333.83 290.495 1360.54 303.234C1361.44 303.656 1362.43 303.862 1363.45 303.864C1396.46 330.436 1428.24 358.609 1458.2 387.881C1458.22 387.893 1458.23 387.904 1458.24 387.916C1461.02 390.596 1465.45 390.532 1468.16 387.764C1470.87 384.983 1470.82 380.527 1468.04 377.811C1465.87 375.692 1463.7 373.583 1461.51 371.475C1451.27 361.614 1440.82 351.886 1430.21 342.301C1422.97 332.493 1416.52 322.265 1410.83 311.53C1403.45 297.917 1398.08 282.927 1392.22 267.534L1392.2 267.472C1391.48 265.588 1389.59 264.41 1387.4 264.694C1384.63 265.053 1382.43 267.626 1382.46 270.427C1382.73 283.17 1385.31 295.661 1389.66 307.145C1383.89 302.332 1378.07 297.565 1372.21 292.849C1371.97 291.924 1371.55 291.051 1370.93 290.288C1352.4 266.781 1333.58 243.992 1315.64 219.946C1306.73 207.807 1297.81 195.659 1288.84 183.435C1279.8 171.133 1270.89 158.304 1261.29 146.263C1259.24 143.653 1255.57 142.749 1252.25 144.353C1248.19 146.313 1246.15 151.222 1247.65 155.289C1253.37 170.639 1260.52 185.203 1268.4 199.081C1274.95 210.112 1281.91 220.842 1289.36 231.074C1276.21 222.011 1262.89 213.173 1249.42 204.561C1249.08 203.639 1248.57 202.789 1247.88 202.072C1237.3 191.412 1226.82 180.854 1216.37 170.331C1205.92 159.725 1195.38 149.334 1185.27 138.14C1175.09 127.126 1164.76 116.266 1154.67 104.759C1144.46 93.2846 1133.86 82.1993 1123.24 70.7998C1120.95 68.3594 1117.21 67.8283 1114.06 69.835C1110.23 72.2487 1108.74 77.3421 1110.69 81.1872C1117.93 96.0768 1126.61 109.797 1136.07 122.486C1143.73 132.935 1151.8 142.974 1160.43 152.242C1144.66 143.746 1128.72 135.543 1112.61 127.637C1113.49 122.426 1112.43 117.065 1109.22 112.94C1069.65 62.386 1014.61 24.0824 953.9 5.25325C950.312 4.20083 946.265 6.18207 944.554 10.0437C942.689 14.2544 944.225 19.0803 947.972 20.8183C961.627 27.5442 974.778 35.1707 987.42 43.2727C999.922 51.7583 1011.83 60.9729 1023.05 70.7466C1025.01 72.5026 1026.93 74.2864 1028.83 76.0828C1016.9 71.3886 1004.61 67.5899 992.383 63.7148C963.87 55.1978 934.763 48.5032 904.899 45.4157C901.978 45.0989 898.943 46.8603 897.452 50.0538V50.0538Z" fill="#FFF200"/>
</svg>
