<svg width="488" height="784" viewBox="0 0 488 784" fill="none" xmlns="http://www.w3.org/2000/svg">
<g style="mix-blend-mode:multiply" opacity="0.5">
<path d="M368.808 699.849C368.808 699.849 135.751 796.24 119.674 771.61C103.598 746.98 471.781 519.864 445.449 479.522C419.117 439.18 57.7339 759.248 27.1742 706.455C-3.38539 653.662 480.624 214.235 461.217 184.502C441.81 154.77 73.4015 495.868 57.8788 472.086C42.3561 448.304 372.45 87.0358 357.156 63.6046C341.863 40.1733 156.013 194.631 140.553 170.945C125.093 147.259 288.753 24.4719 278.09 8.13412" stroke="#DCE2E8" stroke-width="15" stroke-miterlimit="10" stroke-linecap="round"/>
</g>
<path d="M357.018 479.839C360.769 486.335 369.076 488.561 375.573 484.81C382.069 481.06 384.295 472.753 380.544 466.256C376.794 459.759 368.486 457.534 361.99 461.284C355.493 465.035 353.267 473.342 357.018 479.839Z" fill="#FF0047"/>
<path d="M302.687 385.734C306.438 392.231 314.745 394.457 321.242 390.706C327.738 386.955 329.964 378.648 326.213 372.152C322.462 365.655 314.155 363.429 307.659 367.18C301.162 370.931 298.936 379.238 302.687 385.734Z" fill="#FF0047"/>
<path d="M411.35 573.944C415.1 580.44 423.408 582.666 429.904 578.915C436.401 575.165 438.627 566.857 434.876 560.361C431.125 553.864 422.818 551.638 416.321 555.389C409.825 559.14 407.599 567.447 411.35 573.944Z" fill="#FF0047"/>
<path d="M376.354 407.679C380.104 414.175 388.412 416.401 394.908 412.651C401.405 408.9 403.631 400.593 399.88 394.096C396.129 387.599 387.822 385.374 381.325 389.124C374.829 392.875 372.603 401.182 376.354 407.679Z" fill="#FF0047"/>
<path d="M284.858 460.504C288.609 467 296.916 469.226 303.413 465.475C309.909 461.725 312.135 453.417 308.384 446.921C304.633 440.424 296.326 438.198 289.83 441.949C283.333 445.7 281.107 454.007 284.858 460.504Z" fill="#FF0047"/>
<path d="M337.683 551.999C341.434 558.496 349.741 560.722 356.238 556.971C362.734 553.22 364.96 544.913 361.209 538.417C357.459 531.92 349.151 529.694 342.655 533.445C336.158 537.196 333.932 545.503 337.683 551.999Z" fill="#FF0047"/>
<path d="M429.178 499.175C432.929 505.671 441.236 507.897 447.733 504.146C454.229 500.395 456.455 492.088 452.705 485.592C448.954 479.095 440.647 476.869 434.15 480.62C427.653 484.371 425.428 492.678 429.178 499.175Z" fill="#FF0047"/>
<path d="M107.018 329.839C110.769 336.335 119.076 338.561 125.573 334.811C132.069 331.06 134.295 322.753 130.544 316.256C126.794 309.759 118.486 307.534 111.99 311.284C105.493 315.035 103.267 323.342 107.018 329.839Z" fill="#FF0047"/>
<path d="M52.6871 235.734C56.4379 242.231 64.7451 244.457 71.2416 240.706C77.7382 236.955 79.9641 228.648 76.2133 222.152C72.4625 215.655 64.1554 213.429 57.6588 217.18C51.1622 220.931 48.9363 229.238 52.6871 235.734Z" fill="#FF0047"/>
<path d="M161.35 423.944C165.1 430.44 173.408 432.666 179.904 428.915C186.401 425.165 188.627 416.858 184.876 410.361C181.125 403.864 172.818 401.639 166.321 405.389C159.825 409.14 157.599 417.447 161.35 423.944Z" fill="#FF0047"/>
<path d="M126.354 257.679C130.104 264.175 138.412 266.401 144.908 262.651C151.405 258.9 153.631 250.593 149.88 244.096C146.129 237.599 137.822 235.374 131.325 239.124C124.829 242.875 122.603 251.182 126.354 257.679Z" fill="#FF0047"/>
<path d="M34.8583 310.504C38.6091 317 46.9162 319.226 53.4128 315.475C59.9094 311.725 62.1352 303.417 58.3844 296.921C54.6336 290.424 46.3265 288.198 39.8299 291.949C33.3334 295.7 31.1075 304.007 34.8583 310.504Z" fill="#FF0047"/>
<path d="M87.6832 401.999C91.434 408.496 99.7412 410.722 106.238 406.971C112.734 403.22 114.96 394.913 111.209 388.417C107.459 381.92 99.1515 379.694 92.6549 383.445C86.1583 387.196 83.9324 395.503 87.6832 401.999Z" fill="#FF0047"/>
<path d="M179.179 349.175C182.929 355.671 191.237 357.897 197.733 354.146C204.23 350.395 206.456 342.088 202.705 335.592C198.954 329.095 190.647 326.869 184.15 330.62C177.654 334.371 175.428 342.678 179.179 349.175Z" fill="#FF0047"/>
</svg>
