<svg width="694" height="401" viewBox="0 0 694 401" fill="none" xmlns="http://www.w3.org/2000/svg">
<path opacity="0.7" d="M693.51 273.814C676.911 189.801 603.394 133.561 529.304 148.199C520.243 149.989 511.596 152.763 503.422 156.395C478.014 87.741 412.648 44.801 346.826 57.8052C303.532 66.3588 269.63 97.2271 252.233 138.17C220.573 106.919 177.48 91.2624 134.185 99.816C60.095 114.454 13.4888 194.426 30.087 278.439C39.9184 328.202 69.7211 368.217 107.783 389.534L693.51 273.814Z" fill="#94FF00"/>
<path d="M215.935 324.693C268.881 365.654 347.06 370.566 404.717 336.555C425.19 324.478 443.182 307.86 455.52 287.543C477.759 250.922 479.39 201.834 456.85 165.398C434.31 128.961 387.46 108.367 346.049 119.36C329.319 123.801 313.868 132.96 301.942 145.505C285.92 162.361 276.418 185.893 278.727 209.034C281.036 232.175 296.034 254.206 317.682 262.706C339.329 271.206 366.664 264.331 379.988 245.269C393.311 226.208 389.344 196.522 370.259 183.232" stroke="white" stroke-width="15" stroke-miterlimit="10" stroke-linecap="round"/>
</svg>
