<svg width="684" height="521" viewBox="0 0 684 521" fill="none" xmlns="http://www.w3.org/2000/svg">
<path d="M683.832 251.449C684.571 222.774 683.179 191.023 673.325 164.256C660.078 128.273 632.8 96.4219 596.797 83.2181C543.255 63.5814 491.095 93.0605 438.007 87.2501C381.509 81.0665 326.263 56.3079 273.248 37.3035C214.461 16.2305 153.233 -2.65528 90.8546 0.335615C28.4761 3.32651 -35.9448 32.0991 -66.4482 86.5868C-80.3737 111.462 -86.4864 141.662 -78.3471 168.982C-68.5714 201.795 -40.2141 225.764 -10.3392 242.494C19.5356 259.225 52.2818 270.79 80.7289 289.846C90.7234 296.542 100.435 304.508 105.628 315.358C124.528 354.849 59.6664 369.131 46.8184 398.853C38.4733 418.159 42.7431 455.725 116.834 486.189C211.062 524.934 371.717 525.191 441.007 517.593C621.763 497.772 681.147 355.594 683.832 251.449Z" fill="#FF004D"/>
</svg>
