<svg width="181" height="67" viewBox="0 0 181 67" fill="none" xmlns="http://www.w3.org/2000/svg">
<rect width="59.1397" height="46.1841" rx="8.52381" fill="black"/>
<path d="M15.778 33.092L23.8631 17.0889V16.959H14.4785V14.0814H27.4277V17.0239L19.3518 33.092H15.778ZM35.4923 30.0474V17.2003H38.407V30.0474H35.4923ZM30.5261 25.0812V22.1665H43.3732V25.0812H30.5261Z" fill="white"/>
<path d="M13.1976 64.2984H11.1998L14.8372 53.9665H17.1477L20.7901 64.2984H18.7924L16.0328 56.0854H15.9521L13.1976 64.2984ZM13.2632 60.2474H18.7116V61.7507H13.2632V60.2474ZM28.2744 57.2659C28.1904 56.9934 28.0743 56.7496 27.9263 56.5343C27.7817 56.3157 27.6068 56.1291 27.4017 55.9744C27.1999 55.8197 26.9678 55.7036 26.7055 55.6263C26.4431 55.5456 26.1573 55.5052 25.8479 55.5052C25.2929 55.5052 24.7985 55.6448 24.3647 55.9239C23.9308 56.2031 23.5894 56.6134 23.3406 57.1549C23.095 57.693 22.9723 58.3488 22.9723 59.1224C22.9723 59.9026 23.095 60.5635 23.3406 61.105C23.5861 61.6465 23.9274 62.0585 24.3647 62.341C24.8019 62.6201 25.3097 62.7597 25.8882 62.7597C26.4129 62.7597 26.8669 62.6588 27.2503 62.457C27.6371 62.2552 27.9347 61.9694 28.1433 61.5994C28.3518 61.2261 28.456 60.7889 28.456 60.2877L28.8798 60.3533H26.0749V58.8903H30.2672V60.1313C30.2672 61.0159 30.0788 61.781 29.7021 62.4268C29.3254 63.0725 28.8075 63.5703 28.1483 63.92C27.4891 64.2665 26.7324 64.4397 25.8781 64.4397C24.9263 64.4397 24.0906 64.2261 23.3708 63.799C22.6544 63.3685 22.0945 62.758 21.6909 61.9677C21.2907 61.1739 21.0905 60.2322 21.0905 59.1425C21.0905 58.3085 21.2083 57.5635 21.4437 56.9077C21.6825 56.2518 22.0154 55.6952 22.4426 55.2378C22.8697 54.7771 23.3708 54.4273 23.9459 54.1885C24.5211 53.9463 25.1466 53.8253 25.8226 53.8253C26.3944 53.8253 26.9275 53.9093 27.4218 54.0775C27.9162 54.2423 28.3552 54.4777 28.7386 54.7838C29.1253 55.0898 29.4432 55.4531 29.692 55.8735C29.9409 56.2939 30.104 56.758 30.1814 57.2659H28.2744ZM31.7645 64.2984V53.9665H38.4842V55.5355H33.6361V58.3404H38.1361V59.9094H33.6361V62.7294H38.5246V64.2984H31.7645ZM45.6961 56.8068C45.649 56.3662 45.4506 56.0231 45.1008 55.7776C44.7544 55.5321 44.3037 55.4093 43.7488 55.4093C43.3587 55.4093 43.024 55.4682 42.7449 55.5859C42.4657 55.7036 42.2521 55.8634 42.1042 56.0652C41.9562 56.267 41.8805 56.4974 41.8771 56.7563C41.8771 56.9716 41.9259 57.1582 42.0234 57.3163C42.1243 57.4744 42.2606 57.6089 42.4321 57.7199C42.6036 57.8275 42.7936 57.9183 43.0021 57.9923C43.2107 58.0663 43.4209 58.1285 43.6328 58.179L44.6014 58.4211C44.9915 58.5119 45.3665 58.6347 45.7264 58.7894C46.0896 58.9441 46.4142 59.1392 46.7 59.3746C46.9893 59.61 47.218 59.8942 47.3861 60.2272C47.5543 60.5602 47.6384 60.9503 47.6384 61.3976C47.6384 62.003 47.4837 62.5361 47.1743 62.9968C46.8648 63.4542 46.4175 63.8124 45.8323 64.0714C45.2505 64.327 44.5459 64.4548 43.7185 64.4548C42.9147 64.4548 42.2168 64.3304 41.6249 64.0815C41.0363 63.8326 40.5756 63.4694 40.2426 62.9918C39.913 62.5142 39.7348 61.9324 39.7079 61.2463H41.5492C41.5761 61.6061 41.6871 61.9055 41.8822 62.1442C42.0773 62.383 42.3312 62.5613 42.644 62.679C42.9601 62.7967 43.3132 62.8556 43.7034 62.8556C44.1103 62.8556 44.4668 62.795 44.7729 62.674C45.0823 62.5495 45.3245 62.378 45.4994 62.1594C45.6742 61.9374 45.7634 61.6784 45.7667 61.3825C45.7634 61.1134 45.6843 60.8914 45.5296 60.7165C45.3749 60.5383 45.158 60.3903 44.8788 60.2726C44.6031 60.1515 44.2802 60.0439 43.9102 59.9497L42.7348 59.647C41.8839 59.4284 41.2112 59.0971 40.7168 58.6532C40.2258 58.2059 39.9803 57.6123 39.9803 56.8724C39.9803 56.2636 40.1451 55.7305 40.4747 55.2731C40.8076 54.8157 41.26 54.4609 41.8317 54.2087C42.4035 53.9531 43.0509 53.8253 43.774 53.8253C44.5072 53.8253 45.1496 53.9531 45.7012 54.2087C46.2561 54.4609 46.6916 54.8124 47.0078 55.263C47.3239 55.7104 47.487 56.2249 47.4971 56.8068H45.6961Z" fill="black"/>
<rect x="61.981" width="55.1397" height="46.1841" rx="8.52381" fill="black"/>
<path d="M84.7097 14.0814V33.092H81.2659V17.4324H81.1545L76.7081 20.2728V17.1168L81.433 14.0814H84.7097ZM95.5707 33.352C94.3331 33.352 93.2253 33.1199 92.2476 32.6558C91.2698 32.1854 90.4932 31.5419 89.9177 30.725C89.3483 29.9081 89.0451 28.9737 89.008 27.9217H92.3497C92.4116 28.7014 92.7488 29.3388 93.3615 29.8339C93.9741 30.3227 94.7106 30.5672 95.5707 30.5672C96.2453 30.5672 96.8455 30.4125 97.3716 30.1031C97.8976 29.7936 98.3122 29.3635 98.6154 28.8128C98.9187 28.262 99.0672 27.6339 99.061 26.9284C99.0672 26.2106 98.9156 25.5732 98.6061 25.0162C98.2967 24.4593 97.8728 24.023 97.3344 23.7074C96.796 23.3856 96.1772 23.2247 95.4779 23.2247C94.9086 23.2185 94.3485 23.3237 93.7978 23.5403C93.247 23.7569 92.8107 24.0415 92.4889 24.3943L89.3793 23.8837L90.3725 14.0814H101.4V16.959H93.2223L92.6746 21.9994H92.786C93.1387 21.5848 93.6369 21.2413 94.2805 20.969C94.9241 20.6905 95.6295 20.5513 96.3969 20.5513C97.5479 20.5513 98.5752 20.8236 99.4787 21.3682C100.382 21.9066 101.094 22.6492 101.614 23.596C102.134 24.5428 102.393 25.6258 102.393 26.8449C102.393 28.1011 102.103 29.2212 101.521 30.2052C100.945 31.1829 100.144 31.9534 99.1167 32.5165C98.0956 33.0735 96.9136 33.352 95.5707 33.352Z" fill="white"/>
<path d="M72.7743 53.9665H75.0647L78.132 61.4531H78.2531L81.3203 53.9665H83.6107V64.2984H81.8147V57.2003H81.7189L78.8635 64.2681H77.5216L74.6662 57.1851H74.5703V64.2984H72.7743V53.9665ZM87.2079 53.9665V64.2984H85.3363V53.9665H87.2079ZM97.4127 53.9665V64.2984H95.7479L90.8796 57.2608H90.7938V64.2984H88.9222V53.9665H90.5971L95.4603 61.0091H95.5511V53.9665H97.4127ZM104.754 56.8068C104.707 56.3662 104.509 56.0231 104.159 55.7776C103.813 55.5321 103.362 55.4093 102.807 55.4093C102.417 55.4093 102.082 55.4682 101.803 55.5859C101.524 55.7036 101.311 55.8634 101.163 56.0652C101.015 56.267 100.939 56.4974 100.936 56.7563C100.936 56.9716 100.984 57.1582 101.082 57.3163C101.183 57.4744 101.319 57.6089 101.49 57.7199C101.662 57.8275 101.852 57.9183 102.061 57.9923C102.269 58.0663 102.479 58.1285 102.691 58.179L103.66 58.4211C104.05 58.5119 104.425 58.6347 104.785 58.7894C105.148 58.9441 105.473 59.1392 105.758 59.3746C106.048 59.61 106.276 59.8942 106.445 60.2272C106.613 60.5602 106.697 60.9503 106.697 61.3976C106.697 62.003 106.542 62.5361 106.233 62.9968C105.923 63.4542 105.476 63.8124 104.891 64.0714C104.309 64.327 103.604 64.4548 102.777 64.4548C101.973 64.4548 101.275 64.3304 100.683 64.0815C100.095 63.8326 99.6339 63.4694 99.301 62.9918C98.9714 62.5142 98.7931 61.9324 98.7662 61.2463H100.608C100.635 61.6061 100.745 61.9055 100.941 62.1442C101.136 62.383 101.39 62.5613 101.702 62.679C102.018 62.7967 102.372 62.8556 102.762 62.8556C103.169 62.8556 103.525 62.795 103.831 62.674C104.141 62.5495 104.383 62.378 104.558 62.1594C104.733 61.9374 104.822 61.6784 104.825 61.3825C104.822 61.1134 104.743 60.8914 104.588 60.7165C104.433 60.5383 104.216 60.3903 103.937 60.2726C103.661 60.1515 103.339 60.0439 102.969 59.9497L101.793 59.647C100.942 59.4284 100.27 59.0971 99.7752 58.6532C99.2842 58.2059 99.0387 57.6123 99.0387 56.8724C99.0387 56.2636 99.2035 55.7305 99.533 55.2731C99.866 54.8157 100.318 54.4609 100.89 54.2087C101.462 53.9531 102.109 53.8253 102.832 53.8253C103.566 53.8253 104.208 53.9531 104.76 54.2087C105.314 54.4609 105.75 54.8124 106.066 55.263C106.382 55.7104 106.545 56.2249 106.556 56.8068H104.754Z" fill="black"/>
<rect x="119.962" width="60.1397" height="46.1841" rx="8.52381" fill="black"/>
<path d="M135.097 33.092V30.6043L141.697 24.1344C142.328 23.497 142.854 22.9307 143.275 22.4357C143.696 21.9406 144.011 21.461 144.222 20.9969C144.432 20.5327 144.537 20.0377 144.537 19.5117C144.537 18.9114 144.401 18.3978 144.129 17.9708C143.857 17.5376 143.482 17.2034 143.006 16.9682C142.529 16.7331 141.988 16.6155 141.381 16.6155C140.756 16.6155 140.209 16.7455 139.738 17.0054C139.268 17.2591 138.903 17.6211 138.643 18.0914C138.389 18.5617 138.262 19.1218 138.262 19.7716H134.986C134.986 18.5648 135.261 17.5159 135.812 16.6248C136.363 15.7337 137.121 15.0437 138.086 14.5548C139.058 14.0659 140.172 13.8215 141.428 13.8215C142.703 13.8215 143.823 14.0597 144.788 14.5362C145.753 15.0127 146.502 15.6656 147.034 16.4948C147.573 17.3241 147.842 18.2709 147.842 19.3353C147.842 20.047 147.706 20.7462 147.434 21.4331C147.161 22.1201 146.682 22.8812 145.995 23.7167C145.314 24.5521 144.358 25.5639 143.126 26.7521L139.85 30.0845V30.2144H148.13V33.092H135.097ZM156.401 30.0474V17.2003H159.316V30.0474H156.401ZM151.435 25.0812V22.1665H164.282V25.0812H151.435Z" fill="white"/>
<path d="M136.865 57.4525H134.979C134.925 57.1431 134.826 56.869 134.681 56.6302C134.536 56.388 134.356 56.1829 134.141 56.0147C133.926 55.8466 133.68 55.7204 133.405 55.6364C133.132 55.5489 132.838 55.5052 132.522 55.5052C131.96 55.5052 131.462 55.6465 131.028 55.929C130.595 56.2081 130.255 56.6184 130.009 57.1599C129.764 57.698 129.641 58.3555 129.641 59.1325C129.641 59.9228 129.764 60.5887 130.009 61.1302C130.258 61.6683 130.598 62.0753 131.028 62.3511C131.462 62.6235 131.958 62.7597 132.517 62.7597C132.826 62.7597 133.115 62.7194 133.384 62.6386C133.657 62.5546 133.901 62.4318 134.116 62.2704C134.335 62.1089 134.518 61.9105 134.666 61.6751C134.817 61.4396 134.921 61.1706 134.979 60.8679L136.865 60.878C136.795 61.369 136.642 61.8298 136.406 62.2603C136.174 62.6908 135.87 63.0708 135.493 63.4004C135.117 63.7266 134.676 63.9823 134.171 64.1672C133.667 64.3488 133.107 64.4397 132.492 64.4397C131.583 64.4397 130.773 64.2295 130.06 63.809C129.347 63.3886 128.785 62.7816 128.375 61.9879C127.965 61.1941 127.759 60.2423 127.759 59.1325C127.759 58.0192 127.966 57.0674 128.38 56.2771C128.794 55.4833 129.357 54.8763 130.07 54.4559C130.783 54.0355 131.59 53.8253 132.492 53.8253C133.067 53.8253 133.601 53.906 134.096 54.0674C134.59 54.2288 135.031 54.466 135.418 54.7787C135.804 55.0882 136.122 55.4682 136.371 55.9189C136.623 56.3662 136.788 56.8774 136.865 57.4525ZM138.267 64.2984V53.9665H140.139V58.3404H144.926V53.9665H146.803V64.2984H144.926V59.9094H140.139V64.2984H138.267ZM148.526 64.2984V53.9665H155.246V55.5355H150.397V58.3404H154.898V59.9094H150.397V62.7294H155.286V64.2984H148.526ZM156.843 64.2984V53.9665H163.461V55.5355H158.714V58.3404H163.007V59.9094H158.714V64.2984H156.843ZM170.469 56.8068C170.422 56.3662 170.223 56.0231 169.874 55.7776C169.527 55.5321 169.077 55.4093 168.522 55.4093C168.132 55.4093 167.797 55.4682 167.518 55.5859C167.239 55.7036 167.025 55.8634 166.877 56.0652C166.729 56.267 166.653 56.4974 166.65 56.7563C166.65 56.9716 166.699 57.1582 166.796 57.3163C166.897 57.4744 167.033 57.6089 167.205 57.7199C167.376 57.8275 167.567 57.9183 167.775 57.9923C167.984 58.0663 168.194 58.1285 168.406 58.179L169.374 58.4211C169.764 58.5119 170.139 58.6347 170.499 58.7894C170.862 58.9441 171.187 59.1392 171.473 59.3746C171.762 59.61 171.991 59.8942 172.159 60.2272C172.327 60.5602 172.411 60.9503 172.411 61.3976C172.411 62.003 172.257 62.5361 171.947 62.9968C171.638 63.4542 171.19 63.8124 170.605 64.0714C170.023 64.327 169.319 64.4548 168.491 64.4548C167.688 64.4548 166.99 64.3304 166.398 64.0815C165.809 63.8326 165.348 63.4694 165.015 62.9918C164.686 62.5142 164.508 61.9324 164.481 61.2463H166.322C166.349 61.6061 166.46 61.9055 166.655 62.1442C166.85 62.383 167.104 62.5613 167.417 62.679C167.733 62.7967 168.086 62.8556 168.476 62.8556C168.883 62.8556 169.24 62.795 169.546 62.674C169.855 62.5495 170.097 62.378 170.272 62.1594C170.447 61.9374 170.536 61.6784 170.54 61.3825C170.536 61.1134 170.457 60.8914 170.303 60.7165C170.148 60.5383 169.931 60.3903 169.652 60.2726C169.376 60.1515 169.053 60.0439 168.683 59.9497L167.508 59.647C166.657 59.4284 165.984 59.0971 165.49 58.6532C164.999 58.2059 164.753 57.6123 164.753 56.8724C164.753 56.2636 164.918 55.7305 165.248 55.2731C165.581 54.8157 166.033 54.4609 166.605 54.2087C167.176 53.9531 167.824 53.8253 168.547 53.8253C169.28 53.8253 169.922 53.9531 170.474 54.2087C171.029 54.4609 171.465 54.8124 171.781 55.263C172.097 55.7104 172.26 56.2249 172.27 56.8068H170.469Z" fill="black"/>
</svg>
