<svg width="191" height="64" viewBox="0 0 191 64" fill="none" xmlns="http://www.w3.org/2000/svg">
<rect x="1" width="54.9901" height="46.5763" rx="6.00985" fill="#6D2100"/>
<path d="M0.658275 61.0837V59.9758L3.24705 57.5788C3.46722 57.3657 3.65188 57.1739 3.80103 57.0035C3.95255 56.833 4.06737 56.6661 4.14549 56.5028C4.22362 56.3371 4.26268 56.1583 4.26268 55.9666C4.26268 55.7535 4.21415 55.57 4.11708 55.4161C4.02002 55.2599 3.88744 55.1403 3.71936 55.0575C3.55127 54.9722 3.36069 54.9296 3.14762 54.9296C2.92508 54.9296 2.73096 54.9746 2.56524 55.0646C2.39952 55.1545 2.27167 55.2836 2.18171 55.4516C2.09175 55.6197 2.04677 55.8198 2.04677 56.0518H0.587253C0.587253 55.5759 0.69497 55.1628 0.910406 54.8124C1.12584 54.4621 1.42769 54.191 1.81595 53.9992C2.2042 53.8075 2.65165 53.7116 3.15828 53.7116C3.67911 53.7116 4.13247 53.8039 4.51836 53.9886C4.90662 54.1709 5.20846 54.4242 5.4239 54.7485C5.63934 55.0728 5.74705 55.4445 5.74705 55.8636C5.74705 56.1382 5.6926 56.4093 5.5837 56.6768C5.47717 56.9443 5.28659 57.2414 5.01197 57.5681C4.73735 57.8925 4.35027 58.2819 3.85075 58.7364L2.78896 59.7769V59.8266H5.84293V61.0837H0.658275ZM10.3697 56.8472V58.0475H7.05298V56.8472H10.3697ZM14.4358 61.1832C14.0617 61.1808 13.7007 61.1181 13.3527 60.995C13.0071 60.8719 12.6969 60.6718 12.4223 60.3948C12.1477 60.1178 11.9299 59.7509 11.7689 59.294C11.6103 58.8371 11.531 58.276 11.531 57.6107C11.5333 56.9999 11.6032 56.4542 11.7405 55.9737C11.8802 55.4907 12.079 55.0811 12.3371 54.745C12.5975 54.4088 12.9088 54.1531 13.271 53.9779C13.6332 53.8004 14.0393 53.7116 14.4891 53.7116C14.9744 53.7116 15.4029 53.8063 15.7746 53.9957C16.1463 54.1827 16.4446 54.4372 16.6695 54.7592C16.8967 55.0811 17.034 55.4422 17.0814 55.8423H15.5651C15.5059 55.5889 15.3816 55.3901 15.1922 55.2457C15.0028 55.1013 14.7684 55.0291 14.4891 55.0291C14.0156 55.0291 13.6557 55.235 13.4095 55.647C13.1657 56.0589 13.0414 56.6188 13.0366 57.3266H13.0864C13.1953 57.1112 13.342 56.9277 13.5267 56.7762C13.7137 56.6223 13.9256 56.5051 14.1624 56.4246C14.4015 56.3418 14.6536 56.3004 14.9188 56.3004C15.3496 56.3004 15.7331 56.4022 16.0693 56.6058C16.4055 56.807 16.6706 57.084 16.8648 57.4367C17.0589 57.7895 17.156 58.1931 17.156 58.6477C17.156 59.1401 17.0411 59.5781 16.8115 59.9616C16.5842 60.3451 16.2658 60.6458 15.8563 60.8636C15.4491 61.079 14.9756 61.1855 14.4358 61.1832ZM14.4287 59.9758C14.6654 59.9758 14.8773 59.919 15.0643 59.8053C15.2514 59.6917 15.3982 59.5378 15.5047 59.3437C15.6112 59.1496 15.6645 58.9318 15.6645 58.6903C15.6645 58.4488 15.6112 58.2322 15.5047 58.0404C15.4005 57.8487 15.2561 57.696 15.0715 57.5823C14.8868 57.4687 14.6761 57.4119 14.4393 57.4119C14.2618 57.4119 14.0973 57.445 13.9457 57.5113C13.7966 57.5776 13.6652 57.6699 13.5516 57.7883C13.4403 57.9067 13.3527 58.044 13.2888 58.2002C13.2249 58.3541 13.1929 58.5186 13.1929 58.6938C13.1929 58.9282 13.2462 59.1425 13.3527 59.3366C13.4616 59.5307 13.6084 59.6858 13.793 59.8018C13.9801 59.9178 14.192 59.9758 14.4287 59.9758ZM20.6032 61.0837V53.811H23.4726C24.0242 53.811 24.4941 53.9164 24.8824 54.1271C25.2706 54.3354 25.5665 54.6254 25.7701 54.9971C25.9761 55.3664 26.0791 55.7925 26.0791 56.2755C26.0791 56.7585 25.9749 57.1846 25.7666 57.5539C25.5583 57.9232 25.2564 58.2109 24.861 58.4168C24.4681 58.6228 23.9922 58.7258 23.4335 58.7258H21.6047V57.4935H23.1849C23.4808 57.4935 23.7247 57.4426 23.9164 57.3408C24.1106 57.2367 24.255 57.0934 24.3497 56.9112C24.4467 56.7265 24.4953 56.5146 24.4953 56.2755C24.4953 56.034 24.4467 55.8233 24.3497 55.6434C24.255 55.4611 24.1106 55.3202 23.9164 55.2208C23.7223 55.119 23.4761 55.0681 23.1778 55.0681H22.1409V61.0837H20.6032ZM28.5622 53.811V61.0837H27.0494V53.811H28.5622ZM31.3294 61.1867C30.9814 61.1867 30.6713 61.1264 30.399 61.0056C30.1268 60.8825 29.9114 60.7014 29.7527 60.4623C29.5965 60.2208 29.5184 59.9202 29.5184 59.5603C29.5184 59.2573 29.574 59.0028 29.6853 58.7968C29.7965 58.5908 29.948 58.4251 30.1398 58.2996C30.3316 58.1742 30.5494 58.0795 30.7932 58.0156C31.0394 57.9516 31.2975 57.9067 31.5674 57.8806C31.8846 57.8475 32.1403 57.8167 32.3344 57.7883C32.5285 57.7575 32.6694 57.7125 32.757 57.6533C32.8446 57.5942 32.8884 57.5066 32.8884 57.3906V57.3693C32.8884 57.1443 32.8174 56.9703 32.6753 56.8472C32.5356 56.7241 32.3368 56.6626 32.0787 56.6626C31.8065 56.6626 31.5899 56.7229 31.4289 56.8437C31.2679 56.9621 31.1614 57.1112 31.1093 57.2911L29.7101 57.1775C29.7811 56.8461 29.9208 56.5596 30.1292 56.3181C30.3375 56.0743 30.6062 55.8872 30.9353 55.757C31.2667 55.6245 31.6502 55.5582 32.0858 55.5582C32.3889 55.5582 32.6789 55.5937 32.9559 55.6647C33.2352 55.7357 33.4826 55.8458 33.698 55.995C33.9159 56.1441 34.0875 56.3359 34.213 56.5702C34.3384 56.8023 34.4012 57.0804 34.4012 57.4048V61.0837H32.9665V60.3273H32.9239C32.8363 60.4978 32.7191 60.6481 32.5723 60.7783C32.4256 60.9062 32.2492 61.0068 32.0432 61.0802C31.8373 61.1512 31.5993 61.1867 31.3294 61.1867ZM31.7627 60.1427C31.9852 60.1427 32.1817 60.0989 32.3522 60.0113C32.5226 59.9213 32.6564 59.8006 32.7534 59.6491C32.8505 59.4976 32.899 59.3259 32.899 59.1342V58.5553C32.8517 58.5861 32.7866 58.6145 32.7037 58.6406C32.6232 58.6642 32.5321 58.6867 32.4303 58.708C32.3285 58.727 32.2267 58.7447 32.1249 58.7613C32.0231 58.7755 31.9308 58.7885 31.8479 58.8004C31.6703 58.8264 31.5153 58.8678 31.3827 58.9246C31.2501 58.9815 31.1471 59.0584 31.0738 59.1555C31.0004 59.2502 30.9637 59.3685 30.9637 59.5106C30.9637 59.7166 31.0382 59.874 31.1874 59.9829C31.3389 60.0894 31.5307 60.1427 31.7627 60.1427ZM36.3135 63.1292C36.1217 63.1292 35.9418 63.1138 35.7737 63.083C35.608 63.0546 35.4707 63.0179 35.3618 62.9729L35.7027 61.8437C35.8802 61.8981 36.04 61.9277 36.1821 61.9325C36.3265 61.9372 36.4508 61.9041 36.5549 61.833C36.6615 61.762 36.7479 61.6413 36.8142 61.4708L36.9029 61.24L34.9463 55.6292H36.5372L37.6664 59.6349H37.7233L38.8632 55.6292H40.4647L38.3447 61.6732C38.2429 61.9668 38.1044 62.2225 37.9292 62.4403C37.7564 62.6604 37.5374 62.8297 37.2723 62.9481C37.0071 63.0688 36.6875 63.1292 36.3135 63.1292ZM43.5489 61.1903C42.9878 61.1903 42.5049 61.0766 42.1 60.8494C41.6976 60.6197 41.3874 60.2954 41.1696 59.8764C40.9518 59.455 40.8429 58.9566 40.8429 58.3813C40.8429 57.8202 40.9518 57.3278 41.1696 56.9041C41.3874 56.4803 41.694 56.15 42.0894 55.9133C42.4871 55.6765 42.9535 55.5582 43.4885 55.5582C43.8484 55.5582 44.1834 55.6162 44.4935 55.7322C44.806 55.8458 45.0783 56.0175 45.3103 56.2471C45.5446 56.4767 45.7269 56.7656 45.8571 57.1136C45.9873 57.4592 46.0525 57.864 46.0525 58.3281V58.7435H41.4466V57.806H44.6284C44.6284 57.5882 44.5811 57.3953 44.4864 57.2272C44.3917 57.0591 44.2603 56.9277 44.0922 56.833C43.9265 56.736 43.7336 56.6874 43.5134 56.6874C43.2837 56.6874 43.0802 56.7407 42.9026 56.8472C42.7274 56.9514 42.5901 57.0923 42.4907 57.2698C42.3912 57.445 42.3403 57.6403 42.338 57.8558V58.7471C42.338 59.017 42.3877 59.2502 42.4871 59.4467C42.5889 59.6432 42.7321 59.7947 42.9168 59.9012C43.1015 60.0077 43.3204 60.061 43.5738 60.061C43.7418 60.061 43.8957 60.0373 44.0354 59.99C44.1751 59.9426 44.2946 59.8716 44.3941 59.7769C44.4935 59.6822 44.5693 59.5662 44.6213 59.4289L46.0205 59.5212C45.9495 59.8574 45.8039 60.151 45.5837 60.4019C45.3659 60.6505 45.0842 60.8446 44.7385 60.9843C44.3953 61.1216 43.9987 61.1903 43.5489 61.1903ZM47.0397 61.0837V55.6292H48.5063V56.5809H48.5631C48.6625 56.2424 48.8294 55.9867 49.0638 55.8139C49.2982 55.6387 49.5681 55.5511 49.8735 55.5511C49.9492 55.5511 50.0309 55.5558 50.1185 55.5653C50.2061 55.5747 50.283 55.5878 50.3493 55.6043V56.9467C50.2783 56.9254 50.1801 56.9064 50.0546 56.8898C49.9291 56.8733 49.8143 56.865 49.7101 56.865C49.4876 56.865 49.2887 56.9135 49.1135 57.0106C48.9407 57.1053 48.8034 57.2379 48.7016 57.4083C48.6022 57.5788 48.5525 57.7753 48.5525 57.9978V61.0837H47.0397ZM55.6698 57.1846L54.2849 57.2698C54.2612 57.1514 54.2103 57.0449 54.1322 56.9502C54.054 56.8532 53.9511 56.7762 53.8232 56.7194C53.6978 56.6602 53.5474 56.6306 53.3722 56.6306C53.1379 56.6306 52.9402 56.6803 52.7792 56.7798C52.6182 56.8768 52.5377 57.007 52.5377 57.1704C52.5377 57.3006 52.5898 57.4107 52.694 57.5006C52.7981 57.5906 52.9769 57.6628 53.2302 57.7173L54.2174 57.9161C54.7477 58.025 55.1431 58.2002 55.4035 58.4417C55.6639 58.6832 55.7941 59.0004 55.7941 59.3934C55.7941 59.7509 55.6888 60.0646 55.4781 60.3345C55.2697 60.6043 54.9833 60.815 54.6187 60.9666C54.2565 61.1157 53.8386 61.1903 53.3651 61.1903C52.6431 61.1903 52.0678 61.0399 51.6393 60.7393C51.2131 60.4362 50.9634 60.0243 50.89 59.5035L52.3779 59.4254C52.4229 59.6455 52.5318 59.8136 52.7046 59.9296C52.8774 60.0433 53.0988 60.1001 53.3687 60.1001C53.6338 60.1001 53.8469 60.0492 54.0079 59.9474C54.1712 59.8432 54.2541 59.7095 54.2565 59.5461C54.2541 59.4088 54.1961 59.2963 54.0825 59.2087C53.9688 59.1188 53.7936 59.0501 53.5569 59.0028L52.6123 58.8146C52.0796 58.708 51.6831 58.5234 51.4227 58.2606C51.1646 57.9978 51.0356 57.6628 51.0356 57.2556C51.0356 56.9052 51.1303 56.6034 51.3197 56.3501C51.5114 56.0968 51.7801 55.9014 52.1258 55.7641C52.4738 55.6268 52.881 55.5582 53.3474 55.5582C54.0363 55.5582 54.5784 55.7038 54.9738 55.995C55.3715 56.2862 55.6035 56.6827 55.6698 57.1846Z" fill="black"/>
<path fill-rule="evenodd" clip-rule="evenodd" d="M14.4638 21.4268C11.5328 21.4268 9.15924 19.0533 9.15924 16.1223C9.15924 13.1913 11.5328 10.8177 14.4638 10.8177C17.3948 10.8177 19.7683 13.1913 19.7683 16.1223C19.7683 19.0533 17.3948 21.4268 14.4638 21.4268ZM16.453 15.5918C15.8697 15.5918 15.3921 15.1142 15.3921 14.5309C15.3921 13.9476 15.8697 13.47 16.453 13.47C17.0363 13.47 17.5139 13.9476 17.5139 14.5309C17.5139 15.1142 17.0363 15.5918 16.453 15.5918ZM12.4746 15.5918C11.8913 15.5918 11.4137 15.1142 11.4137 14.5309C11.4137 13.9476 11.8913 13.47 12.4746 13.47C13.0579 13.47 13.5355 13.9476 13.5355 14.5309C13.5355 15.1142 13.0579 15.5918 12.4746 15.5918ZM12.4746 16.6527H17.2486C17.2486 18.1913 16.0023 19.4376 14.4638 19.4376C12.9252 19.4376 11.6789 18.1913 11.6789 16.6527H12.4746Z" fill="white"/>
<path fill-rule="evenodd" clip-rule="evenodd" d="M14.4637 35.4579C11.5327 35.4579 9.15918 33.0844 9.15918 30.1533C9.15918 27.2223 11.5327 24.8488 14.4637 24.8488C17.3947 24.8488 19.7682 27.2223 19.7682 30.1533C19.7682 33.0844 17.3947 35.4579 14.4637 35.4579ZM16.4529 29.6229C15.8696 29.6229 15.392 29.1453 15.392 28.562C15.392 27.9787 15.8696 27.5011 16.4529 27.5011C17.0362 27.5011 17.5138 27.9787 17.5138 28.562C17.5138 29.1453 17.0362 29.6229 16.4529 29.6229ZM12.4745 29.6229C11.8912 29.6229 11.4136 29.1453 11.4136 28.562C11.4136 27.9787 11.8912 27.5011 12.4745 27.5011C13.0578 27.5011 13.5354 27.9787 13.5354 28.562C13.5354 29.1453 13.0578 29.6229 12.4745 29.6229ZM12.4745 30.6838H17.2486C17.2486 32.2224 16.0022 33.4687 14.4637 33.4687C12.9252 33.4687 11.6788 32.2223 11.6788 30.6838H12.4745Z" fill="white"/>
<path fill-rule="evenodd" clip-rule="evenodd" d="M28.4951 35.4579C25.5641 35.4579 23.1906 33.0844 23.1906 30.1533C23.1906 27.2223 25.5641 24.8488 28.4951 24.8488C31.4261 24.8488 33.7996 27.2223 33.7996 30.1533C33.7996 33.0844 31.4261 35.4579 28.4951 35.4579ZM30.4843 29.6229C29.901 29.6229 29.4234 29.1453 29.4234 28.562C29.4234 27.9787 29.901 27.5011 30.4843 27.5011C31.0676 27.5011 31.5452 27.9787 31.5452 28.562C31.5452 29.1453 31.0676 29.6229 30.4843 29.6229ZM26.5059 29.6229C25.9226 29.6229 25.445 29.1453 25.445 28.562C25.445 27.9787 25.9226 27.5011 26.5059 27.5011C27.0892 27.5011 27.5668 27.9787 27.5668 28.562C27.5668 29.1453 27.0892 29.6229 26.5059 29.6229ZM26.5059 30.6838H31.28C31.28 32.2224 30.0336 33.4687 28.4951 33.4687C26.9566 33.4687 25.7102 32.2223 25.7102 30.6838H26.5059Z" fill="white"/>
<path fill-rule="evenodd" clip-rule="evenodd" d="M28.495 21.4268C25.564 21.4268 23.1905 19.0533 23.1905 16.1223C23.1905 13.1913 25.564 10.8177 28.495 10.8177C31.4261 10.8177 33.7996 13.1913 33.7996 16.1223C33.7996 19.0533 31.4261 21.4268 28.495 21.4268ZM30.4842 15.5918C29.901 15.5918 29.4233 15.1142 29.4233 14.5309C29.4233 13.9476 29.901 13.47 30.4842 13.47C31.0675 13.47 31.5452 13.9476 31.5452 14.5309C31.5452 15.1142 31.0675 15.5918 30.4842 15.5918ZM26.5059 15.5918C25.9226 15.5918 25.4449 15.1142 25.4449 14.5309C25.4449 13.9476 25.9226 13.47 26.5059 13.47C27.0891 13.47 27.5668 13.9476 27.5668 14.5309C27.5668 15.1142 27.0891 15.5918 26.5059 15.5918ZM26.5059 16.6527H31.2799C31.2799 18.1913 30.0336 19.4376 28.495 19.4376C26.9565 19.4376 25.7102 18.1913 25.7102 16.6527H26.5059Z" fill="white"/>
<path fill-rule="evenodd" clip-rule="evenodd" d="M42.5264 21.4268C39.5954 21.4268 37.2219 19.0533 37.2219 16.1223C37.2219 13.1913 39.5954 10.8177 42.5264 10.8177C45.4574 10.8177 47.8309 13.1913 47.8309 16.1223C47.8309 19.0533 45.4574 21.4268 42.5264 21.4268ZM44.5156 15.5918C43.9323 15.5918 43.4547 15.1142 43.4547 14.5309C43.4547 13.9476 43.9323 13.47 44.5156 13.47C45.0989 13.47 45.5765 13.9476 45.5765 14.5309C45.5765 15.1142 45.0989 15.5918 44.5156 15.5918ZM40.5372 15.5918C39.9539 15.5918 39.4763 15.1142 39.4763 14.5309C39.4763 13.9476 39.9539 13.47 40.5372 13.47C41.1205 13.47 41.5981 13.9476 41.5981 14.5309C41.5981 15.1142 41.1205 15.5918 40.5372 15.5918ZM40.5372 16.6527H45.3113C45.3113 18.1913 44.0649 19.4376 42.5264 19.4376C40.9879 19.4376 39.7415 18.1913 39.7415 16.6527H40.5372Z" fill="white"/>
<path fill-rule="evenodd" clip-rule="evenodd" d="M42.5264 35.4579C39.5953 35.4579 37.2218 33.0844 37.2218 30.1533C37.2218 27.2223 39.5953 24.8488 42.5264 24.8488C45.4574 24.8488 47.8309 27.2223 47.8309 30.1533C47.8309 33.0844 45.4574 35.4579 42.5264 35.4579ZM44.5156 29.6229C43.9323 29.6229 43.4547 29.1453 43.4547 28.562C43.4547 27.9787 43.9323 27.5011 44.5156 27.5011C45.0988 27.5011 45.5765 27.9787 45.5765 28.562C45.5765 29.1453 45.0988 29.6229 44.5156 29.6229ZM40.5372 29.6229C39.9539 29.6229 39.4763 29.1453 39.4763 28.562C39.4763 27.9787 39.9539 27.5011 40.5372 27.5011C41.1204 27.5011 41.5981 27.9787 41.5981 28.562C41.5981 29.1453 41.1204 29.6229 40.5372 29.6229ZM40.5372 30.6838H45.3112C45.3112 32.2224 44.0649 33.4687 42.5264 33.4687C40.9878 33.4687 39.7415 32.2223 39.7415 30.6838H40.5372Z" fill="white"/>
<rect x="68.0098" width="54.9901" height="46.5763" rx="6.00985" fill="#6D2100"/>
<path d="M71.8769 53.811V61.0837H70.3392V55.2705H70.2966L68.6311 56.3146V54.9509L70.4316 53.811H71.8769ZM76.2616 61.1832C75.7597 61.1832 75.3123 61.0908 74.9193 60.9062C74.5287 60.7215 74.2186 60.467 73.9889 60.1427C73.7593 59.8184 73.6397 59.4467 73.6302 59.0276H75.1217C75.1383 59.3094 75.2567 59.5378 75.4768 59.713C75.697 59.8882 75.9586 59.9758 76.2616 59.9758C76.5031 59.9758 76.7162 59.9225 76.9008 59.816C77.0879 59.7071 77.2335 59.5568 77.3376 59.365C77.4442 59.1709 77.4974 58.9483 77.4974 58.6974C77.4974 58.4417 77.443 58.2168 77.3341 58.0227C77.2275 57.8285 77.0796 57.677 76.8902 57.5681C76.7008 57.4592 76.4842 57.4036 76.2403 57.4012C76.0273 57.4012 75.8201 57.445 75.6189 57.5326C75.42 57.6202 75.265 57.7398 75.1537 57.8913L73.7865 57.6462L74.131 53.811H78.577V55.0681H75.3987L75.2105 56.8898H75.2531C75.381 56.7099 75.5739 56.5608 75.832 56.4424C76.09 56.324 76.3788 56.2648 76.6984 56.2648C77.1364 56.2648 77.527 56.3678 77.8703 56.5738C78.2136 56.7798 78.4846 57.0627 78.6835 57.4225C78.8824 57.78 78.9806 58.1919 78.9783 58.6583C78.9806 59.1484 78.867 59.584 78.6373 59.9651C78.4101 60.3439 78.0917 60.6422 77.6821 60.86C77.2749 61.0755 76.8014 61.1832 76.2616 61.1832ZM82.4078 53.811H84.3041L86.3069 58.6974H86.3921L88.395 53.811H90.2913V61.0837H88.7998V56.3501H88.7394L86.8573 61.0482H85.8417L83.9596 56.3323H83.8992V61.0837H82.4078V53.811ZM91.5297 61.0837V55.6292H93.0425V61.0837H91.5297ZM92.2897 54.9261C92.0648 54.9261 91.8718 54.8515 91.7109 54.7023C91.5522 54.5508 91.4729 54.3697 91.4729 54.159C91.4729 53.9507 91.5522 53.772 91.7109 53.6228C91.8718 53.4713 92.0648 53.3955 92.2897 53.3955C92.5146 53.3955 92.7064 53.4713 92.865 53.6228C93.026 53.772 93.1065 53.9507 93.1065 54.159C93.1065 54.3697 93.026 54.5508 92.865 54.7023C92.7064 54.8515 92.5146 54.9261 92.2897 54.9261ZM95.7671 57.9303V61.0837H94.2544V55.6292H95.6961V56.5916H95.76C95.8808 56.2743 96.0832 56.0234 96.3673 55.8387C96.6514 55.6517 96.9958 55.5582 97.4007 55.5582C97.7795 55.5582 98.1097 55.641 98.3914 55.8068C98.6732 55.9725 98.8921 56.2092 99.0484 56.517C99.2046 56.8224 99.2828 57.187 99.2828 57.6107V61.0837H97.77V57.8806C97.7724 57.5468 97.6871 57.2864 97.5143 57.0994C97.3415 56.91 97.1036 56.8153 96.8005 56.8153C96.5969 56.8153 96.417 56.8591 96.2608 56.9467C96.1069 57.0343 95.9861 57.1621 95.8985 57.3302C95.8133 57.4959 95.7695 57.696 95.7671 57.9303ZM103.973 58.7613V55.6292H105.486V61.0837H104.033V60.093H103.976C103.853 60.4126 103.649 60.6694 103.362 60.8636C103.078 61.0577 102.731 61.1548 102.322 61.1548C101.957 61.1548 101.636 61.0719 101.359 60.9062C101.082 60.7405 100.866 60.5049 100.709 60.1995C100.556 59.8941 100.477 59.5283 100.475 59.1022V55.6292H101.988V58.8323C101.99 59.1543 102.077 59.4088 102.247 59.5958C102.418 59.7828 102.646 59.8764 102.932 59.8764C103.115 59.8764 103.285 59.8349 103.444 59.7521C103.602 59.6668 103.73 59.5414 103.827 59.3756C103.927 59.2099 103.975 59.0051 103.973 58.7613ZM109.597 55.6292V56.7656H106.312V55.6292H109.597ZM107.058 54.3224H108.571V59.4076C108.571 59.5473 108.592 59.6562 108.635 59.7343C108.677 59.8101 108.736 59.8633 108.812 59.8941C108.89 59.9249 108.98 59.9403 109.082 59.9403C109.153 59.9403 109.224 59.9344 109.295 59.9225C109.366 59.9083 109.421 59.8977 109.459 59.8906L109.696 61.0163C109.621 61.0399 109.514 61.0672 109.377 61.0979C109.24 61.1311 109.073 61.1512 108.876 61.1583C108.512 61.1725 108.192 61.124 107.917 61.0127C107.645 60.9014 107.433 60.7286 107.282 60.4943C107.13 60.2599 107.056 59.9639 107.058 59.6065V54.3224ZM113.01 61.1903C112.449 61.1903 111.966 61.0766 111.561 60.8494C111.158 60.6197 110.848 60.2954 110.63 59.8764C110.413 59.455 110.304 58.9566 110.304 58.3813C110.304 57.8202 110.413 57.3278 110.63 56.9041C110.848 56.4803 111.155 56.15 111.55 55.9133C111.948 55.6765 112.414 55.5582 112.949 55.5582C113.309 55.5582 113.644 55.6162 113.954 55.7322C114.267 55.8458 114.539 56.0175 114.771 56.2471C115.005 56.4767 115.188 56.7656 115.318 57.1136C115.448 57.4592 115.513 57.864 115.513 58.3281V58.7435H110.907V57.806H114.089C114.089 57.5882 114.042 57.3953 113.947 57.2272C113.852 57.0591 113.721 56.9277 113.553 56.833C113.387 56.736 113.194 56.6874 112.974 56.6874C112.745 56.6874 112.541 56.7407 112.363 56.8472C112.188 56.9514 112.051 57.0923 111.951 57.2698C111.852 57.445 111.801 57.6403 111.799 57.8558V58.7471C111.799 59.017 111.848 59.2502 111.948 59.4467C112.05 59.6432 112.193 59.7947 112.378 59.9012C112.562 60.0077 112.781 60.061 113.035 60.061C113.203 60.061 113.357 60.0373 113.496 59.99C113.636 59.9426 113.755 59.8716 113.855 59.7769C113.954 59.6822 114.03 59.5662 114.082 59.4289L115.481 59.5212C115.41 59.8574 115.265 60.151 115.044 60.4019C114.827 60.6505 114.545 60.8446 114.199 60.9843C113.856 61.1216 113.459 61.1903 113.01 61.1903ZM121.039 57.1846L119.654 57.2698C119.63 57.1514 119.579 57.0449 119.501 56.9502C119.423 56.8532 119.32 56.7762 119.192 56.7194C119.067 56.6602 118.916 56.6306 118.741 56.6306C118.507 56.6306 118.309 56.6803 118.148 56.7798C117.987 56.8768 117.907 57.007 117.907 57.1704C117.907 57.3006 117.959 57.4107 118.063 57.5006C118.167 57.5906 118.346 57.6628 118.599 57.7173L119.586 57.9161C120.117 58.025 120.512 58.2002 120.772 58.4417C121.033 58.6832 121.163 59.0004 121.163 59.3934C121.163 59.7509 121.058 60.0646 120.847 60.3345C120.639 60.6043 120.352 60.815 119.988 60.9666C119.625 61.1157 119.208 61.1903 118.734 61.1903C118.012 61.1903 117.437 61.0399 117.008 60.7393C116.582 60.4362 116.332 60.0243 116.259 59.5035L117.747 59.4254C117.792 59.6455 117.901 59.8136 118.074 59.9296C118.246 60.0433 118.468 60.1001 118.738 60.1001C119.003 60.1001 119.216 60.0492 119.377 59.9474C119.54 59.8432 119.623 59.7095 119.625 59.5461C119.623 59.4088 119.565 59.2963 119.451 59.2087C119.338 59.1188 119.163 59.0501 118.926 59.0028L117.981 58.8146C117.449 58.708 117.052 58.5234 116.792 58.2606C116.534 57.9978 116.405 57.6628 116.405 57.2556C116.405 56.9052 116.499 56.6034 116.689 56.3501C116.88 56.0968 117.149 55.9014 117.495 55.7641C117.843 55.6268 118.25 55.5582 118.716 55.5582C119.405 55.5582 119.947 55.7038 120.343 55.995C120.741 56.2862 120.973 56.6827 121.039 57.1846Z" fill="black"/>
<path d="M105.389 15.0953C105.269 14.9753 105.11 14.8164 104.95 14.6964L105.349 14.1775L105.589 14.3769C105.829 14.5359 106.147 14.4969 106.307 14.2975L107.025 13.3796C107.184 13.1396 107.145 12.8217 106.946 12.6612L104.072 10.4265C103.832 10.2675 103.514 10.3065 103.354 10.5059L102.676 11.3459C102.517 11.5859 102.556 11.9038 102.756 12.0643L102.996 12.2638L102.517 12.8622C101.08 12.0238 99.4456 11.4254 97.8093 11.187V10.0307H98.2487C98.6882 10.0307 99.0466 9.67227 99.0466 9.23281V7.59652C99.0466 7.15705 98.6882 6.79865 98.2487 6.79865H92.8224C92.3829 6.79865 92.0245 7.15707 92.0245 7.59652V9.23281C92.0245 9.67228 92.3829 10.0307 92.8224 10.0307H93.2618V11.187C91.5866 11.4659 89.9909 12.0254 88.554 12.8622L88.0755 12.2638L88.3155 12.0643C88.5555 11.9054 88.5945 11.5454 88.395 11.3459L87.6766 10.428C87.5176 10.188 87.1577 10.1491 86.9582 10.3486L84.0846 12.5833C83.8446 12.7422 83.8057 13.1022 84.0051 13.3017L84.7235 14.2195C84.8825 14.4595 85.2425 14.4985 85.4419 14.299L85.6819 14.0995L86.0809 14.6185C85.9219 14.7385 85.8019 14.8974 85.6414 15.0174C83.0078 17.6511 81.5319 21.1603 81.5319 24.9115C81.5319 28.6609 82.9687 32.1718 85.6414 34.8056C88.275 37.4392 91.7843 38.9151 95.5355 38.9151C99.2849 38.9151 102.796 37.4782 105.43 34.8056C108.063 32.172 109.539 28.6627 109.539 24.9115C109.537 21.159 108.021 17.729 105.389 15.0956L105.389 15.0953ZM95.4951 36.8375C88.9533 36.8375 83.6063 31.4925 83.6063 24.9487C83.6063 18.4069 88.9513 13.06 95.4951 13.06C102.037 13.06 107.384 18.4049 107.384 24.9487C107.384 31.5312 102.037 36.8375 95.4951 36.8375Z" fill="white"/>
<path d="M95.9556 17.1281V24.9409H103.468C103.468 20.6254 100.105 17.1281 95.9556 17.1281Z" fill="white"/>
<circle cx="95.5049" cy="25.0911" r="12.1699" stroke="white" stroke-width="3.60591"/>
<rect x="135.02" width="54.9901" height="46.5763" rx="6.00985" fill="#6D2100"/>
<path d="M174.28 11.3926C173.421 10.6923 172.176 10.7685 171.472 11.6271L166.719 17.0833C166.25 17.7075 165.471 18.018 164.691 18.018H160.56C159.78 18.018 159.08 17.7075 158.532 17.0833L153.776 11.5479C153.076 10.6892 151.827 10.6132 150.969 11.3134C150.11 12.0137 150.034 13.2621 150.734 14.1208L157.125 21.6048L157.131 38.1286C157.131 39.2186 157.99 40.1565 159.159 40.1565C160.325 40.1565 161.184 39.2187 161.184 38.1286V29.6341H164.067V38.1286C164.067 39.2186 164.926 40.1565 166.095 40.1565C167.185 40.1565 168.123 39.2978 168.123 38.1286L168.12 21.6048L174.511 14.1208C175.214 13.3413 175.135 12.0959 174.279 11.3926H174.28Z" fill="white"/>
<path d="M167.723 11.3157C167.723 13.9829 165.558 16.1477 162.888 16.1477C160.22 16.1477 158.056 13.9829 158.056 11.3157C158.056 8.64539 160.22 6.48059 162.888 6.48059C165.558 6.48059 167.723 8.64539 167.723 11.3157Z" fill="white"/>
<path d="M143.82 61.0837H142.173L144.683 53.811H146.665L149.172 61.0837H147.524L145.702 55.4729H145.646L143.82 61.0837ZM143.717 58.2251H147.609V59.4254H143.717V58.2251ZM152.222 63.2428C151.732 63.2428 151.312 63.1754 150.962 63.0404C150.614 62.9078 150.337 62.7267 150.131 62.4971C149.925 62.2675 149.791 62.0094 149.729 61.7229L151.129 61.5347C151.171 61.6436 151.239 61.7454 151.331 61.8401C151.423 61.9348 151.545 62.0106 151.697 62.0674C151.851 62.1266 152.038 62.1562 152.258 62.1562C152.587 62.1562 152.858 62.0757 153.071 61.9147C153.287 61.7561 153.394 61.4898 153.394 61.1157V60.1178H153.33C153.264 60.2693 153.165 60.4126 153.032 60.5475C152.899 60.6825 152.729 60.7925 152.521 60.8778C152.312 60.963 152.064 61.0056 151.775 61.0056C151.365 61.0056 150.992 60.9109 150.656 60.7215C150.323 60.5298 150.056 60.2374 149.857 59.8444C149.661 59.449 149.563 58.9495 149.563 58.3458C149.563 57.7279 149.663 57.2118 149.864 56.7975C150.066 56.3832 150.333 56.0731 150.667 55.8671C151.003 55.6612 151.371 55.5582 151.771 55.5582C152.077 55.5582 152.332 55.6103 152.538 55.7144C152.744 55.8162 152.91 55.9441 153.036 56.0979C153.163 56.2495 153.262 56.3986 153.33 56.5454H153.387V55.6292H154.889V61.137C154.889 61.601 154.776 61.9893 154.548 62.3018C154.321 62.6143 154.006 62.8487 153.604 63.0049C153.204 63.1635 152.743 63.2428 152.222 63.2428ZM152.254 59.8693C152.498 59.8693 152.704 59.8089 152.872 59.6881C153.043 59.565 153.173 59.3898 153.263 59.1626C153.355 58.9329 153.401 58.6583 153.401 58.3387C153.401 58.0191 153.356 57.7421 153.266 57.5077C153.176 57.271 153.046 57.0875 152.876 56.9573C152.705 56.8271 152.498 56.762 152.254 56.762C152.006 56.762 151.796 56.8295 151.626 56.9644C151.455 57.097 151.326 57.2817 151.239 57.5184C151.151 57.7551 151.107 58.0286 151.107 58.3387C151.107 58.6536 151.151 58.9258 151.239 59.1555C151.329 59.3827 151.458 59.5591 151.626 59.6846C151.796 59.8077 152.006 59.8693 152.254 59.8693ZM158.579 61.1903C158.018 61.1903 157.535 61.0766 157.13 60.8494C156.728 60.6197 156.417 60.2954 156.2 59.8764C155.982 59.455 155.873 58.9566 155.873 58.3813C155.873 57.8202 155.982 57.3278 156.2 56.9041C156.417 56.4803 156.724 56.15 157.119 55.9133C157.517 55.6765 157.983 55.5582 158.519 55.5582C158.878 55.5582 159.213 55.6162 159.524 55.7322C159.836 55.8458 160.108 56.0175 160.34 56.2471C160.575 56.4767 160.757 56.7656 160.887 57.1136C161.017 57.4592 161.082 57.864 161.082 58.3281V58.7435H156.477V57.806H159.658C159.658 57.5882 159.611 57.3953 159.516 57.2272C159.422 57.0591 159.29 56.9277 159.122 56.833C158.957 56.736 158.764 56.6874 158.543 56.6874C158.314 56.6874 158.11 56.7407 157.933 56.8472C157.757 56.9514 157.62 57.0923 157.521 57.2698C157.421 57.445 157.37 57.6403 157.368 57.8558V58.7471C157.368 59.017 157.418 59.2502 157.517 59.4467C157.619 59.6432 157.762 59.7947 157.947 59.9012C158.131 60.0077 158.35 60.061 158.604 60.061C158.772 60.061 158.926 60.0373 159.065 59.99C159.205 59.9426 159.325 59.8716 159.424 59.7769C159.524 59.6822 159.599 59.5662 159.651 59.4289L161.05 59.5212C160.979 59.8574 160.834 60.151 160.614 60.4019C160.396 60.6505 160.114 60.8446 159.769 60.9843C159.425 61.1216 159.029 61.1903 158.579 61.1903ZM166.608 57.1846L165.223 57.2698C165.199 57.1514 165.149 57.0449 165.07 56.9502C164.992 56.8532 164.889 56.7762 164.761 56.7194C164.636 56.6602 164.486 56.6306 164.31 56.6306C164.076 56.6306 163.878 56.6803 163.717 56.7798C163.556 56.8768 163.476 57.007 163.476 57.1704C163.476 57.3006 163.528 57.4107 163.632 57.5006C163.736 57.5906 163.915 57.6628 164.168 57.7173L165.156 57.9161C165.686 58.025 166.081 58.2002 166.342 58.4417C166.602 58.6832 166.732 59.0004 166.732 59.3934C166.732 59.7509 166.627 60.0646 166.416 60.3345C166.208 60.6043 165.921 60.815 165.557 60.9666C165.195 61.1157 164.777 61.1903 164.303 61.1903C163.581 61.1903 163.006 61.0399 162.577 60.7393C162.151 60.4362 161.902 60.0243 161.828 59.5035L163.316 59.4254C163.361 59.6455 163.47 59.8136 163.643 59.9296C163.816 60.0433 164.037 60.1001 164.307 60.1001C164.572 60.1001 164.785 60.0492 164.946 59.9474C165.109 59.8432 165.192 59.7095 165.195 59.5461C165.192 59.4088 165.134 59.2963 165.021 59.2087C164.907 59.1188 164.732 59.0501 164.495 59.0028L163.55 58.8146C163.018 58.708 162.621 58.5234 162.361 58.2606C162.103 57.9978 161.974 57.6628 161.974 57.2556C161.974 56.9052 162.068 56.6034 162.258 56.3501C162.45 56.0968 162.718 55.9014 163.064 55.7641C163.412 55.6268 163.819 55.5582 164.286 55.5582C164.974 55.5582 165.517 55.7038 165.912 55.995C166.31 56.2862 166.542 56.6827 166.608 57.1846ZM170.273 61.0837L173.288 55.1178V55.0681H169.776V53.811H174.879V55.0859L171.86 61.0837H170.273ZM178.106 59.9758V54.9474H179.377V59.9758H178.106ZM176.227 58.0972V56.8259H181.256V58.0972H176.227Z" fill="black"/>
</svg>
