<svg width="71" height="13" viewBox="0 0 71 13" fill="none" xmlns="http://www.w3.org/2000/svg">
<path d="M39.2266 12.3664C40.7083 12.3664 41.1316 11.8718 41.1316 10.9532V8.63919C41.1316 8.48021 41.0434 8.39188 40.8847 8.39188H38.38C38.2212 8.39188 38.133 8.48021 38.133 8.63919V9.46942C38.133 9.80505 38.0096 9.99936 37.4628 9.99936H35.7694C35.2403 9.99936 35.0992 9.80505 35.0992 9.46942V2.93353C35.0992 2.59791 35.2403 2.4036 35.7694 2.4036H37.4628C38.0096 2.4036 38.133 2.59791 38.133 2.93353V3.72844C38.133 3.88742 38.2212 3.97574 38.38 3.97574H40.8847C41.0434 3.97574 41.1316 3.88742 41.1316 3.72844V1.59103C41.1316 0.672472 40.7083 0.0012207 39.2266 0.0012207H33.0178C31.5538 0.0012207 31.1128 0.495826 31.1128 1.41438V10.9532C31.1128 11.8718 31.5538 12.3664 33.0178 12.3664H39.2266Z" fill="white"/>
<path d="M47.7881 6.64309H45.6009C45.5127 6.64309 45.4598 6.5901 45.4598 6.50178V0.248523C45.4598 0.0895421 45.3716 0.0012207 45.2128 0.0012207H42.3906C42.2319 0.0012207 42.1437 0.0895421 42.1437 0.248523V12.1191C42.1437 12.2781 42.2319 12.3664 42.3906 12.3664H45.2128C45.3716 12.3664 45.4598 12.2781 45.4598 12.1191V8.97482C45.4598 8.88649 45.5127 8.8335 45.6009 8.8335H47.7881C47.8763 8.8335 47.9292 8.88649 47.9292 8.97482V12.1191C47.9292 12.2781 48.0174 12.3664 48.1762 12.3664H50.9984C51.1571 12.3664 51.2453 12.2781 51.2453 12.1191V0.248523C51.2453 0.0895421 51.1571 0.0012207 50.9984 0.0012207H48.1762C48.0174 0.0012207 47.9292 0.0895421 47.9292 0.248523V6.50178C47.9292 6.5901 47.8763 6.64309 47.7881 6.64309Z" fill="white"/>
<path d="M57.4655 0.0012207H52.4914C52.3326 0.0012207 52.2444 0.0895421 52.2444 0.248523V12.1191C52.2444 12.2781 52.3326 12.3664 52.4914 12.3664H57.4655C57.6243 12.3664 57.7125 12.2781 57.7125 12.1191V10.7766C57.7125 10.6176 57.6243 10.5293 57.4655 10.5293H54.855C54.7668 10.5293 54.7139 10.4763 54.7139 10.388V6.3428C54.7139 6.25447 54.7668 6.20148 54.855 6.20148H56.76C56.9187 6.20148 57.0069 6.11316 57.0069 5.95418V4.61167C57.0069 4.45269 56.9187 4.36437 56.76 4.36437H54.855C54.7668 4.36437 54.7139 4.31137 54.7139 4.22305V1.97965C54.7139 1.89133 54.7668 1.83833 54.855 1.83833H57.4655C57.6243 1.83833 57.7125 1.75001 57.7125 1.59103V0.248523C57.7125 0.0895421 57.6243 0.0012207 57.4655 0.0012207Z" fill="white"/>
<path d="M67.2301 0.0012207H58.9575C58.7988 0.0012207 58.7106 0.0895421 58.7106 0.248523V12.1191C58.7106 12.2781 58.7988 12.3664 58.9575 12.3664H62.4324C62.5911 12.3664 62.6793 12.2781 62.6793 12.1191V6.87273C62.6793 6.78441 62.7322 6.73142 62.8204 6.73142H66.1189C66.2776 6.73142 66.3658 6.6431 66.3658 6.48411V4.61167C66.3658 4.45269 66.2776 4.36437 66.1189 4.36437H62.8204C62.7322 4.36437 62.6793 4.31137 62.6793 4.22305V2.50959C62.6793 2.42127 62.7322 2.36827 62.8204 2.36827H67.2301C67.3889 2.36827 67.4771 2.27995 67.4771 2.12097V0.248523C67.4771 0.0895421 67.3889 0.0012207 67.2301 0.0012207Z" fill="white"/>
<path d="M5.68116 0.248524C5.71642 1.23774 5.80457 3.42814 4.57044 5.01795C4.44703 5.17693 4.34124 5.21226 4.27072 5.12394C2.94844 3.53413 3.01896 1.27307 3.03659 0.248524C3.03659 0.0895434 2.94844 0.0012207 2.78976 0.0012207H0.250976C0.0923019 0.0012207 0.00414936 0.0895434 0.00414936 0.248524C-0.0134811 1.50271 -0.0663722 4.78831 2.06691 7.10237L2.70161 7.64997C2.7545 7.6853 2.77213 7.75596 2.77213 7.82662V12.1191C2.77213 12.2781 2.86028 12.3664 3.01896 12.3664H5.71642C5.87509 12.3664 5.96325 12.2781 5.96325 12.1191V7.80895C5.96325 7.73829 5.98088 7.6853 6.03377 7.63231C6.21007 7.47333 6.42164 7.29668 6.65083 7.10237C8.78412 4.78831 8.7136 1.50271 8.69597 0.248524C8.69597 0.0895434 8.60781 0.0012207 8.44914 0.0012207H5.92798C5.76931 0.0012207 5.68116 0.0895434 5.68116 0.248524Z" fill="white"/>
<path d="M14.7375 0.0012207H9.76568C9.607 0.0012207 9.51885 0.0895434 9.51885 0.248524V12.1191C9.51885 12.2781 9.607 12.3664 9.76568 12.3664H14.7375C14.8961 12.3664 14.9843 12.2781 14.9843 12.1191V10.7766C14.9843 10.6176 14.8961 10.5293 14.7375 10.5293H12.1282C12.04 10.5293 11.9871 10.4763 11.9871 10.388V6.3428C11.9871 6.25447 12.04 6.20148 12.1282 6.20148H14.0322C14.1909 6.20148 14.2791 6.11316 14.2791 5.95417V4.61167C14.2791 4.45269 14.1909 4.36437 14.0322 4.36437H12.1282C12.04 4.36437 11.9871 4.31137 11.9871 4.22305V1.97965C11.9871 1.89133 12.04 1.83833 12.1282 1.83833H14.7375C14.8961 1.83833 14.9843 1.75001 14.9843 1.59103V0.248524C14.9843 0.0895434 14.8961 0.0012207 14.7375 0.0012207Z" fill="white"/>
<path d="M24.1459 12.3664C25.6093 12.3664 25.6611 11.8718 25.6611 10.9532V6.66076C25.6611 5.7422 24.8148 5.4949 23.3868 5.24759L20.178 4.68233C19.8254 4.61167 19.6315 4.55867 19.6315 4.32904V2.93354C19.6315 2.59791 19.7549 2.4036 20.3014 2.4036H21.9763C22.5052 2.4036 22.6463 2.59791 22.6463 2.93354V3.72844C22.6463 3.88742 22.7344 3.97574 22.8931 3.97574H25.4143C25.5729 3.97574 25.6611 3.88742 25.6611 3.72844V1.41439C25.6611 0.495828 25.2027 0.0012207 23.7394 0.0012207H17.9037C16.4404 0.0012207 15.982 0.495828 15.982 1.41439V5.70687C15.982 6.62543 16.8282 6.87273 18.2563 7.12004L21.465 7.6853C21.8176 7.75596 22.0116 7.80895 22.0116 8.03859V9.43409C22.0116 9.76972 21.8882 9.96403 21.3416 9.96403H19.6667C19.1378 9.96403 18.9968 9.76972 18.9968 9.43409V8.63919C18.9968 8.48021 18.9086 8.39188 18.7499 8.39188H16.2288C16.0701 8.39188 15.982 8.48021 15.982 8.63919V10.7766C15.982 11.6952 16.8469 12.3664 18.3103 12.3664H24.1459Z" fill="white"/>
<path d="M68.7723 8.42721L70.569 8.42721C70.7307 8.42721 70.8205 8.33889 70.8205 8.17991L71.0002 0.248524C71.0002 0.0718791 70.9104 0.00122071 70.7487 0.00122071L68.5926 0.0012207C68.4309 0.0012207 68.341 0.0718791 68.341 0.248524L68.5207 8.17991C68.5207 8.33889 68.6105 8.42721 68.7723 8.42721ZM68.7723 12.3664L70.569 12.3664C70.7307 12.3664 70.8205 12.2781 70.8205 12.1191L70.8205 10.3526C70.8205 10.1937 70.7307 10.1053 70.569 10.1053L68.7723 10.1053C68.6105 10.1053 68.5207 10.1937 68.5207 10.3526L68.5207 12.1191C68.5207 12.2781 68.6105 12.3664 68.7723 12.3664Z" fill="white"/>
</svg>
