<svg width="119" height="87" viewBox="0 0 119 87" fill="none" xmlns="http://www.w3.org/2000/svg">
<path d="M15.0601 0H20.983C21.5159 0 21.8122 0.295415 21.8122 0.828994C21.8719 5.03334 21.9898 16.0487 16.6594 23.8067C16.1258 24.4581 15.593 25.0505 15.1781 25.5839C15.0005 25.7615 14.9415 25.939 14.9415 26.1756V40.6262C14.9415 41.1589 14.6452 41.4552 14.1124 41.4552H7.77382C7.24101 41.4552 6.94469 41.1589 6.94469 40.6262V26.2942C6.94469 26.0569 6.82602 25.8794 6.70809 25.7018L5.16789 23.8067C-0.163299 16.0487 -0.0446342 5.03322 0.0143328 0.828994C0.0143328 0.295539 0.310662 0 0.844214 0H6.76705C7.29986 0 7.59617 0.295415 7.59617 0.828994C7.53721 4.20436 7.35969 11.7259 10.617 17.0559C10.8544 17.3513 11.2095 17.2336 11.5057 16.7001C14.5265 11.3706 14.2899 4.14541 14.2302 0.828994C14.2303 0.295539 14.5265 0 15.0601 0Z" fill="black"/>
<path d="M47.5829 0.828994V6.5143C47.5829 7.04701 47.2866 7.34328 46.753 7.34328H34.6103C34.3148 7.34328 34.1372 7.5209 34.1372 7.81704V14.1537C34.1372 14.45 34.3148 14.6275 34.6103 14.6275H43.6144C44.1472 14.6275 44.4435 14.9237 44.4435 15.4564V21.1418C44.4435 21.6752 44.1472 21.9714 43.6144 21.9714H34.6103C34.3148 21.9714 34.1372 22.149 34.1372 22.4451V33.6374C34.1372 33.9335 34.3148 34.1119 34.6103 34.1119H46.753C47.2866 34.1119 47.5829 34.4073 47.5829 34.9409V40.6262C47.5829 41.1589 47.2866 41.4552 46.753 41.4552H23.8301C23.2973 41.4552 23.001 41.1589 23.001 40.6262V0.828994C23.001 0.295539 23.2973 0 23.8301 0H46.753C47.2866 0 47.5829 0.295539 47.5829 0.828994Z" fill="black"/>
<path d="M55.8198 41.4552C50.9036 41.4552 49.3633 39.2049 49.3633 36.125V28.9594C49.3633 28.4267 49.6596 28.1304 50.1924 28.1304H58.663C59.1958 28.1304 59.4921 28.4267 59.4921 28.9594V31.6245C59.4921 32.7496 59.9659 33.4009 61.7428 33.4009H67.3701C69.2067 33.4009 69.6208 32.7496 69.6208 31.6245V26.9456C69.6208 26.1756 68.9693 25.9981 67.785 25.7615L57.0041 23.8664C52.2064 23.0367 49.3634 22.2078 49.3634 19.1286V4.73768C49.3634 1.65784 50.9036 0 55.8199 0H75.4258C80.342 0 81.8823 1.65784 81.8823 4.73768V12.4956C81.8823 13.0283 81.5861 13.3246 81.0532 13.3246H72.5826C72.0498 13.3246 71.7535 13.0283 71.7535 12.4956V9.83058C71.7535 8.70546 71.2797 8.05334 69.5028 8.05334H63.8755C62.0389 8.05334 61.6248 8.70546 61.6248 9.83058V14.5087C61.6248 15.2787 62.2763 15.4562 63.4606 15.6935L74.2415 17.5887C79.0392 18.4176 81.8822 19.2465 81.8822 22.3265V36.7173C81.8822 39.7973 80.342 41.4552 75.4257 41.4552H55.8198Z" fill="black"/>
<path d="M7.14766 85.0589C2.23147 85.0589 0.750977 83.4003 0.750977 80.3212V48.3415C0.750977 45.2624 2.23147 43.6039 7.14766 43.6039H27.9972C32.973 43.6039 34.3946 45.8549 34.3946 48.934V56.1001C34.3946 56.6328 34.0983 56.929 33.5655 56.929H25.154C24.6212 56.929 24.3249 56.6328 24.3249 56.1001V53.4351C24.3249 52.31 23.9107 51.6586 22.0742 51.6586H16.388C14.6112 51.6586 14.1374 52.31 14.1374 53.4351V75.347C14.1374 76.4721 14.6112 77.1234 16.388 77.1234H22.0742C23.9107 77.1234 24.3249 76.472 24.3249 75.347V72.5633C24.3249 72.0298 24.6212 71.7343 25.154 71.7343H33.5655C34.0983 71.7343 34.3946 72.0297 34.3946 72.5633V80.3211C34.3946 83.4002 32.9731 85.0588 27.9972 85.0588H7.14766V85.0589Z" fill="black"/>
<path d="M50.6886 66.582V44.4335C50.6886 43.9 50.9848 43.6039 51.5176 43.6039H58.1515C58.6843 43.6039 58.9805 43.9001 58.9805 44.4335V84.2299C58.9805 84.7626 58.6843 85.0589 58.1515 85.0589H51.5176C50.9848 85.0589 50.6886 84.7626 50.6886 84.2299V73.6884C50.6886 73.3921 50.5109 73.2147 50.2147 73.2147H44.9434C44.6471 73.2147 44.4688 73.3923 44.4688 73.6884V84.2299C44.4688 84.7626 44.1733 85.0589 43.6398 85.0589H37.0059C36.4731 85.0589 36.1768 84.7626 36.1768 84.2299V44.4335C36.1768 43.9 36.4731 43.6039 37.0059 43.6039H43.6398C44.1733 43.6039 44.4688 43.9001 44.4688 44.4335V66.582C44.4688 66.8781 44.6472 67.0557 44.9434 67.0557H50.2147C50.5109 67.0557 50.6886 66.8781 50.6886 66.582Z" fill="black"/>
<path d="M79.1254 44.4331V48.9335C79.1254 49.4669 78.8291 49.7631 78.2963 49.7631H69.5297C69.2342 49.7631 69.0566 49.9407 69.0566 50.2361V57.7575C69.0566 58.0536 69.2342 58.2312 69.5297 58.2312H75.9271C76.4599 58.2312 76.7561 58.5274 76.7561 59.0601V63.5612C76.7561 64.0939 76.4599 64.3902 75.9271 64.3902H69.5297C69.2342 64.3902 69.0566 64.5678 69.0566 64.8639V78.4256C69.0566 78.7217 69.2342 78.8994 69.5297 78.8994H78.2963C78.8291 78.8994 79.1254 79.1956 79.1254 79.7282V84.2293C79.1254 84.762 78.8291 85.0583 78.2963 85.0583H61.5928C61.06 85.0583 60.7637 84.762 60.7637 84.2293V44.4329C60.7637 43.8994 61.06 43.6033 61.5928 43.6033H78.2963C78.8291 43.6035 79.1254 43.8997 79.1254 44.4331Z" fill="black"/>
<path d="M99.2667 44.4336V48.934C99.2667 49.4674 98.9705 49.7636 98.4377 49.7636H89.671C89.3756 49.7636 89.1979 49.9412 89.1979 50.2366V57.7579C89.1979 58.0541 89.3756 58.2317 89.671 58.2317H96.0684C96.6013 58.2317 96.8975 58.5278 96.8975 59.0606V63.5617C96.8975 64.0944 96.6013 64.3907 96.0684 64.3907H89.671C89.3756 64.3907 89.1979 64.5683 89.1979 64.8644V84.2299C89.1979 84.7626 88.9016 85.0589 88.3682 85.0589H81.7343C81.2015 85.0589 80.9053 84.7626 80.9053 84.2299V44.4335C80.9053 43.9 81.2015 43.6039 81.7343 43.6039H98.4378C98.9705 43.604 99.2667 43.9001 99.2667 44.4336Z" fill="black"/>
<path d="M97.6636 68.5296L105.755 44.1185C105.96 43.563 106.265 43.4228 106.765 43.6077L118.43 47.9255C118.93 48.1104 119.125 48.4358 118.92 48.9913L109.106 72.7649C108.921 73.2652 108.54 73.4402 108.041 73.2551L98.1529 69.5952C97.6533 69.4104 97.4784 69.03 97.6636 68.5296ZM92.7653 81.8433L95.6031 74.179C95.7881 73.6795 96.1687 73.5045 96.6685 73.6894L106.556 77.3492C107.056 77.5342 107.231 77.9148 107.046 78.4144L104.208 86.0787C104.023 86.5784 103.642 86.7533 103.142 86.5683L93.2548 82.9086C92.7552 82.7235 92.5803 82.3429 92.7653 81.8433Z" fill="black"/>
</svg>
