<svg width="207" height="66" viewBox="0 0 207 66" fill="none" xmlns="http://www.w3.org/2000/svg">
<path d="M90.2944 29.6741C88.8381 29.6741 87.4358 29.4404 86.0874 28.9729C84.757 28.5055 83.6154 27.7324 82.6625 26.6537C81.7276 25.557 81.1883 24.1457 81.0444 22.4198H85.548C85.8537 23.7142 86.429 24.6311 87.274 25.1705C88.1369 25.7098 89.1437 25.9795 90.2944 25.9795C91.3012 25.9795 92.1282 25.7638 92.7754 25.3323C93.4406 24.9008 93.7732 24.2626 93.7732 23.4176C93.7732 22.8243 93.5665 22.3479 93.153 21.9883C92.7394 21.6287 92.2181 21.3501 91.5888 21.1523C90.9776 20.9545 90.1236 20.7388 89.0269 20.5051C87.4807 20.1635 86.2133 19.8129 85.2244 19.4533C84.2356 19.0758 83.3906 18.4915 82.6895 17.7004C81.9883 16.8914 81.6377 15.8037 81.6377 14.4373C81.6377 13.1069 81.9613 11.9833 82.6086 11.0664C83.2558 10.1315 84.1457 9.43032 85.2784 8.96288C86.411 8.49544 87.6875 8.26172 89.1078 8.26172C90.5281 8.26172 91.8405 8.51342 93.0451 9.01682C94.2676 9.50223 95.2834 10.2483 96.0924 11.2551C96.9015 12.244 97.4139 13.4665 97.6296 14.9228H93.153C92.9013 13.9699 92.4068 13.2418 91.6697 12.7384C90.9506 12.217 90.0606 11.9563 88.9999 11.9563C88.119 11.9563 87.3908 12.1361 86.8155 12.4957C86.2582 12.8552 85.9795 13.3766 85.9795 14.0598C85.9795 14.5991 86.1683 15.0306 86.5459 15.3542C86.9414 15.6778 87.4268 15.9385 88.0021 16.1363C88.5954 16.3161 89.4314 16.5318 90.5101 16.7835C92.0922 17.1251 93.3957 17.4937 94.4204 17.8892C95.4452 18.2668 96.3262 18.887 97.0633 19.75C97.8004 20.595 98.169 21.7456 98.169 23.2018C98.169 24.5143 97.8543 25.6559 97.2251 26.6268C96.5958 27.5976 95.6879 28.3527 94.5013 28.892C93.3327 29.4134 91.9304 29.6741 90.2944 29.6741Z" fill="black"/>
<path d="M106.586 29.5662C104.159 29.5662 102.549 28.7033 101.758 26.9773C101.489 26.384 101.318 25.7818 101.246 25.1705C101.192 24.5592 101.165 23.7232 101.165 22.6625V14.0328H105.237V22.7164C105.237 23.4715 105.291 24.0828 105.399 24.5502C105.507 24.9997 105.687 25.3593 105.938 25.6289C106.334 26.0424 106.927 26.2492 107.718 26.2492C108.689 26.2492 109.408 25.9615 109.876 25.3862C110.127 25.0806 110.307 24.6761 110.415 24.1727C110.541 23.6693 110.604 23.0041 110.604 22.1771V14.0328H114.703V29.2426H110.604V28.919C110.604 28.6314 110.631 28.3976 110.685 28.2178C110.757 28.0201 110.873 27.8223 111.035 27.6246L110.658 27.3549C110.118 28.1639 109.525 28.7392 108.878 29.0808C108.231 29.4044 107.467 29.5662 106.586 29.5662Z" fill="black"/>
<path d="M126.575 13.7092C127.869 13.7092 129.02 14.0508 130.027 14.734C131.034 15.3992 131.816 16.3341 132.373 17.5386C132.948 18.7252 133.236 20.0916 133.236 21.6377C133.236 23.1839 132.948 24.5592 132.373 25.7638C131.816 26.9504 131.034 27.8852 130.027 28.5684C129.02 29.2336 127.869 29.5662 126.575 29.5662C125.658 29.5662 124.867 29.4044 124.202 29.0808C123.555 28.7392 122.961 28.1639 122.422 27.3549L122.044 27.6246C122.206 27.8223 122.314 28.0201 122.368 28.2178C122.44 28.4156 122.476 28.6493 122.476 28.919V34.6092H118.377V14.0328H122.476V14.3564C122.476 14.6441 122.44 14.8868 122.368 15.0846C122.314 15.2643 122.206 15.4531 122.044 15.6509L122.422 15.9206C122.961 15.1115 123.555 14.5452 124.202 14.2216C124.867 13.88 125.658 13.7092 126.575 13.7092ZM125.523 17.215C124.445 17.215 123.564 17.6285 122.88 18.4555C122.215 19.2646 121.883 20.3253 121.883 21.6377C121.883 22.9502 122.215 24.0199 122.88 24.8469C123.564 25.6559 124.445 26.0604 125.523 26.0604C126.602 26.0604 127.465 25.6559 128.112 24.8469C128.777 24.0199 129.11 22.9502 129.11 21.6377C129.11 20.3253 128.777 19.2646 128.112 18.4555C127.465 17.6285 126.602 17.215 125.523 17.215Z" fill="black"/>
<path d="M143.578 29.5662C142.032 29.5662 140.656 29.2336 139.452 28.5684C138.265 27.8852 137.348 26.9504 136.701 25.7638C136.054 24.5772 135.73 23.2378 135.73 21.7456C135.73 20.3792 136.009 19.0848 136.566 17.8622C137.141 16.6217 138.004 15.6239 139.155 14.8688C140.324 14.0957 141.753 13.7092 143.443 13.7092C144.827 13.7092 146.104 13.9969 147.272 14.5722C148.459 15.1295 149.412 16.0105 150.131 17.215C150.85 18.4016 151.21 19.8938 151.21 21.6917V22.5007H141.933C140.836 22.5007 140.126 22.4647 139.802 22.3928L139.667 22.7973C139.829 22.8513 139.946 22.9322 140.018 23.04C140.108 23.1479 140.18 23.3007 140.234 23.4985C140.378 23.8581 140.521 24.1457 140.665 24.3615C141.348 25.4761 142.382 26.0335 143.767 26.0335C144.504 26.0335 145.142 25.8537 145.681 25.4941C146.221 25.1166 146.607 24.6401 146.841 24.0648H150.967C150.5 25.6829 149.646 27.0043 148.405 28.0291C147.164 29.0538 145.555 29.5662 143.578 29.5662ZM140.072 19.8848C140.575 19.6331 141.079 19.5073 141.582 19.5073H145.573C145.843 19.5073 146.086 19.5342 146.302 19.5882C146.535 19.6421 146.805 19.741 147.111 19.8848L147.326 19.4803C147.182 19.4264 147.084 19.3724 147.03 19.3185C146.994 19.2466 146.958 19.1387 146.922 18.9949C146.904 18.9589 146.859 18.86 146.787 18.6982C146.733 18.5364 146.607 18.3477 146.409 18.1319C145.762 17.3049 144.827 16.8914 143.605 16.8914C142.382 16.8914 141.438 17.3049 140.773 18.1319C140.575 18.3477 140.441 18.5364 140.369 18.6982C140.315 18.86 140.279 18.9589 140.261 18.9949C140.225 19.1387 140.18 19.2466 140.126 19.3185C140.09 19.3724 140 19.4264 139.856 19.4803L140.072 19.8848Z" fill="black"/>
<path d="M154.245 14.0328H158.344V14.3564C158.344 14.6261 158.308 14.8598 158.236 15.0576C158.182 15.2554 158.074 15.4531 157.913 15.6509L158.29 15.9206C158.812 15.1115 159.396 14.5452 160.043 14.2216C160.708 13.88 161.508 13.7092 162.443 13.7092H163.01V17.6195H162.147C160.996 17.6195 160.115 17.9072 159.504 18.4825C159.09 18.878 158.794 19.3994 158.614 20.0466C158.434 20.6759 158.344 21.5029 158.344 22.5277V29.2426H154.245V14.0328Z" fill="black"/>
<path d="M166.876 17.242H164.637V14.0328H166.876V12.5226C166.876 11.3001 167.244 10.3562 167.981 9.69101C168.719 9.00783 169.77 8.66624 171.137 8.66624H173.537V11.8484H172.135C171.379 11.8484 171.002 12.3069 171.002 13.2238C171.002 13.5474 170.912 13.8171 170.732 14.0328L171.002 14.3025C171.236 14.1227 171.613 14.0328 172.135 14.0328H173.537V17.242H171.002V29.2426H166.876V17.242Z" fill="black"/>
<path d="M181.548 29.5662C179.12 29.5662 177.511 28.7033 176.72 26.9773C176.451 26.384 176.28 25.7818 176.208 25.1705C176.154 24.5592 176.127 23.7232 176.127 22.6625V14.0328H180.199V22.7164C180.199 23.4715 180.253 24.0828 180.361 24.5502C180.469 24.9997 180.649 25.3593 180.9 25.6289C181.296 26.0424 181.889 26.2492 182.68 26.2492C183.651 26.2492 184.37 25.9615 184.838 25.3862C185.089 25.0806 185.269 24.6761 185.377 24.1727C185.503 23.6693 185.566 23.0041 185.566 22.1771V14.0328H189.665V29.2426H185.566V28.919C185.566 28.6314 185.593 28.3976 185.647 28.2178C185.719 28.0201 185.835 27.8223 185.997 27.6246L185.62 27.3549C185.08 28.1639 184.487 28.7392 183.84 29.0808C183.193 29.4044 182.428 29.5662 181.548 29.5662Z" fill="black"/>
<path d="M193.339 14.0328H197.438V14.3564C197.438 14.6261 197.402 14.8598 197.33 15.0576C197.276 15.2554 197.168 15.4531 197.006 15.6509L197.384 15.9206C197.923 15.1115 198.508 14.5452 199.137 14.2216C199.784 13.88 200.548 13.7092 201.429 13.7092C203.892 13.7092 205.501 14.5722 206.256 16.2981C206.544 16.8914 206.715 17.4937 206.769 18.1049C206.841 18.7162 206.877 19.5522 206.877 20.6129V29.2426H202.804V20.559C202.804 19.8039 202.75 19.2016 202.643 18.7522C202.535 18.2847 202.355 17.9162 202.103 17.6465C201.708 17.233 201.114 17.0262 200.323 17.0262C199.353 17.0262 198.624 17.3139 198.139 17.8892C197.887 18.1948 197.708 18.5994 197.6 19.1028C197.492 19.6062 197.438 20.2714 197.438 21.0984V29.2426H193.339V14.0328Z" fill="black"/>
<path d="M91.2113 56.5123C89.0718 56.5123 87.265 56.0269 85.7908 55.056C84.3345 54.0672 83.2558 52.7818 82.5546 51.1997C81.8535 49.5996 81.5029 47.8557 81.5029 45.9679C81.5029 44.0802 81.8535 42.3363 82.5546 40.7362C83.2738 39.1361 84.3525 37.8506 85.7908 36.8798C87.247 35.891 89.0449 35.3966 91.1843 35.3966C93.4136 35.3966 95.2654 35.9359 96.7397 37.0146C98.2319 38.0754 99.2746 39.5136 99.8679 41.3295H97.0902C96.6228 40.1788 95.8767 39.2709 94.8519 38.6057C93.8271 37.9405 92.5866 37.6079 91.1304 37.6079C89.5303 37.6079 88.1909 37.9944 87.1122 38.7675C86.0514 39.5226 85.2604 40.5294 84.739 41.7879C84.2356 43.0464 83.9839 44.4128 83.9839 45.887C83.9839 47.4332 84.2536 48.8445 84.7929 50.1209C85.3323 51.3974 86.1413 52.4132 87.22 53.1683C88.3167 53.9234 89.6382 54.3009 91.1843 54.3009C92.6226 54.3009 93.8811 53.9683 94.9598 53.3031C96.0565 52.62 96.8385 51.7031 97.306 50.5524C97.4498 50.1929 97.5577 49.8423 97.6296 49.5007C97.7015 49.1591 97.7554 48.8535 97.7914 48.5838C97.8274 48.368 97.8633 48.1703 97.8993 47.9905C97.9532 47.8107 98.0251 47.6759 98.115 47.586L97.7914 47.2624C97.5577 47.4601 97.324 47.586 97.0902 47.6399C96.8565 47.6759 96.4071 47.6938 95.7419 47.6938H92.8563V45.4825H100.218V56.2426H97.9532V52.8447H97.5217C97.5217 53.3301 97.3689 53.7886 97.0633 54.22C96.7576 54.6335 96.3351 55.0021 95.7958 55.3257C95.1845 55.6853 94.4744 55.9729 93.6653 56.1887C92.8563 56.4044 92.0383 56.5123 91.2113 56.5123Z" fill="black"/>
<path d="M108.596 56.5123C107.104 56.5123 105.917 56.1348 105.036 55.3797C104.173 54.6246 103.742 53.5908 103.742 52.2784C103.742 50.9839 104.227 49.9591 105.198 49.204C105.989 48.5748 107.131 48.1074 108.623 47.8017L113.935 46.7769C113.953 45.6263 113.648 44.7364 113.018 44.1071C112.335 43.424 111.418 43.0824 110.268 43.0824C109.351 43.0824 108.551 43.3341 107.868 43.8375C107.202 44.3229 106.78 44.9791 106.6 45.8061H104.308C104.56 44.3139 105.243 43.1543 106.357 42.3273C107.49 41.4823 108.803 41.0598 110.295 41.0598C111.176 41.0598 111.994 41.1946 112.749 41.4643C113.504 41.716 114.142 42.0935 114.664 42.5969C115.347 43.2442 115.778 43.9903 115.958 44.8353C116.138 45.6803 116.228 46.5522 116.228 47.4511V56.2426H113.935V55.5415C113.935 55.092 114.025 54.5796 114.205 54.0043L113.828 53.8425C113.342 54.6156 112.776 55.2178 112.129 55.6493C111.679 55.955 111.167 56.1707 110.591 56.2966C110.034 56.4404 109.369 56.5123 108.596 56.5123ZM108.865 54.4897C109.728 54.4897 110.519 54.3189 111.239 53.9773C112.12 53.5279 112.767 52.9256 113.18 52.1705C113.486 51.6311 113.684 51.1188 113.774 50.6333C113.881 50.1479 113.944 49.8513 113.962 49.7434C114.016 49.4737 114.088 49.276 114.178 49.1501C114.268 49.0243 114.403 48.9523 114.583 48.9344L114.502 48.5029L111.023 49.231L109.108 49.6086C107.993 49.8243 107.175 50.1749 106.654 50.6603C106.241 51.0738 106.034 51.5952 106.034 52.2244C106.034 52.9076 106.286 53.456 106.789 53.8695C107.31 54.283 108.002 54.4897 108.865 54.4897Z" fill="black"/>
<path d="M120.439 41.3295H122.732V42.3003C122.732 42.552 122.705 42.7677 122.651 42.9475C122.615 43.1093 122.534 43.2711 122.408 43.4329L122.785 43.6757C123.469 42.7408 124.143 42.0756 124.808 41.68C125.473 41.2665 126.255 41.0598 127.154 41.0598C128.179 41.0598 129.06 41.3025 129.797 41.7879C130.534 42.2554 130.966 42.9295 131.092 43.8105H131.442C132.251 41.9767 133.77 41.0598 136 41.0598C137.654 41.0598 138.894 41.5362 139.721 42.4891C140.548 43.424 140.962 44.7723 140.962 46.5342V56.2426H138.669V47.0736C138.669 45.7971 138.4 44.8173 137.86 44.1341C137.339 43.4329 136.602 43.0824 135.649 43.0824C134.66 43.0824 133.851 43.415 133.222 44.0802C132.719 44.6195 132.359 45.3207 132.143 46.1837C131.945 47.0466 131.847 48.1523 131.847 49.5007V56.2426H129.554V47.0736C129.554 45.8151 129.276 44.8353 128.718 44.1341C128.179 43.4329 127.442 43.0824 126.507 43.0824C125.518 43.0824 124.709 43.4419 124.08 44.1611C123.63 44.6645 123.289 45.3387 123.055 46.1837C122.839 47.0107 122.732 48.1163 122.732 49.5007V56.2426H120.439V41.3295Z" fill="black"/>
<path d="M151.868 56.5123C150.466 56.5123 149.207 56.1797 148.092 55.5145C146.996 54.8493 146.142 53.9324 145.53 52.7638C144.919 51.5952 144.614 50.2828 144.614 48.8265C144.614 47.4421 144.901 46.1657 145.476 44.9971C146.052 43.8105 146.879 42.8576 147.958 42.1385C149.054 41.4194 150.34 41.0598 151.814 41.0598C153.09 41.0598 154.277 41.3474 155.374 41.9228C156.47 42.4981 157.351 43.3431 158.016 44.4577C158.682 45.5544 159.014 46.8758 159.014 48.422V49.231H148.362C148.236 49.231 147.984 49.231 147.607 49.231C147.247 49.231 146.915 49.213 146.609 49.1771L146.528 49.6086C146.69 49.6445 146.798 49.7074 146.852 49.7973C146.924 49.8692 146.978 50.0041 147.014 50.2018C147.068 50.3816 147.122 50.5524 147.175 50.7142C147.553 51.8649 148.155 52.7818 148.982 53.4649C149.827 54.1481 150.78 54.4897 151.841 54.4897C152.92 54.4897 153.845 54.2021 154.619 53.6268C155.392 53.0514 155.949 52.3233 156.291 51.4424H158.745C158.259 52.9526 157.432 54.1751 156.264 55.11C155.095 56.0449 153.63 56.5123 151.868 56.5123ZM147.068 47.7208C147.265 47.541 147.463 47.4152 147.661 47.3433C147.877 47.2534 148.137 47.2084 148.443 47.2084H155.131C155.473 47.2084 155.76 47.2534 155.994 47.3433C156.228 47.4152 156.452 47.541 156.668 47.7208L156.965 47.3972C156.785 47.2714 156.668 47.1635 156.614 47.0736C156.578 46.9657 156.542 46.8309 156.506 46.6691C156.452 46.3455 156.362 46.0398 156.237 45.7522C155.859 44.9072 155.275 44.251 154.484 43.7835C153.711 43.3161 152.839 43.0824 151.868 43.0824C150.879 43.0824 150.007 43.3161 149.252 43.7835C148.515 44.251 147.94 44.9072 147.526 45.7522C147.364 46.0938 147.265 46.3994 147.229 46.6691C147.211 46.8309 147.175 46.9567 147.122 47.0466C147.068 47.1365 146.951 47.2534 146.771 47.3972L147.068 47.7208Z" fill="black"/>
<path d="M168.747 56.5123C166.859 56.5123 165.322 56.0628 164.136 55.1639C162.949 54.265 162.23 53.0245 161.978 51.4424H164.378C164.576 52.3952 165.035 53.1413 165.754 53.6807C166.491 54.22 167.498 54.4897 168.774 54.4897C169.817 54.4897 170.644 54.292 171.255 53.8964C171.884 53.5009 172.199 52.9346 172.199 52.1975C172.199 51.6221 172.01 51.1637 171.633 50.8221C171.273 50.4625 170.806 50.1929 170.23 50.0131C169.673 49.8333 168.927 49.6535 167.992 49.4737C166.823 49.24 165.88 49.0063 165.16 48.7726C164.459 48.5209 163.857 48.1253 163.354 47.586C162.85 47.0466 162.598 46.3005 162.598 45.3477C162.598 43.9993 163.102 42.9475 164.109 42.1924C165.133 41.4373 166.437 41.0598 168.019 41.0598C169.637 41.0598 170.985 41.4823 172.064 42.3273C173.143 43.1723 173.808 44.3319 174.06 45.8061H171.929C171.714 44.8892 171.264 44.206 170.581 43.7566C169.898 43.3071 169.044 43.0824 168.019 43.0824C167.03 43.0824 166.257 43.2711 165.7 43.6487C165.16 44.0083 164.891 44.5117 164.891 45.1589C164.891 45.6623 165.062 46.0578 165.403 46.3455C165.745 46.6331 166.167 46.8578 166.671 47.0197C167.174 47.1635 167.884 47.3253 168.801 47.5051C170.006 47.7388 170.985 47.9905 171.741 48.2602C172.496 48.5119 173.143 48.9344 173.682 49.5277C174.222 50.103 174.491 50.912 174.491 51.9548C174.491 53.3571 173.988 54.4717 172.981 55.2988C171.974 56.1078 170.563 56.5123 168.747 56.5123Z" fill="black"/>
<circle cx="32.586" cy="32.586" r="32.586" fill="#EC5628"/>
<path d="M33.1694 50.0449C34.5933 50.0449 35.7476 48.8907 35.7476 47.4668C35.7476 46.0429 34.5933 44.8887 33.1694 44.8887C31.7456 44.8887 30.5913 46.0429 30.5913 47.4668C30.5913 48.8907 31.7456 50.0449 33.1694 50.0449Z" fill="#74EDEA"/>
<path d="M26.3115 45.4746C27.7354 45.4746 28.8897 44.3204 28.8897 42.8965C28.8897 41.4726 27.7354 40.3184 26.3115 40.3184C24.8877 40.3184 23.7334 41.4726 23.7334 42.8965C23.7334 44.3204 24.8877 45.4746 26.3115 45.4746Z" fill="#F9F752"/>
<path d="M33.1689 31.4668V36.0384C34.0733 36.0386 34.9573 36.3069 35.7091 36.8096C36.4609 37.3122 37.0468 38.0266 37.3925 38.8622C37.7383 39.6979 37.8284 40.6173 37.6515 41.5042C37.4746 42.3911 37.0387 43.2056 36.3988 43.8447L39.6334 47.0745C40.9118 45.7958 41.7824 44.1668 42.1351 42.3934C42.4877 40.62 42.3067 38.7818 41.6148 37.1113C40.9229 35.4408 39.7512 34.0129 38.2479 33.0082C36.7445 32.0035 34.9771 31.4671 33.1689 31.4668Z" fill="white"/>
<path d="M33.457 17.4609C32.0332 17.4609 30.8789 18.6152 30.8789 20.0391C30.8789 21.4629 32.0332 22.6172 33.457 22.6172C34.8809 22.6172 36.0352 21.4629 36.0352 20.0391C36.0352 18.6152 34.8809 17.4609 33.457 17.4609Z" fill="#EBDCF7"/>
<path d="M40.3145 22.0312C38.8906 22.0312 37.7363 23.1855 37.7363 24.6094C37.7363 26.0332 38.8906 27.1875 40.3145 27.1875C41.7383 27.1875 42.8926 26.0332 42.8926 24.6094C42.8926 23.1855 41.7383 22.0312 40.3145 22.0312Z" fill="#8FFA4D"/>
<path d="M33.4575 36.0391L33.4575 31.4674C32.5532 31.4673 31.6692 31.1989 30.9174 30.6963C30.1655 30.1936 29.5797 29.4793 29.234 28.6436C28.8882 27.808 28.7981 26.8885 28.975 26.0016C29.1518 25.1147 29.5878 24.3002 30.2277 23.6612L26.993 20.4313C25.7146 21.71 24.8441 23.339 24.4914 25.1125C24.1387 26.8859 24.3198 28.724 25.0117 30.3946C25.7036 32.0651 26.8753 33.493 28.3786 34.4977C29.8819 35.5024 31.6494 36.0388 33.4575 36.0391Z" fill="white"/>
</svg>
