<svg width="66" height="66" viewBox="0 0 66 66" fill="none" xmlns="http://www.w3.org/2000/svg">
<path d="M32.586 65.172C50.5827 65.172 65.172 50.5827 65.172 32.586C65.172 14.5892 50.5827 0 32.586 0C14.5892 0 0 14.5892 0 32.586C0 50.5827 14.5892 65.172 32.586 65.172Z" fill="#FF3000"/>
<path d="M33.1694 50.0449C34.5933 50.0449 35.7476 48.8907 35.7476 47.4668C35.7476 46.0429 34.5933 44.8887 33.1694 44.8887C31.7456 44.8887 30.5913 46.0429 30.5913 47.4668C30.5913 48.8907 31.7456 50.0449 33.1694 50.0449Z" fill="#00FFFF"/>
<path d="M26.3115 45.4746C27.7354 45.4746 28.8897 44.3204 28.8897 42.8965C28.8897 41.4726 27.7354 40.3184 26.3115 40.3184C24.8877 40.3184 23.7334 41.4726 23.7334 42.8965C23.7334 44.3204 24.8877 45.4746 26.3115 45.4746Z" fill="#F6FB00"/>
<path d="M33.1689 31.4668V36.0384C34.0733 36.0386 34.9573 36.3069 35.7091 36.8096C36.4609 37.3122 37.0468 38.0266 37.3925 38.8622C37.7383 39.6979 37.8284 40.6173 37.6515 41.5042C37.4746 42.3911 37.0387 43.2056 36.3988 43.8447L39.6334 47.0745C40.9118 45.7958 41.7824 44.1668 42.1351 42.3934C42.4877 40.62 42.3067 38.7818 41.6148 37.1113C40.9229 35.4408 39.7512 34.0129 38.2479 33.0082C36.7445 32.0035 34.9771 31.4671 33.1689 31.4668Z" fill="white"/>
<path d="M33.457 17.4609C32.0332 17.4609 30.8789 18.6152 30.8789 20.0391C30.8789 21.4629 32.0332 22.6172 33.457 22.6172C34.8809 22.6172 36.0352 21.4629 36.0352 20.0391C36.0352 18.6152 34.8809 17.4609 33.457 17.4609Z" fill="#F5D2FF"/>
<path d="M40.3145 22.0312C38.8906 22.0312 37.7363 23.1855 37.7363 24.6094C37.7363 26.0332 38.8906 27.1875 40.3145 27.1875C41.7383 27.1875 42.8926 26.0332 42.8926 24.6094C42.8926 23.1855 41.7383 22.0312 40.3145 22.0312Z" fill="#00FF00"/>
<path d="M33.4575 36.0392V31.4675C32.5532 31.4674 31.6692 31.199 30.9174 30.6964C30.1655 30.1937 29.5797 29.4794 29.234 28.6437C28.8882 27.8081 28.7981 26.8886 28.975 26.0017C29.1518 25.1148 29.5878 24.3003 30.2277 23.6613L26.993 20.4314C25.7146 21.7101 24.8441 23.3391 24.4914 25.1126C24.1387 26.886 24.3198 28.7241 25.0117 30.3947C25.7036 32.0652 26.8753 33.4931 28.3786 34.4978C29.8819 35.5025 31.6494 36.0389 33.4575 36.0392Z" fill="white"/>
</svg>
