<svg width="645" height="197" viewBox="0 0 645 197" fill="none" xmlns="http://www.w3.org/2000/svg">
<path d="M644.625 102.5C644.365 105.365 643.193 107.122 641.109 107.773C637.984 108.945 633.362 111.029 627.242 114.023C619.56 117.669 615.719 120.078 615.719 121.25C615.589 122.812 617.021 124.115 620.016 125.156C624.964 126.719 627.828 127.76 628.609 128.281C631.604 129.974 632.971 132.513 632.711 135.898C632.19 142.409 631.083 150.612 629.391 160.508C627.307 173.789 625.354 181.602 623.531 183.945C623.271 184.336 621.188 184.531 617.281 184.531C615.068 184.531 613.701 185.898 613.18 188.633C612.789 191.497 610.576 192.93 606.539 192.93C605.237 192.93 603.219 192.734 600.484 192.344C597.88 191.953 595.927 191.758 594.625 191.758C592.021 191.758 590.458 192.474 589.938 193.906C589.417 195.469 588.115 196.25 586.031 196.25C584.208 196.25 582.385 195.859 580.562 195.078C578.219 194.297 577.112 193.19 577.242 191.758C577.242 191.237 577.372 190.521 577.633 189.609C578.023 188.698 578.219 187.982 578.219 187.461C578.349 186.419 577.698 184.531 576.266 181.797C574.964 179.062 574.378 176.589 574.508 174.375C574.638 173.203 574.964 171.445 575.484 169.102C576.135 166.888 576.461 165.13 576.461 163.828C576.852 160.573 576.591 155.625 575.68 148.984C574.768 142.474 574.443 137.526 574.703 134.141C574.964 131.536 576.07 129.518 578.023 128.086C580.497 126.263 581.995 124.766 582.516 123.594C584.99 118.906 587.529 113.242 590.133 106.602C590.523 102.305 589.156 99.2448 586.031 97.4219C583.167 96.3802 580.172 95.3385 577.047 94.2969C574.052 93.2552 572.685 91.3672 572.945 88.6328C573.076 86.5495 575.419 85.0521 579.977 84.1406C584.534 83.2292 586.878 82.3828 587.008 81.6016C587.008 81.0807 587.008 80.2995 587.008 79.2578C587.008 78.2161 587.073 77.3698 587.203 76.7188C587.333 74.8958 586.617 72.2266 585.055 68.7109C583.622 65.0651 582.971 62.1354 583.102 59.9219C583.232 58.8802 583.818 57.5781 584.859 56.0156C586.422 53.6719 587.268 51.3281 587.398 48.9844C587.659 46.5104 587.854 44.0365 587.984 41.5625C588.245 37.6562 589.547 35.3776 591.891 34.7266C594.234 33.9453 595.536 32.1875 595.797 29.4531C595.797 28.4115 595.862 26.9792 595.992 25.1562C596.253 21.7708 597.685 20.0781 600.289 20.0781C601.852 20.0781 604.065 20.599 606.93 21.6406C609.794 22.5521 612.008 23.0078 613.57 23.0078C615.133 23.0078 617.086 22.1615 619.43 20.4688C621.904 18.776 623.857 17.9297 625.289 17.9297C627.112 17.9297 629.651 18.9714 632.906 21.0547C636.292 23.0078 638.31 24.7005 638.961 26.1328C639.612 27.4349 640.003 29.0625 640.133 31.0156C640.133 33.6198 640.198 35.3125 640.328 36.0938C640.458 36.875 641.24 38.8932 642.672 42.1484C643.714 44.7526 644.169 46.9661 644.039 48.7891C643.909 50.4818 642.932 51.7839 641.109 52.6953C638.766 53.8672 637.333 54.8438 636.812 55.625C636.031 56.7969 635.315 58.75 634.664 61.4844C634.143 64.0885 633.427 65.9766 632.516 67.1484C631.604 68.3203 628.935 70.7292 624.508 74.375C621.513 77.1094 619.43 80.1042 618.258 83.3594C617.997 84.5312 617.411 86.1589 616.5 88.2422C615.589 90.3255 613.635 92.2786 610.641 94.1016C607.646 95.7943 606.083 97.2266 605.953 98.3984C605.823 100.612 606.669 101.719 608.492 101.719C609.534 101.719 611.096 101.263 613.18 100.352C615.393 99.4401 617.086 98.9844 618.258 98.9844C620.341 98.9844 623.466 99.4401 627.633 100.352C631.799 101.263 634.99 101.719 637.203 101.719C638.115 101.719 639.026 101.198 639.938 100.156C640.979 98.9844 641.76 98.3984 642.281 98.3984C644.104 98.3984 644.885 99.7656 644.625 102.5ZM623.922 39.0234C624.052 36.6797 622.945 35.5078 620.602 35.5078C617.867 35.5078 615.003 36.6146 612.008 38.8281C611.227 39.4792 610.706 41.4323 610.445 44.6875C610.315 45.3385 610.445 46.1849 610.836 47.2266C611.227 48.2682 611.422 49.1146 611.422 49.7656C611.292 50.9375 610.51 52.3047 609.078 53.8672C607.646 55.4297 606.799 56.6016 606.539 57.3828C605.237 60.1172 603.805 64.1536 602.242 69.4922C601.982 72.2266 603.089 73.5938 605.562 73.5938C607.255 73.5938 608.753 72.0964 610.055 69.1016C611.096 67.0182 612.854 64.1536 615.328 60.5078C616.37 59.5964 617.477 58.6849 618.648 57.7734C619.951 56.862 620.667 55.8203 620.797 54.6484C620.797 53.9974 620.536 53.151 620.016 52.1094C619.495 50.9375 619.299 49.9609 619.43 49.1797C619.56 47.8776 620.276 46.1198 621.578 43.9062C623.01 41.6927 623.792 40.0651 623.922 39.0234ZM611.031 132.773C611.161 130.56 610.12 127.956 607.906 124.961C605.693 121.836 603.544 120.273 601.461 120.273C598.466 120.273 596.448 125.938 595.406 137.266C595.276 139.349 595.146 142.409 595.016 146.445C594.885 150.482 594.69 153.542 594.43 155.625C594.299 157.969 594.56 161.224 595.211 165.391C595.862 169.948 596.188 173.268 596.188 175.352C596.057 178.607 597.099 180.234 599.312 180.234C601.396 180.234 603.414 178.216 605.367 174.18C606.93 170.794 607.841 167.865 608.102 165.391C608.102 164.74 608.036 163.763 607.906 162.461C607.776 161.289 607.711 160.378 607.711 159.727C608.883 153.737 609.99 144.753 611.031 132.773Z" fill="white"/>
<path d="M580.562 34.9219C580.172 38.5677 579.26 41.237 577.828 42.9297C576.396 44.4922 575.615 45.9245 575.484 47.2266C575.354 48.3984 575.289 50.026 575.289 52.1094C575.289 54.0625 575.224 55.5599 575.094 56.6016C574.833 59.7266 573.857 61.875 572.164 63.0469C570.471 64.2188 569.625 65.3255 569.625 66.3672C569.495 66.888 569.56 67.5391 569.82 68.3203C570.211 69.1016 570.341 69.7526 570.211 70.2734C570.081 71.3151 569.299 72.487 567.867 73.7891C566.044 75.3516 564.938 76.4583 564.547 77.1094C563.635 78.8021 562.333 83.8802 560.641 92.3438C560.25 94.2969 559.208 95.2734 557.516 95.2734C556.995 95.2734 556.148 95.1432 554.977 94.8828C553.805 94.6224 552.958 94.4922 552.438 94.4922C550.354 94.4922 549.247 95.5339 549.117 97.6172C549.117 98.2682 549.182 99.1797 549.312 100.352C549.573 101.393 549.638 102.174 549.508 102.695C549.508 103.607 548.922 104.518 547.75 105.43C546.708 106.341 546.057 108.164 545.797 110.898C545.276 116.497 546.969 119.297 550.875 119.297C552.177 119.297 554.716 118.581 558.492 117.148C560.445 117.018 562.789 116.107 565.523 114.414C568.258 112.591 570.211 111.68 571.383 111.68C574.508 111.68 575.875 113.763 575.484 117.93C575.094 121.576 572.815 125.286 568.648 129.062C567.737 129.844 566.435 130.43 564.742 130.82C562.659 131.341 561.292 131.797 560.641 132.188C559.99 132.578 558.167 134.076 555.172 136.68C552.958 138.633 550.94 139.609 549.117 139.609C548.206 139.609 546.969 139.349 545.406 138.828C543.844 138.307 542.737 137.982 542.086 137.852C543.128 137.982 540.914 138.047 535.445 138.047C531.93 138.047 530.042 136.745 529.781 134.141C529.651 131.406 529.521 128.737 529.391 126.133C528.74 126.133 527.893 125.742 526.852 124.961C526.721 124.701 526.07 121.901 524.898 116.562C524.247 114.349 523.531 110.964 522.75 106.406C523.141 102.24 523.336 96.1198 523.336 88.0469C522.685 87.2656 522.034 85.7682 521.383 83.5547C521.253 79.2578 521.253 76.0026 521.383 73.7891C521.773 69.1016 523.792 64.4792 527.438 59.9219C531.083 55.3646 532.971 51.849 533.102 49.375C533.362 47.8125 533.232 45.5339 532.711 42.5391C532.19 39.4141 531.995 37.0703 532.125 35.5078C532.255 33.2943 533.102 31.4062 534.664 29.8438C537.008 26.7188 540.328 23.0729 544.625 18.9062C545.797 18.3854 548.271 18.125 552.047 18.125C552.568 18.125 556.018 18.1901 562.398 18.3203C565.654 18.4505 567.607 18.8411 568.258 19.4922C569.43 20.7943 570.536 22.0964 571.578 23.3984C573.792 24.8307 575.875 26.3281 577.828 27.8906C579.911 29.4531 580.823 31.7969 580.562 34.9219ZM566.891 37.8516C567.021 36.4193 566.044 35.7031 563.961 35.7031C560.315 35.7031 557.776 36.0938 556.344 36.875C554.651 38.0469 553.609 40.3906 553.219 43.9062C552.568 46.901 551.656 51.3932 550.484 57.3828C550.484 59.2057 550.354 61.875 550.094 65.3906C549.964 67.2135 549.117 69.6224 547.555 72.6172C546.122 75.4818 545.341 77.6953 545.211 79.2578C545.081 80.5599 545.406 82.0573 546.188 83.75C546.969 85.3125 547.945 86.0938 549.117 86.0938C550.81 86.0938 551.721 85.3125 551.852 83.75C551.852 83.2292 551.786 82.513 551.656 81.6016C551.526 80.5599 551.461 79.7786 551.461 79.2578C551.591 77.6953 552.372 76.5885 553.805 75.9375C555.237 75.1562 556.018 74.5052 556.148 73.9844C556.279 73.8542 556.539 71.1849 556.93 65.9766C557.19 63.763 558.232 61.4844 560.055 59.1406C562.268 56.276 563.57 54.1927 563.961 52.8906C564.091 50.8073 564.352 47.7474 564.742 43.7109C564.742 42.6693 565.068 41.5625 565.719 40.3906C566.5 39.2188 566.891 38.3724 566.891 37.8516Z" fill="white"/>
<path d="M519.234 91.5625C519.234 93.125 518.063 98.2682 515.719 106.992C513.375 115.716 511.943 120.469 511.422 121.25C511.031 121.901 510.12 122.292 508.688 122.422C507.776 122.552 507.19 123.789 506.93 126.133C506.799 128.477 503.87 131.341 498.141 134.727C492.542 137.982 488.375 139.609 485.641 139.609C485.25 139.609 481.734 138.958 475.094 137.656C471.318 136.875 468.193 135.117 465.719 132.383C462.073 128.477 459.599 126.133 458.297 125.352C458.297 125.352 455.888 124.701 451.07 123.398C447.815 122.487 446.253 121.055 446.383 119.102C446.513 118.581 446.839 117.995 447.359 117.344C447.88 116.693 448.206 116.237 448.336 115.977C448.336 115.326 447.945 114.609 447.164 113.828C446.383 113.047 446.057 111.615 446.188 109.531C446.448 106.797 447.685 104.714 449.898 103.281C452.763 101.589 454.456 100.156 454.977 98.9844C455.497 97.8125 456.018 94.2969 456.539 88.4375C457.19 80.1042 460.25 72.4219 465.719 65.3906C466.109 64.8698 467.542 64.4792 470.016 64.2188C471.969 63.9583 473.076 62.4609 473.336 59.7266C473.466 57.7734 474.508 56.7969 476.461 56.7969C477.633 56.7969 479.26 57.1224 481.344 57.7734C483.427 58.4245 485.055 58.75 486.227 58.75C487.659 58.75 489.742 58.6198 492.477 58.3594C495.211 57.9688 497.229 57.7734 498.531 57.7734C503.74 57.7734 506.279 59.2057 506.148 62.0703C505.888 64.6745 504.911 66.3672 503.219 67.1484C502.438 67.4089 500.484 67.5391 497.359 67.5391C496.057 67.5391 494.43 67.9948 492.477 68.9062C490.523 69.8177 489.482 70.8594 489.352 72.0312C489.221 73.5938 490.003 74.375 491.695 74.375C492.216 74.375 493.063 74.1146 494.234 73.5938C495.536 72.9427 496.578 72.6172 497.359 72.6172C500.354 72.6172 504.326 73.4635 509.273 75.1562C515.133 77.2396 517.997 79.4531 517.867 81.7969C517.737 82.5781 517.281 83.6849 516.5 85.1172C515.849 86.4193 515.523 87.3958 515.523 88.0469C515.393 89.4792 515.914 90.3255 517.086 90.5859C518.258 90.8464 518.974 91.1719 519.234 91.5625ZM501.266 89.0234C501.656 84.8568 498.596 82.7734 492.086 82.7734C487.008 82.7734 483.753 84.3359 482.32 87.4609C480.888 90.5859 479.521 93.6458 478.219 96.6406C478.089 96.7708 476.917 97.6172 474.703 99.1797C473.01 100.352 472.099 101.914 471.969 103.867C471.839 104.779 472.294 105.69 473.336 106.602C474.508 107.513 475.159 108.294 475.289 108.945C474.508 109.336 473.401 110.117 471.969 111.289C471.318 112.721 470.667 114.935 470.016 117.93C469.755 121.185 471.708 122.812 475.875 122.812C478.74 122.812 480.367 122.227 480.758 121.055C481.279 118.971 481.799 117.734 482.32 117.344C482.971 116.823 484.339 116.237 486.422 115.586C488.635 114.935 490.068 114.284 490.719 113.633C491.37 112.982 491.76 112.07 491.891 110.898C492.021 109.596 492.151 108.75 492.281 108.359C492.802 107.188 494.56 103.997 497.555 98.7891C499.898 94.7526 501.135 91.4974 501.266 89.0234Z" fill="white"/>
<path d="M445.992 81.4062L445.406 86.6797C445.276 88.112 444.495 90.0651 443.062 92.5391C441.76 95.013 441.044 96.9661 440.914 98.3984C440.784 99.4401 441.109 100.807 441.891 102.5C442.802 104.193 443.258 105.365 443.258 106.016C443.258 106.016 441.956 108.034 439.352 112.07C437.008 117.018 434.664 121.901 432.32 126.719C428.935 132.969 425.159 136.224 420.992 136.484C419.82 137.526 415.458 138.047 407.906 138.047C403.089 138.047 400.029 137.852 398.727 137.461C397.945 137.201 396.839 136.549 395.406 135.508C394.104 134.466 392.867 133.945 391.695 133.945C391.305 133.945 390.784 134.076 390.133 134.336C389.482 134.596 389.026 134.727 388.766 134.727C387.724 134.727 387.073 132.643 386.812 128.477C386.552 125.482 386.552 122.943 386.812 120.859C386.943 118.125 387.464 114.74 388.375 110.703C384.339 117.214 379.716 122.292 374.508 125.938C365.784 132.188 360.706 135.312 359.273 135.312C358.362 135.312 357.32 134.922 356.148 134.141C354.325 132.969 353.349 132.383 353.219 132.383C352.568 132.122 349.898 131.992 345.211 131.992C342.216 131.992 340.914 129.714 341.305 125.156C341.695 121.25 343.648 115.13 347.164 106.797C350.68 98.4635 352.633 91.6927 353.023 86.4844C353.414 81.4062 351.917 78.8672 348.531 78.8672C345.016 78.8672 343.193 79.2578 343.062 80.0391C343.062 80.4297 343.128 80.8854 343.258 81.4062C343.388 81.9271 343.453 82.3177 343.453 82.5781C342.411 84.2708 341.305 86.0286 340.133 87.8516C338.961 89.5443 337.398 90.3906 335.445 90.3906C333.753 90.3906 332.19 89.9349 330.758 89.0234C329.326 87.9818 328.674 86.6797 328.805 85.1172C329.195 80.5599 332.711 74.5052 339.352 66.9531C342.867 63.0469 348.661 61.0938 356.734 61.0938C361.292 61.0938 363.961 61.3542 364.742 61.875C365.523 62.2656 366.109 63.4375 366.5 65.3906C366.891 67.2135 367.607 68.3854 368.648 68.9062C370.602 69.8177 372.555 70.7943 374.508 71.8359C375.81 72.8776 376.331 75.026 376.07 78.2812C375.81 80.7552 374.768 84.401 372.945 89.2188C371.122 94.0365 370.081 97.6172 369.82 99.9609C369.69 102.305 368.714 105.56 366.891 109.727C365.068 113.763 364.026 116.888 363.766 119.102C363.635 121.445 364.026 122.487 364.937 122.227C369.234 119.883 374.117 112.201 379.586 99.1797C383.883 88.8932 386.878 79.9089 388.57 72.2266C388.831 69.2318 390.979 66.3672 395.016 63.6328C402.958 67.2786 407.255 69.362 407.906 69.8828C412.724 73.0078 414.937 76.7188 414.547 81.0156C414.286 84.5312 413.505 88.112 412.203 91.7578C411.943 92.4089 411.422 92.8646 410.641 93.125C409.99 93.2552 409.664 93.7109 409.664 94.4922C409.664 94.4922 409.924 95.4036 410.445 97.2266C411.096 99.0495 411.357 100.807 411.227 102.5C410.575 106.146 409.664 111.484 408.492 118.516C408.102 119.557 407.581 121.185 406.93 123.398L407.516 123.984C410.38 123.724 413.505 119.948 416.891 112.656C418.844 110.312 421.253 105.951 424.117 99.5703C424.638 97.0964 424.898 93.8411 424.898 89.8047C424.768 84.7266 424.768 81.4062 424.898 79.8438C425.68 70.9896 427.242 66.5625 429.586 66.5625C430.628 66.5625 433.362 67.0833 437.789 68.125C444.039 69.5573 446.773 73.9844 445.992 81.4062Z" fill="white"/>
<path d="M346.383 111.289C346.253 113.112 343.453 116.758 337.984 122.227C333.427 126.784 329.651 130.169 326.656 132.383C324.573 133.945 322.034 135.182 319.039 136.094C316.174 137.005 313.375 137.852 310.641 138.633C309.339 139.414 307.32 140.456 304.586 141.758C303.284 142.148 301.721 142.344 299.898 142.344C298.596 142.344 296.643 142.279 294.039 142.148C291.435 142.018 289.482 141.953 288.18 141.953C284.404 141.953 282.32 140.651 281.93 138.047C281.279 133.88 280.823 131.667 280.562 131.406C279.911 130.625 278.479 130.234 276.266 130.234C274.052 130.104 272.685 129.193 272.164 127.5C271.383 125.156 271.253 121.185 271.773 115.586C272.294 109.987 274.247 105.234 277.633 101.328C281.018 97.2917 282.776 94.1667 282.906 91.9531C283.036 91.0417 282.711 89.9349 281.93 88.6328C281.148 87.2005 280.758 86.0938 280.758 85.3125C281.018 82.3177 284.99 77.8255 292.672 71.8359C300.484 65.7161 305.953 62.6562 309.078 62.6562C310.38 62.6562 311.943 63.8281 313.766 66.1719C315.719 68.5156 317.672 69.6875 319.625 69.6875C320.146 69.6875 320.732 69.1667 321.383 68.125C322.034 66.9531 322.62 66.3672 323.141 66.3672C324.052 66.3672 326.917 67.5391 331.734 69.8828C337.073 72.6172 339.482 76.5885 338.961 81.7969C338.57 85.9635 337.464 89.1536 335.641 91.3672C333.948 93.4505 333.036 95.013 332.906 96.0547C332.906 96.5755 332.906 97.3568 332.906 98.3984C333.036 99.4401 333.036 100.221 332.906 100.742C332.776 102.956 330.758 104.323 326.852 104.844C323.987 105.104 321.122 105.43 318.258 105.82C316.826 107.383 314.286 109.271 310.641 111.484C307.906 112.266 303.805 112.656 298.336 112.656C296.773 112.656 295.862 114.023 295.602 116.758C295.602 116.888 296.122 119.102 297.164 123.398C297.555 125.221 299.898 126.068 304.195 125.938L306.93 125.742C316.044 125.482 324.703 122.161 332.906 115.781C334.469 114.089 336.161 112.331 337.984 110.508C339.938 108.555 341.76 107.578 343.453 107.578C345.667 107.578 346.643 108.815 346.383 111.289ZM319.234 82.1875C319.234 81.5365 317.672 80.7552 314.547 79.8438C313.635 80.3646 311.292 82.0573 307.516 84.9219C303.87 87.7865 301.786 89.4792 301.266 90C300.484 91.3021 299.898 93.4505 299.508 96.4453C299.378 98.5286 300.354 99.5703 302.438 99.5703C305.302 99.5703 308.036 99.1146 310.641 98.2031C314.156 96.901 315.979 95.0781 316.109 92.7344C316.24 91.9531 316.37 90.7812 316.5 89.2188C316.109 88.5677 315.849 87.9167 315.719 87.2656C316.76 85.8333 317.932 84.1406 319.234 82.1875Z" fill="white"/>
<path d="M275.094 117.539C274.964 118.711 274.573 119.622 273.922 120.273C273.401 120.794 272.555 121.576 271.383 122.617C271.253 122.878 268.388 126.589 262.789 133.75C258.362 139.349 255.432 142.344 254 142.734C252.568 143.255 250.549 143.516 247.945 143.516C244.039 143.516 241.5 143.19 240.328 142.539C238.896 141.237 237.398 139.935 235.836 138.633C232.841 137.201 229.846 135.768 226.852 134.336C223.857 132.773 222.555 129.779 222.945 125.352C223.076 123.789 223.857 120.469 225.289 115.391C225.68 113.958 227.047 111.745 229.391 108.75C231.734 105.755 233.036 103.281 233.297 101.328C233.427 99.2448 232.711 97.2266 231.148 95.2734C229.586 93.3203 227.763 92.3438 225.68 92.3438C224.898 92.3438 223.922 92.8646 222.75 93.9062C221.578 94.8177 220.732 95.3385 220.211 95.4688C218.779 95.4688 216.695 95.7292 213.961 96.25C213.57 96.3802 212.984 96.901 212.203 97.8125C211.422 98.5938 210.706 98.9844 210.055 98.9844C207.06 98.9844 205.628 97.9427 205.758 95.8594C205.888 94.9479 206.604 93.7109 207.906 92.1484C209.99 90.0651 211.096 88.8932 211.227 88.6328C211.357 87.0703 212.203 86.1589 213.766 85.8984C215.458 85.638 216.37 84.987 216.5 83.9453C216.5 83.5547 216.37 83.099 216.109 82.5781C215.849 81.9271 215.784 81.4062 215.914 81.0156C215.914 80.3646 216.565 79.4531 217.867 78.2812C219.299 77.1094 220.081 75.6771 220.211 73.9844C220.341 72.9427 220.406 71.3802 220.406 69.2969C220.406 67.0833 220.406 65.3906 220.406 64.2188C220.536 63.0469 220.732 62.0703 220.992 61.2891C221.383 59.987 221.969 59.2057 222.75 58.9453C226.005 57.7734 229.195 57.1875 232.32 57.1875C236.227 57.1875 238.049 58.4896 237.789 61.0938C237.789 61.875 237.464 63.1771 236.813 65C236.292 66.6927 235.966 67.9948 235.836 68.9062C235.836 69.5573 236.161 70.013 236.813 70.2734C237.464 70.5339 237.854 70.7292 237.984 70.8594C238.115 70.9896 238.44 72.2917 238.961 74.7656C239.352 76.3281 240.849 77.1094 243.453 77.1094C243.974 77.1094 244.625 77.0443 245.406 76.9141C246.318 76.7839 246.969 76.7188 247.359 76.7188C250.094 76.7188 251.591 77.8906 251.852 80.2344C252.112 82.5781 253.544 83.75 256.148 83.75C257.32 83.75 259.013 83.4245 261.227 82.7734C263.57 81.9922 265.328 81.6016 266.5 81.6016C269.365 81.6016 270.536 84.8568 270.016 91.3672C269.625 96.1849 268.453 99.375 266.5 100.938C265.198 102.109 262.008 103.216 256.93 104.258C254.977 105.82 253.609 107.057 252.828 107.969C251.005 109.792 250.094 111.354 250.094 112.656C249.964 113.047 249.964 113.633 250.094 114.414C250.224 115.195 250.289 115.781 250.289 116.172C250.159 117.734 249.508 118.906 248.336 119.688C247.294 120.469 246.708 121.445 246.578 122.617C246.578 123.138 246.643 123.854 246.773 124.766C247.034 125.677 247.099 126.393 246.969 126.914C246.708 127.695 246.383 128.802 245.992 130.234C245.992 130.625 246.122 130.82 246.383 130.82C250.549 130.82 254.586 128.867 258.492 124.961C259.013 124.44 259.339 123.203 259.469 121.25C259.729 119.297 261.227 117.539 263.961 115.977C266.695 114.414 268.974 113.633 270.797 113.633C273.792 113.633 275.224 114.935 275.094 117.539Z" fill="white"/>
<path d="M210.25 111.289C210.12 113.112 207.32 116.758 201.852 122.227C197.294 126.784 193.518 130.169 190.523 132.383C188.44 133.945 185.901 135.182 182.906 136.094C180.042 137.005 177.242 137.852 174.508 138.633C173.206 139.414 171.188 140.456 168.453 141.758C167.151 142.148 165.589 142.344 163.766 142.344C162.464 142.344 160.51 142.279 157.906 142.148C155.302 142.018 153.349 141.953 152.047 141.953C148.271 141.953 146.188 140.651 145.797 138.047C145.146 133.88 144.69 131.667 144.43 131.406C143.779 130.625 142.346 130.234 140.133 130.234C137.919 130.104 136.552 129.193 136.031 127.5C135.25 125.156 135.12 121.185 135.641 115.586C136.161 109.987 138.115 105.234 141.5 101.328C144.885 97.2917 146.643 94.1667 146.773 91.9531C146.904 91.0417 146.578 89.9349 145.797 88.6328C145.016 87.2005 144.625 86.0938 144.625 85.3125C144.885 82.3177 148.857 77.8255 156.539 71.8359C164.352 65.7161 169.82 62.6562 172.945 62.6562C174.247 62.6562 175.81 63.8281 177.633 66.1719C179.586 68.5156 181.539 69.6875 183.492 69.6875C184.013 69.6875 184.599 69.1667 185.25 68.125C185.901 66.9531 186.487 66.3672 187.008 66.3672C187.919 66.3672 190.784 67.5391 195.602 69.8828C200.94 72.6172 203.349 76.5885 202.828 81.7969C202.438 85.9635 201.331 89.1536 199.508 91.3672C197.815 93.4505 196.904 95.013 196.773 96.0547C196.773 96.5755 196.773 97.3568 196.773 98.3984C196.904 99.4401 196.904 100.221 196.773 100.742C196.643 102.956 194.625 104.323 190.719 104.844C187.854 105.104 184.99 105.43 182.125 105.82C180.693 107.383 178.154 109.271 174.508 111.484C171.773 112.266 167.672 112.656 162.203 112.656C160.641 112.656 159.729 114.023 159.469 116.758C159.469 116.888 159.99 119.102 161.031 123.398C161.422 125.221 163.766 126.068 168.062 125.938L170.797 125.742C179.911 125.482 188.57 122.161 196.773 115.781C198.336 114.089 200.029 112.331 201.852 110.508C203.805 108.555 205.628 107.578 207.32 107.578C209.534 107.578 210.51 108.815 210.25 111.289ZM183.102 82.1875C183.102 81.5365 181.539 80.7552 178.414 79.8438C177.503 80.3646 175.159 82.0573 171.383 84.9219C167.737 87.7865 165.654 89.4792 165.133 90C164.352 91.3021 163.766 93.4505 163.375 96.4453C163.245 98.5286 164.221 99.5703 166.305 99.5703C169.169 99.5703 171.904 99.1146 174.508 98.2031C178.023 96.901 179.846 95.0781 179.977 92.7344C180.107 91.9531 180.237 90.7812 180.367 89.2188C179.977 88.5677 179.716 87.9167 179.586 87.2656C180.628 85.8333 181.799 84.1406 183.102 82.1875Z" fill="white"/>
<path d="M157.906 22.4219C157.906 23.3333 157.841 24.7005 157.711 26.5234C157.32 30.8203 156.018 32.9688 153.805 32.9688C152.503 32.9688 150.615 31.7318 148.141 29.2578C145.797 26.6536 144.365 25.3516 143.844 25.3516C143.193 25.3516 142.802 26.0677 142.672 27.5C142.672 27.8906 142.477 28.4115 142.086 29.0625L140.133 29.8438C139.091 31.276 138.505 32.5781 138.375 33.75C138.375 34.2708 138.44 35.1823 138.57 36.4844C138.831 37.6562 138.961 38.5677 138.961 39.2188C138.7 41.0417 137.529 42.5391 135.445 43.7109C133.362 44.7526 132.255 45.4688 132.125 45.8594C130.953 48.3333 130.042 52.6953 129.391 58.9453C128.87 65.7161 129.065 70.9245 129.977 74.5703C130.628 77.4349 130.823 80.1042 130.562 82.5781C129.651 84.7917 128.414 87.8516 126.852 91.7578C124.898 96.7057 123.141 103.151 121.578 111.094C119.234 121.901 117.802 128.477 117.281 130.82C115.979 130.82 114.612 131.471 113.18 132.773C111.878 134.076 110.966 134.727 110.445 134.727C109.664 134.727 108.883 134.466 108.102 133.945C107.45 133.294 106.995 132.969 106.734 132.969C106.083 132.969 105.042 134.401 103.609 137.266C102.307 140 99.7682 141.367 95.9922 141.367C88.4401 141.367 83.4922 139.74 81.1484 136.484C81.0182 135.182 80.3672 133.424 79.1953 131.211C78.5442 130.56 77.1771 130.104 75.0937 129.844C73.1406 129.583 71.7734 129.128 70.9922 128.477C69.8203 127.435 69.3646 125.352 69.625 122.227C69.625 121.576 69.9505 120.599 70.6015 119.297C71.2526 117.995 71.5781 116.953 71.5781 116.172C71.7083 114.479 71.5781 111.94 71.1875 108.555C70.7968 105.039 70.6666 102.435 70.7968 100.742C70.9271 99.8307 71.3177 98.4635 71.9687 96.6406C72.6198 94.8177 72.9453 93.4505 72.9453 92.5391C73.0755 90.8464 72.2291 88.8281 70.4062 86.4844C68.7135 84.1406 68.0625 82.1224 68.4531 80.4297L67.8672 79.6484C67.4765 79.388 67.151 79.2578 66.8906 79.2578C65.7187 79.2578 64.8724 80.8203 64.3515 83.9453C64.2213 86.0286 64.0911 88.112 63.9609 90.1953L63.7656 91.1719C61.2916 94.4271 58.7526 98.5286 56.1484 103.477C56.1484 104.258 56.539 105.299 57.3203 106.602C58.1015 107.773 58.4271 108.75 58.2968 109.531C57.6458 110.443 56.8646 111.94 55.9531 114.023C55.6927 115.065 55.2369 119.036 54.5859 125.938C54.0651 131.927 53.7396 135.117 53.6093 135.508C52.6979 139.414 50.6146 141.367 47.3593 141.367C44.1041 141.367 39.9375 140.13 34.8593 137.656C29.7812 135.052 25.7448 133.75 22.75 133.75C22.3593 133.75 21.9036 133.62 21.3828 133.359C16.9557 131.276 14.7422 127.37 14.7422 121.641C14.7422 120.339 14.8724 118.581 15.1328 116.367C15.1328 115.716 15.3281 114.87 15.7187 113.828C16.2396 112.656 16.5 111.745 16.5 111.094C16.6302 110.312 16.4349 109.206 15.914 107.773C15.3932 106.341 15.1328 105.234 15.1328 104.453C15.1328 100.677 13.8307 94.9479 11.2265 87.2656C8.75258 80.1042 7.71091 74.8958 8.10153 71.6406C8.23174 69.2969 9.59893 67.474 12.2031 66.1719C14.9375 64.7396 16.3698 63.6979 16.5 63.0469C16.5 62.6562 16.3698 62.0052 16.1093 61.0938C15.9791 60.1823 15.914 59.4661 15.914 58.9453C15.914 58.6849 15.9791 58.2943 16.1093 57.7734C16.3698 57.2526 16.5 56.862 16.5 56.6016C16.6302 55.8203 16.1093 54.3229 14.9375 52.1094C13.7656 49.8958 13.2448 48.138 13.375 46.8359C13.375 46.5755 13.5703 46.1849 13.9609 45.6641C14.4817 45.013 14.7422 44.4922 14.7422 44.1016C15.3932 37.5911 15.263 34.2057 14.3515 33.9453C14.2213 33.8151 13.1146 33.6849 11.0312 33.5547C9.0781 33.4245 6.79945 32.4479 4.19528 30.625C1.72133 28.8021 0.614554 26.9141 0.874971 24.9609C1.00518 23.2682 2.11195 21.5755 4.19528 19.8828C6.40883 18.1901 8.42705 17.3438 10.25 17.3438C12.0729 17.3438 14.612 18.0599 17.8672 19.4922C21.1224 20.9245 23.5963 21.6406 25.289 21.6406C25.6797 21.6406 26.2005 21.5104 26.8515 21.25C27.6328 20.9896 28.2187 20.8594 28.6093 20.8594C30.0416 20.8594 32.7109 22.8125 36.6172 26.7188C40.6536 30.625 42.6067 33.2292 42.4765 34.5312C42.3463 35.8333 41.1093 38.3724 38.7656 42.1484C36.5521 45.9245 35.3802 48.5938 35.25 50.1562C35.1198 51.0677 35.9661 53.151 37.789 56.4062C39.6119 59.5312 40.3932 62.4609 40.1328 65.1953C39.8724 67.5391 38.7656 71.0547 36.8125 75.7422C34.9896 80.2995 34.013 83.8151 33.8828 86.2891C33.7526 87.9818 34.2734 90.4557 35.4453 93.7109C36.8776 97.3568 38.375 99.1797 39.9375 99.1797C41.8906 99.1797 44.1041 95.8594 46.5781 89.2188C47.3593 88.1771 48.3359 86.5495 49.5078 84.3359C50.1588 80.8203 50.8099 77.2396 51.4609 73.5938C52.2422 69.2969 54.1302 66.3672 57.125 64.8047C59.0781 63.763 60.25 60.9635 60.6406 56.4062C60.901 54.1927 60.9661 52.4349 60.8359 51.1328C60.0547 50.3516 59.2734 49.5052 58.4922 48.5938C56.9297 47.1615 56.2786 44.8177 56.539 41.5625C56.7994 39.6094 57.7109 36.875 59.2734 33.3594C61.2265 29.3229 62.9843 27.3047 64.5468 27.3047C64.9375 27.3047 65.5234 27.4349 66.3047 27.6953C70.4713 29.7786 76.1354 30.8203 83.2968 30.8203C83.6875 30.6901 84.0781 30.3646 84.4687 29.8438C84.8593 29.3229 85.3151 29.0625 85.8359 29.0625C88.1797 29.0625 90.1328 29.8438 91.6953 31.4062C93.2578 32.8385 93.9739 34.7266 93.8437 37.0703C93.5833 39.1536 92.5416 42.2135 90.7187 46.25C88.8958 50.1562 87.8541 53.151 87.5937 55.2344C87.3333 58.8802 87.5937 63.9583 88.375 70.4688C89.1562 76.849 89.4166 81.6667 89.1562 84.9219C89.026 86.875 89.6119 88.6979 90.914 90.3906C92.2161 91.9531 92.8021 93.125 92.6718 93.9062C92.5416 95.599 91.6953 97.5521 90.1328 99.7656C88.5703 101.849 87.7239 103.477 87.5937 104.648C87.4635 106.471 88.5703 108.815 90.914 111.68C93.388 114.414 95.6015 115.781 97.5547 115.781C97.5547 115.781 97.8151 115.716 98.3359 115.586C101.2 110.638 104.456 103.216 108.102 93.3203C107.841 92.2786 106.865 91.4974 105.172 90.9766C103.609 90.3255 102.763 89.4792 102.633 88.4375C102.112 86.6146 101.852 84.0755 101.852 80.8203C101.852 79.1276 102.503 70.6641 103.805 55.4297C104.846 44.7526 106.799 35.7031 109.664 28.2812C110.966 26.849 112.659 24.5052 114.742 21.25C116.044 17.2135 117.411 13.2422 118.844 9.33594C121.057 3.73698 123.661 0.9375 126.656 0.9375C128.609 0.9375 131.018 2.10938 133.883 4.45312C137.919 7.70833 140.198 9.46615 140.719 9.72656C144.365 10.8984 147.945 12.0703 151.461 13.2422C156.148 15.0651 158.297 18.125 157.906 22.4219Z" fill="white"/>
<path d="M521.938 194V169.5H539.438V174.4H527.433V178.915H538.353V183.815H527.433V189.135H539.438V194H521.938Z" fill="#FF2D2D"/>
<path d="M476.677 194V169.5H483.152L492.182 185.495H492.322V169.5H497.782V194H491.272L482.242 178.11H482.102V194H476.677Z" fill="#FF2D2D"/>
<path d="M447.003 194V169.5H452.533V194H447.003Z" fill="#FF2D2D"/>
<path d="M417.345 169.5H422.84V194H417.345V183.815H407.51V194H402.015V169.5H407.51V178.88H417.345V169.5Z" fill="#FF2D2D"/>
<path d="M368.416 194.315C360.541 194.315 356.551 188.75 356.551 181.785C356.551 174.715 360.541 169.185 368.416 169.185C374.681 169.185 378.916 173.56 379.266 178.74H373.666C373.456 176.395 371.846 174.155 368.416 174.155C364.356 174.155 362.151 176.85 362.151 181.785C362.151 186.72 364.356 189.38 368.416 189.38C371.706 189.38 373.281 187.315 373.701 185.005H379.266C378.776 190.045 374.646 194.315 368.416 194.315Z" fill="#FF2D2D"/>
<path d="M327.803 169.5L336.238 193.65V194H330.148L328.713 189.345H319.613L318.178 194H312.368V193.65L320.768 169.5H327.803ZM321.118 184.515H327.208L324.233 174.995H324.093L321.118 184.515Z" fill="#FF2D2D"/>
<path d="M264.422 194V169.5H270.442L277.337 180.735H277.477L284.372 169.5H290.322V194H285.002V178.18H284.862L277.547 189.94H277.197L269.882 178.075H269.742V194H264.422Z" fill="#FF2D2D"/>
<path d="M191.469 194V169.5H199.939C207.254 169.5 212.609 174.4 212.609 181.75C212.609 188.575 207.604 194 199.939 194H191.469ZM196.614 189.135H199.624C204.209 189.135 207.009 186.86 207.009 181.75C207.009 176.675 204.209 174.4 199.624 174.4H196.614V189.135Z" fill="#FF2D2D"/>
<path d="M146.208 194V169.5H152.683L161.713 185.495H161.853V169.5H167.313V194H160.803L151.773 178.11H151.633V194H146.208Z" fill="#FF2D2D"/>
<path d="M111.982 194.315C106.242 194.315 101.622 190.99 101.622 184.305V169.5H107.117V184.235C107.117 186.965 108.132 189.415 111.982 189.415C115.902 189.415 116.882 186.965 116.882 184.235V169.5H122.412V184.305C122.412 190.99 117.827 194.315 111.982 194.315Z" fill="#FF2D2D"/>
<path d="M67.3142 194.315C59.4042 194.315 55.4142 188.75 55.4142 181.75C55.4142 174.715 59.4042 169.185 67.3142 169.185C75.1892 169.185 79.2142 174.715 79.2142 181.75C79.2142 188.75 75.1892 194.315 67.3142 194.315ZM67.3142 189.345C71.3742 189.345 73.6142 186.685 73.6142 181.75C73.6142 176.815 71.3742 174.155 67.3142 174.155C63.2192 174.155 61.0142 176.815 61.0142 181.75C61.0142 186.685 63.2542 189.345 67.3142 189.345Z" fill="#FF2D2D"/>
<path d="M24.025 194.315C17.48 194.315 14.015 190.885 13.7 185.6H19.265C19.51 188.26 21.365 189.45 24.025 189.45C27.385 189.45 28.61 188.4 28.61 186.93C28.61 185.6 27.805 184.795 25.635 184.34L22.065 183.57C17.83 182.66 14.505 180.91 14.505 176.22C14.505 172.09 18.285 169.185 24.06 169.185C29.66 169.185 33.79 172.475 33.825 177.165H28.26C28.12 175.555 26.895 174.085 23.99 174.085C21.12 174.085 20.14 175.205 20.14 176.22C20.14 177.165 20.63 178.005 22.905 178.495L26.23 179.195C30.78 180.14 34.245 181.995 34.245 186.79C34.245 191.165 31.375 194.315 24.025 194.315Z" fill="#FF2D2D"/>
</svg>
